%TF.GenerationSoftware,KiCad,Pcbnew,(6.0.5)*%
%TF.CreationDate,2022-06-15T23:12:15-05:00*%
%TF.ProjectId,hauptic_pcb,68617570-7469-4635-9f70-63622e6b6963,rev?*%
%TF.SameCoordinates,Original*%
%TF.FileFunction,Legend,Top*%
%TF.FilePolarity,Positive*%
%FSLAX46Y46*%
G04 Gerber Fmt 4.6, Leading zero omitted, Abs format (unit mm)*
G04 Created by KiCad (PCBNEW (6.0.5)) date 2022-06-15 23:12:15*
%MOMM*%
%LPD*%
G01*
G04 APERTURE LIST*
%ADD10C,0.150000*%
%ADD11C,0.120000*%
G04 APERTURE END LIST*
D10*
X126619047Y-96337428D02*
X127380952Y-96337428D01*
X127000000Y-96718380D02*
X127000000Y-95956476D01*
X167259047Y-98877428D02*
X168020952Y-98877428D01*
X167640000Y-99258380D02*
X167640000Y-98496476D01*
X148971047Y-73223428D02*
X149732952Y-73223428D01*
X149352000Y-73604380D02*
X149352000Y-72842476D01*
X125593309Y-67227380D02*
X125706404Y-68227380D01*
X125986166Y-67513095D01*
X126087357Y-68227380D01*
X126450452Y-67227380D01*
X127093309Y-68179761D02*
X126992119Y-68227380D01*
X126801642Y-68227380D01*
X126712357Y-68179761D01*
X126676642Y-68084523D01*
X126724261Y-67703571D01*
X126783785Y-67608333D01*
X126884976Y-67560714D01*
X127075452Y-67560714D01*
X127164738Y-67608333D01*
X127200452Y-67703571D01*
X127188547Y-67798809D01*
X126700452Y-67894047D01*
X127962357Y-67703571D02*
X128099261Y-67751190D01*
X128140928Y-67798809D01*
X128176642Y-67894047D01*
X128158785Y-68036904D01*
X128099261Y-68132142D01*
X128045690Y-68179761D01*
X127944500Y-68227380D01*
X127563547Y-68227380D01*
X127688547Y-67227380D01*
X128021880Y-67227380D01*
X128111166Y-67275000D01*
X128152833Y-67322619D01*
X128188547Y-67417857D01*
X128176642Y-67513095D01*
X128117119Y-67608333D01*
X128063547Y-67655952D01*
X127962357Y-67703571D01*
X127629023Y-67703571D01*
X129134976Y-68227380D02*
X128861166Y-67751190D01*
X128563547Y-68227380D02*
X128688547Y-67227380D01*
X129069500Y-67227380D01*
X129158785Y-67275000D01*
X129200452Y-67322619D01*
X129236166Y-67417857D01*
X129218309Y-67560714D01*
X129158785Y-67655952D01*
X129105214Y-67703571D01*
X129004023Y-67751190D01*
X128623071Y-67751190D01*
X130801642Y-68227380D02*
X130325452Y-68227380D01*
X130450452Y-67227380D01*
X131563547Y-68227380D02*
X131629023Y-67703571D01*
X131593309Y-67608333D01*
X131504023Y-67560714D01*
X131313547Y-67560714D01*
X131212357Y-67608333D01*
X131569500Y-68179761D02*
X131468309Y-68227380D01*
X131230214Y-68227380D01*
X131140928Y-68179761D01*
X131105214Y-68084523D01*
X131117119Y-67989285D01*
X131176642Y-67894047D01*
X131277833Y-67846428D01*
X131515928Y-67846428D01*
X131617119Y-67798809D01*
X132039738Y-68227380D02*
X132164738Y-67227380D01*
X132117119Y-67608333D02*
X132218309Y-67560714D01*
X132408785Y-67560714D01*
X132498071Y-67608333D01*
X132539738Y-67655952D01*
X132575452Y-67751190D01*
X132539738Y-68036904D01*
X132480214Y-68132142D01*
X132426642Y-68179761D01*
X132325452Y-68227380D01*
X132134976Y-68227380D01*
X132045690Y-68179761D01*
X125563547Y-69837380D02*
X125688547Y-68837380D01*
X125992119Y-69837380D02*
X126057595Y-69313571D01*
X126021880Y-69218333D01*
X125932595Y-69170714D01*
X125789738Y-69170714D01*
X125688547Y-69218333D01*
X125634976Y-69265952D01*
X126456404Y-69551666D02*
X126932595Y-69551666D01*
X126325452Y-69837380D02*
X126783785Y-68837380D01*
X126992119Y-69837380D01*
X127450452Y-68837380D02*
X127349261Y-69646904D01*
X127384976Y-69742142D01*
X127426642Y-69789761D01*
X127515928Y-69837380D01*
X127706404Y-69837380D01*
X127807595Y-69789761D01*
X127861166Y-69742142D01*
X127920690Y-69646904D01*
X128021880Y-68837380D01*
X128456404Y-69170714D02*
X128331404Y-70170714D01*
X128450452Y-69218333D02*
X128551642Y-69170714D01*
X128742119Y-69170714D01*
X128831404Y-69218333D01*
X128873071Y-69265952D01*
X128908785Y-69361190D01*
X128873071Y-69646904D01*
X128813547Y-69742142D01*
X128759976Y-69789761D01*
X128658785Y-69837380D01*
X128468309Y-69837380D01*
X128379023Y-69789761D01*
X129218309Y-69170714D02*
X129599261Y-69170714D01*
X129402833Y-68837380D02*
X129295690Y-69694523D01*
X129331404Y-69789761D01*
X129420690Y-69837380D01*
X129515928Y-69837380D01*
X129849261Y-69837380D02*
X129932595Y-69170714D01*
X129974261Y-68837380D02*
X129920690Y-68885000D01*
X129962357Y-68932619D01*
X130015928Y-68885000D01*
X129974261Y-68837380D01*
X129962357Y-68932619D01*
X130759976Y-69789761D02*
X130658785Y-69837380D01*
X130468309Y-69837380D01*
X130379023Y-69789761D01*
X130337357Y-69742142D01*
X130301642Y-69646904D01*
X130337357Y-69361190D01*
X130396880Y-69265952D01*
X130450452Y-69218333D01*
X130551642Y-69170714D01*
X130742119Y-69170714D01*
X130831404Y-69218333D01*
X131944500Y-69837380D02*
X132069500Y-68837380D01*
X132450452Y-68837380D01*
X132539738Y-68885000D01*
X132581404Y-68932619D01*
X132617119Y-69027857D01*
X132599261Y-69170714D01*
X132539738Y-69265952D01*
X132486166Y-69313571D01*
X132384976Y-69361190D01*
X132004023Y-69361190D01*
X133373071Y-69837380D02*
X133438547Y-69313571D01*
X133402833Y-69218333D01*
X133313547Y-69170714D01*
X133123071Y-69170714D01*
X133021880Y-69218333D01*
X133379023Y-69789761D02*
X133277833Y-69837380D01*
X133039738Y-69837380D01*
X132950452Y-69789761D01*
X132914738Y-69694523D01*
X132926642Y-69599285D01*
X132986166Y-69504047D01*
X133087357Y-69456428D01*
X133325452Y-69456428D01*
X133426642Y-69408809D01*
X134277833Y-69837380D02*
X134402833Y-68837380D01*
X134283785Y-69789761D02*
X134182595Y-69837380D01*
X133992119Y-69837380D01*
X133902833Y-69789761D01*
X133861166Y-69742142D01*
X133825452Y-69646904D01*
X133861166Y-69361190D01*
X133920690Y-69265952D01*
X133974261Y-69218333D01*
X134075452Y-69170714D01*
X134265928Y-69170714D01*
X134355214Y-69218333D01*
X135182595Y-69837380D02*
X135307595Y-68837380D01*
X135188547Y-69789761D02*
X135087357Y-69837380D01*
X134896880Y-69837380D01*
X134807595Y-69789761D01*
X134765928Y-69742142D01*
X134730214Y-69646904D01*
X134765928Y-69361190D01*
X134825452Y-69265952D01*
X134879023Y-69218333D01*
X134980214Y-69170714D01*
X135170690Y-69170714D01*
X135259976Y-69218333D01*
X135801642Y-69837380D02*
X135712357Y-69789761D01*
X135676642Y-69694523D01*
X135783785Y-68837380D01*
X136569500Y-69789761D02*
X136468309Y-69837380D01*
X136277833Y-69837380D01*
X136188547Y-69789761D01*
X136152833Y-69694523D01*
X136200452Y-69313571D01*
X136259976Y-69218333D01*
X136361166Y-69170714D01*
X136551642Y-69170714D01*
X136640928Y-69218333D01*
X136676642Y-69313571D01*
X136664738Y-69408809D01*
X136176642Y-69504047D01*
X175895047Y-96591428D02*
X176656952Y-96591428D01*
X176276000Y-96972380D02*
X176276000Y-96210476D01*
X131620095Y-75128380D02*
X131143904Y-75128380D01*
X131143904Y-74128380D01*
X132096285Y-75128380D02*
X132001047Y-75080761D01*
X131953428Y-75033142D01*
X131905809Y-74937904D01*
X131905809Y-74652190D01*
X131953428Y-74556952D01*
X132001047Y-74509333D01*
X132096285Y-74461714D01*
X132239142Y-74461714D01*
X132334380Y-74509333D01*
X132382000Y-74556952D01*
X132429619Y-74652190D01*
X132429619Y-74937904D01*
X132382000Y-75033142D01*
X132334380Y-75080761D01*
X132239142Y-75128380D01*
X132096285Y-75128380D01*
X133286761Y-74461714D02*
X133286761Y-75271238D01*
X133239142Y-75366476D01*
X133191523Y-75414095D01*
X133096285Y-75461714D01*
X132953428Y-75461714D01*
X132858190Y-75414095D01*
X133286761Y-75080761D02*
X133191523Y-75128380D01*
X133001047Y-75128380D01*
X132905809Y-75080761D01*
X132858190Y-75033142D01*
X132810571Y-74937904D01*
X132810571Y-74652190D01*
X132858190Y-74556952D01*
X132905809Y-74509333D01*
X133001047Y-74461714D01*
X133191523Y-74461714D01*
X133286761Y-74509333D01*
X133762952Y-75128380D02*
X133762952Y-74461714D01*
X133762952Y-74128380D02*
X133715333Y-74176000D01*
X133762952Y-74223619D01*
X133810571Y-74176000D01*
X133762952Y-74128380D01*
X133762952Y-74223619D01*
X134667714Y-75080761D02*
X134572476Y-75128380D01*
X134382000Y-75128380D01*
X134286761Y-75080761D01*
X134239142Y-75033142D01*
X134191523Y-74937904D01*
X134191523Y-74652190D01*
X134239142Y-74556952D01*
X134286761Y-74509333D01*
X134382000Y-74461714D01*
X134572476Y-74461714D01*
X134667714Y-74509333D01*
X134858190Y-75223619D02*
X135620095Y-75223619D01*
X135858190Y-75128380D02*
X135858190Y-74128380D01*
X135858190Y-74509333D02*
X135953428Y-74461714D01*
X136143904Y-74461714D01*
X136239142Y-74509333D01*
X136286761Y-74556952D01*
X136334380Y-74652190D01*
X136334380Y-74937904D01*
X136286761Y-75033142D01*
X136239142Y-75080761D01*
X136143904Y-75128380D01*
X135953428Y-75128380D01*
X135858190Y-75080761D01*
X136905809Y-75128380D02*
X136810571Y-75080761D01*
X136762952Y-75033142D01*
X136715333Y-74937904D01*
X136715333Y-74652190D01*
X136762952Y-74556952D01*
X136810571Y-74509333D01*
X136905809Y-74461714D01*
X137048666Y-74461714D01*
X137143904Y-74509333D01*
X137191523Y-74556952D01*
X137239142Y-74652190D01*
X137239142Y-74937904D01*
X137191523Y-75033142D01*
X137143904Y-75080761D01*
X137048666Y-75128380D01*
X136905809Y-75128380D01*
X138096285Y-75128380D02*
X138096285Y-74604571D01*
X138048666Y-74509333D01*
X137953428Y-74461714D01*
X137762952Y-74461714D01*
X137667714Y-74509333D01*
X138096285Y-75080761D02*
X138001047Y-75128380D01*
X137762952Y-75128380D01*
X137667714Y-75080761D01*
X137620095Y-74985523D01*
X137620095Y-74890285D01*
X137667714Y-74795047D01*
X137762952Y-74747428D01*
X138001047Y-74747428D01*
X138096285Y-74699809D01*
X138572476Y-75128380D02*
X138572476Y-74461714D01*
X138572476Y-74652190D02*
X138620095Y-74556952D01*
X138667714Y-74509333D01*
X138762952Y-74461714D01*
X138858190Y-74461714D01*
X139620095Y-75128380D02*
X139620095Y-74128380D01*
X139620095Y-75080761D02*
X139524857Y-75128380D01*
X139334380Y-75128380D01*
X139239142Y-75080761D01*
X139191523Y-75033142D01*
X139143904Y-74937904D01*
X139143904Y-74652190D01*
X139191523Y-74556952D01*
X139239142Y-74509333D01*
X139334380Y-74461714D01*
X139524857Y-74461714D01*
X139620095Y-74509333D01*
X175895047Y-84399428D02*
X176656952Y-84399428D01*
X176276000Y-84780380D02*
X176276000Y-84018476D01*
X168275047Y-73223428D02*
X169036952Y-73223428D01*
X168656000Y-73604380D02*
X168656000Y-72842476D01*
X155940666Y-75128380D02*
X155940666Y-74128380D01*
X156274000Y-74842666D01*
X156607333Y-74128380D01*
X156607333Y-75128380D01*
X157226380Y-75128380D02*
X157131142Y-75080761D01*
X157083523Y-75033142D01*
X157035904Y-74937904D01*
X157035904Y-74652190D01*
X157083523Y-74556952D01*
X157131142Y-74509333D01*
X157226380Y-74461714D01*
X157369238Y-74461714D01*
X157464476Y-74509333D01*
X157512095Y-74556952D01*
X157559714Y-74652190D01*
X157559714Y-74937904D01*
X157512095Y-75033142D01*
X157464476Y-75080761D01*
X157369238Y-75128380D01*
X157226380Y-75128380D01*
X157845428Y-74461714D02*
X158226380Y-74461714D01*
X157988285Y-74128380D02*
X157988285Y-74985523D01*
X158035904Y-75080761D01*
X158131142Y-75128380D01*
X158226380Y-75128380D01*
X158702571Y-75128380D02*
X158607333Y-75080761D01*
X158559714Y-75033142D01*
X158512095Y-74937904D01*
X158512095Y-74652190D01*
X158559714Y-74556952D01*
X158607333Y-74509333D01*
X158702571Y-74461714D01*
X158845428Y-74461714D01*
X158940666Y-74509333D01*
X158988285Y-74556952D01*
X159035904Y-74652190D01*
X159035904Y-74937904D01*
X158988285Y-75033142D01*
X158940666Y-75080761D01*
X158845428Y-75128380D01*
X158702571Y-75128380D01*
X159464476Y-75128380D02*
X159464476Y-74461714D01*
X159464476Y-74652190D02*
X159512095Y-74556952D01*
X159559714Y-74509333D01*
X159654952Y-74461714D01*
X159750190Y-74461714D01*
X159845428Y-75223619D02*
X160607333Y-75223619D01*
X161274000Y-75128380D02*
X161274000Y-74128380D01*
X161274000Y-75080761D02*
X161178761Y-75128380D01*
X160988285Y-75128380D01*
X160893047Y-75080761D01*
X160845428Y-75033142D01*
X160797809Y-74937904D01*
X160797809Y-74652190D01*
X160845428Y-74556952D01*
X160893047Y-74509333D01*
X160988285Y-74461714D01*
X161178761Y-74461714D01*
X161274000Y-74509333D01*
X161750190Y-75128380D02*
X161750190Y-74461714D01*
X161750190Y-74652190D02*
X161797809Y-74556952D01*
X161845428Y-74509333D01*
X161940666Y-74461714D01*
X162035904Y-74461714D01*
X162369238Y-75128380D02*
X162369238Y-74461714D01*
X162369238Y-74128380D02*
X162321619Y-74176000D01*
X162369238Y-74223619D01*
X162416857Y-74176000D01*
X162369238Y-74128380D01*
X162369238Y-74223619D01*
X162750190Y-74461714D02*
X162988285Y-75128380D01*
X163226380Y-74461714D01*
X163988285Y-75080761D02*
X163893047Y-75128380D01*
X163702571Y-75128380D01*
X163607333Y-75080761D01*
X163559714Y-74985523D01*
X163559714Y-74604571D01*
X163607333Y-74509333D01*
X163702571Y-74461714D01*
X163893047Y-74461714D01*
X163988285Y-74509333D01*
X164035904Y-74604571D01*
X164035904Y-74699809D01*
X163559714Y-74795047D01*
X164464476Y-75128380D02*
X164464476Y-74461714D01*
X164464476Y-74652190D02*
X164512095Y-74556952D01*
X164559714Y-74509333D01*
X164654952Y-74461714D01*
X164750190Y-74461714D01*
%TO.C,Regulator*%
X163584285Y-68524380D02*
X163250952Y-68048190D01*
X163012857Y-68524380D02*
X163012857Y-67524380D01*
X163393809Y-67524380D01*
X163489047Y-67572000D01*
X163536666Y-67619619D01*
X163584285Y-67714857D01*
X163584285Y-67857714D01*
X163536666Y-67952952D01*
X163489047Y-68000571D01*
X163393809Y-68048190D01*
X163012857Y-68048190D01*
X164393809Y-68476761D02*
X164298571Y-68524380D01*
X164108095Y-68524380D01*
X164012857Y-68476761D01*
X163965238Y-68381523D01*
X163965238Y-68000571D01*
X164012857Y-67905333D01*
X164108095Y-67857714D01*
X164298571Y-67857714D01*
X164393809Y-67905333D01*
X164441428Y-68000571D01*
X164441428Y-68095809D01*
X163965238Y-68191047D01*
X165298571Y-67857714D02*
X165298571Y-68667238D01*
X165250952Y-68762476D01*
X165203333Y-68810095D01*
X165108095Y-68857714D01*
X164965238Y-68857714D01*
X164870000Y-68810095D01*
X165298571Y-68476761D02*
X165203333Y-68524380D01*
X165012857Y-68524380D01*
X164917619Y-68476761D01*
X164870000Y-68429142D01*
X164822380Y-68333904D01*
X164822380Y-68048190D01*
X164870000Y-67952952D01*
X164917619Y-67905333D01*
X165012857Y-67857714D01*
X165203333Y-67857714D01*
X165298571Y-67905333D01*
X166203333Y-67857714D02*
X166203333Y-68524380D01*
X165774761Y-67857714D02*
X165774761Y-68381523D01*
X165822380Y-68476761D01*
X165917619Y-68524380D01*
X166060476Y-68524380D01*
X166155714Y-68476761D01*
X166203333Y-68429142D01*
X166822380Y-68524380D02*
X166727142Y-68476761D01*
X166679523Y-68381523D01*
X166679523Y-67524380D01*
X167631904Y-68524380D02*
X167631904Y-68000571D01*
X167584285Y-67905333D01*
X167489047Y-67857714D01*
X167298571Y-67857714D01*
X167203333Y-67905333D01*
X167631904Y-68476761D02*
X167536666Y-68524380D01*
X167298571Y-68524380D01*
X167203333Y-68476761D01*
X167155714Y-68381523D01*
X167155714Y-68286285D01*
X167203333Y-68191047D01*
X167298571Y-68143428D01*
X167536666Y-68143428D01*
X167631904Y-68095809D01*
X167965238Y-67857714D02*
X168346190Y-67857714D01*
X168108095Y-67524380D02*
X168108095Y-68381523D01*
X168155714Y-68476761D01*
X168250952Y-68524380D01*
X168346190Y-68524380D01*
X168822380Y-68524380D02*
X168727142Y-68476761D01*
X168679523Y-68429142D01*
X168631904Y-68333904D01*
X168631904Y-68048190D01*
X168679523Y-67952952D01*
X168727142Y-67905333D01*
X168822380Y-67857714D01*
X168965238Y-67857714D01*
X169060476Y-67905333D01*
X169108095Y-67952952D01*
X169155714Y-68048190D01*
X169155714Y-68333904D01*
X169108095Y-68429142D01*
X169060476Y-68476761D01*
X168965238Y-68524380D01*
X168822380Y-68524380D01*
X169584285Y-68524380D02*
X169584285Y-67857714D01*
X169584285Y-68048190D02*
X169631904Y-67952952D01*
X169679523Y-67905333D01*
X169774761Y-67857714D01*
X169870000Y-67857714D01*
%TO.C,Motor_driver*%
X165552380Y-91455333D02*
X164552380Y-91455333D01*
X165266666Y-91122000D01*
X164552380Y-90788666D01*
X165552380Y-90788666D01*
X165552380Y-90169619D02*
X165504761Y-90264857D01*
X165457142Y-90312476D01*
X165361904Y-90360095D01*
X165076190Y-90360095D01*
X164980952Y-90312476D01*
X164933333Y-90264857D01*
X164885714Y-90169619D01*
X164885714Y-90026761D01*
X164933333Y-89931523D01*
X164980952Y-89883904D01*
X165076190Y-89836285D01*
X165361904Y-89836285D01*
X165457142Y-89883904D01*
X165504761Y-89931523D01*
X165552380Y-90026761D01*
X165552380Y-90169619D01*
X164885714Y-89550571D02*
X164885714Y-89169619D01*
X164552380Y-89407714D02*
X165409523Y-89407714D01*
X165504761Y-89360095D01*
X165552380Y-89264857D01*
X165552380Y-89169619D01*
X165552380Y-88693428D02*
X165504761Y-88788666D01*
X165457142Y-88836285D01*
X165361904Y-88883904D01*
X165076190Y-88883904D01*
X164980952Y-88836285D01*
X164933333Y-88788666D01*
X164885714Y-88693428D01*
X164885714Y-88550571D01*
X164933333Y-88455333D01*
X164980952Y-88407714D01*
X165076190Y-88360095D01*
X165361904Y-88360095D01*
X165457142Y-88407714D01*
X165504761Y-88455333D01*
X165552380Y-88550571D01*
X165552380Y-88693428D01*
X165552380Y-87931523D02*
X164885714Y-87931523D01*
X165076190Y-87931523D02*
X164980952Y-87883904D01*
X164933333Y-87836285D01*
X164885714Y-87741047D01*
X164885714Y-87645809D01*
X165647619Y-87550571D02*
X165647619Y-86788666D01*
X165552380Y-86122000D02*
X164552380Y-86122000D01*
X165504761Y-86122000D02*
X165552380Y-86217238D01*
X165552380Y-86407714D01*
X165504761Y-86502952D01*
X165457142Y-86550571D01*
X165361904Y-86598190D01*
X165076190Y-86598190D01*
X164980952Y-86550571D01*
X164933333Y-86502952D01*
X164885714Y-86407714D01*
X164885714Y-86217238D01*
X164933333Y-86122000D01*
X165552380Y-85645809D02*
X164885714Y-85645809D01*
X165076190Y-85645809D02*
X164980952Y-85598190D01*
X164933333Y-85550571D01*
X164885714Y-85455333D01*
X164885714Y-85360095D01*
X165552380Y-85026761D02*
X164885714Y-85026761D01*
X164552380Y-85026761D02*
X164600000Y-85074380D01*
X164647619Y-85026761D01*
X164600000Y-84979142D01*
X164552380Y-85026761D01*
X164647619Y-85026761D01*
X164885714Y-84645809D02*
X165552380Y-84407714D01*
X164885714Y-84169619D01*
X165504761Y-83407714D02*
X165552380Y-83502952D01*
X165552380Y-83693428D01*
X165504761Y-83788666D01*
X165409523Y-83836285D01*
X165028571Y-83836285D01*
X164933333Y-83788666D01*
X164885714Y-83693428D01*
X164885714Y-83502952D01*
X164933333Y-83407714D01*
X165028571Y-83360095D01*
X165123809Y-83360095D01*
X165219047Y-83836285D01*
X165552380Y-82931523D02*
X164885714Y-82931523D01*
X165076190Y-82931523D02*
X164980952Y-82883904D01*
X164933333Y-82836285D01*
X164885714Y-82741047D01*
X164885714Y-82645809D01*
X155392380Y-91455333D02*
X154392380Y-91455333D01*
X155106666Y-91122000D01*
X154392380Y-90788666D01*
X155392380Y-90788666D01*
X155392380Y-90169619D02*
X155344761Y-90264857D01*
X155297142Y-90312476D01*
X155201904Y-90360095D01*
X154916190Y-90360095D01*
X154820952Y-90312476D01*
X154773333Y-90264857D01*
X154725714Y-90169619D01*
X154725714Y-90026761D01*
X154773333Y-89931523D01*
X154820952Y-89883904D01*
X154916190Y-89836285D01*
X155201904Y-89836285D01*
X155297142Y-89883904D01*
X155344761Y-89931523D01*
X155392380Y-90026761D01*
X155392380Y-90169619D01*
X154725714Y-89550571D02*
X154725714Y-89169619D01*
X154392380Y-89407714D02*
X155249523Y-89407714D01*
X155344761Y-89360095D01*
X155392380Y-89264857D01*
X155392380Y-89169619D01*
X155392380Y-88693428D02*
X155344761Y-88788666D01*
X155297142Y-88836285D01*
X155201904Y-88883904D01*
X154916190Y-88883904D01*
X154820952Y-88836285D01*
X154773333Y-88788666D01*
X154725714Y-88693428D01*
X154725714Y-88550571D01*
X154773333Y-88455333D01*
X154820952Y-88407714D01*
X154916190Y-88360095D01*
X155201904Y-88360095D01*
X155297142Y-88407714D01*
X155344761Y-88455333D01*
X155392380Y-88550571D01*
X155392380Y-88693428D01*
X155392380Y-87931523D02*
X154725714Y-87931523D01*
X154916190Y-87931523D02*
X154820952Y-87883904D01*
X154773333Y-87836285D01*
X154725714Y-87741047D01*
X154725714Y-87645809D01*
X155487619Y-87550571D02*
X155487619Y-86788666D01*
X155392380Y-86122000D02*
X154392380Y-86122000D01*
X155344761Y-86122000D02*
X155392380Y-86217238D01*
X155392380Y-86407714D01*
X155344761Y-86502952D01*
X155297142Y-86550571D01*
X155201904Y-86598190D01*
X154916190Y-86598190D01*
X154820952Y-86550571D01*
X154773333Y-86502952D01*
X154725714Y-86407714D01*
X154725714Y-86217238D01*
X154773333Y-86122000D01*
X155392380Y-85645809D02*
X154725714Y-85645809D01*
X154916190Y-85645809D02*
X154820952Y-85598190D01*
X154773333Y-85550571D01*
X154725714Y-85455333D01*
X154725714Y-85360095D01*
X155392380Y-85026761D02*
X154725714Y-85026761D01*
X154392380Y-85026761D02*
X154440000Y-85074380D01*
X154487619Y-85026761D01*
X154440000Y-84979142D01*
X154392380Y-85026761D01*
X154487619Y-85026761D01*
X154725714Y-84645809D02*
X155392380Y-84407714D01*
X154725714Y-84169619D01*
X155344761Y-83407714D02*
X155392380Y-83502952D01*
X155392380Y-83693428D01*
X155344761Y-83788666D01*
X155249523Y-83836285D01*
X154868571Y-83836285D01*
X154773333Y-83788666D01*
X154725714Y-83693428D01*
X154725714Y-83502952D01*
X154773333Y-83407714D01*
X154868571Y-83360095D01*
X154963809Y-83360095D01*
X155059047Y-83836285D01*
X155392380Y-82931523D02*
X154725714Y-82931523D01*
X154916190Y-82931523D02*
X154820952Y-82883904D01*
X154773333Y-82836285D01*
X154725714Y-82741047D01*
X154725714Y-82645809D01*
%TO.C,Logic_board*%
X139390380Y-90883904D02*
X139390380Y-91360095D01*
X138390380Y-91360095D01*
X139390380Y-90407714D02*
X139342761Y-90502952D01*
X139295142Y-90550571D01*
X139199904Y-90598190D01*
X138914190Y-90598190D01*
X138818952Y-90550571D01*
X138771333Y-90502952D01*
X138723714Y-90407714D01*
X138723714Y-90264857D01*
X138771333Y-90169619D01*
X138818952Y-90122000D01*
X138914190Y-90074380D01*
X139199904Y-90074380D01*
X139295142Y-90122000D01*
X139342761Y-90169619D01*
X139390380Y-90264857D01*
X139390380Y-90407714D01*
X138723714Y-89217238D02*
X139533238Y-89217238D01*
X139628476Y-89264857D01*
X139676095Y-89312476D01*
X139723714Y-89407714D01*
X139723714Y-89550571D01*
X139676095Y-89645809D01*
X139342761Y-89217238D02*
X139390380Y-89312476D01*
X139390380Y-89502952D01*
X139342761Y-89598190D01*
X139295142Y-89645809D01*
X139199904Y-89693428D01*
X138914190Y-89693428D01*
X138818952Y-89645809D01*
X138771333Y-89598190D01*
X138723714Y-89502952D01*
X138723714Y-89312476D01*
X138771333Y-89217238D01*
X139390380Y-88741047D02*
X138723714Y-88741047D01*
X138390380Y-88741047D02*
X138438000Y-88788666D01*
X138485619Y-88741047D01*
X138438000Y-88693428D01*
X138390380Y-88741047D01*
X138485619Y-88741047D01*
X139342761Y-87836285D02*
X139390380Y-87931523D01*
X139390380Y-88122000D01*
X139342761Y-88217238D01*
X139295142Y-88264857D01*
X139199904Y-88312476D01*
X138914190Y-88312476D01*
X138818952Y-88264857D01*
X138771333Y-88217238D01*
X138723714Y-88122000D01*
X138723714Y-87931523D01*
X138771333Y-87836285D01*
X139485619Y-87645809D02*
X139485619Y-86883904D01*
X139390380Y-86645809D02*
X138390380Y-86645809D01*
X138771333Y-86645809D02*
X138723714Y-86550571D01*
X138723714Y-86360095D01*
X138771333Y-86264857D01*
X138818952Y-86217238D01*
X138914190Y-86169619D01*
X139199904Y-86169619D01*
X139295142Y-86217238D01*
X139342761Y-86264857D01*
X139390380Y-86360095D01*
X139390380Y-86550571D01*
X139342761Y-86645809D01*
X139390380Y-85598190D02*
X139342761Y-85693428D01*
X139295142Y-85741047D01*
X139199904Y-85788666D01*
X138914190Y-85788666D01*
X138818952Y-85741047D01*
X138771333Y-85693428D01*
X138723714Y-85598190D01*
X138723714Y-85455333D01*
X138771333Y-85360095D01*
X138818952Y-85312476D01*
X138914190Y-85264857D01*
X139199904Y-85264857D01*
X139295142Y-85312476D01*
X139342761Y-85360095D01*
X139390380Y-85455333D01*
X139390380Y-85598190D01*
X139390380Y-84407714D02*
X138866571Y-84407714D01*
X138771333Y-84455333D01*
X138723714Y-84550571D01*
X138723714Y-84741047D01*
X138771333Y-84836285D01*
X139342761Y-84407714D02*
X139390380Y-84502952D01*
X139390380Y-84741047D01*
X139342761Y-84836285D01*
X139247523Y-84883904D01*
X139152285Y-84883904D01*
X139057047Y-84836285D01*
X139009428Y-84741047D01*
X139009428Y-84502952D01*
X138961809Y-84407714D01*
X139390380Y-83931523D02*
X138723714Y-83931523D01*
X138914190Y-83931523D02*
X138818952Y-83883904D01*
X138771333Y-83836285D01*
X138723714Y-83741047D01*
X138723714Y-83645809D01*
X139390380Y-82883904D02*
X138390380Y-82883904D01*
X139342761Y-82883904D02*
X139390380Y-82979142D01*
X139390380Y-83169619D01*
X139342761Y-83264857D01*
X139295142Y-83312476D01*
X139199904Y-83360095D01*
X138914190Y-83360095D01*
X138818952Y-83312476D01*
X138771333Y-83264857D01*
X138723714Y-83169619D01*
X138723714Y-82979142D01*
X138771333Y-82883904D01*
%TO.C,Power*%
X171648380Y-87574190D02*
X170648380Y-87574190D01*
X170648380Y-87193238D01*
X170696000Y-87098000D01*
X170743619Y-87050380D01*
X170838857Y-87002761D01*
X170981714Y-87002761D01*
X171076952Y-87050380D01*
X171124571Y-87098000D01*
X171172190Y-87193238D01*
X171172190Y-87574190D01*
X171648380Y-86431333D02*
X171600761Y-86526571D01*
X171553142Y-86574190D01*
X171457904Y-86621809D01*
X171172190Y-86621809D01*
X171076952Y-86574190D01*
X171029333Y-86526571D01*
X170981714Y-86431333D01*
X170981714Y-86288476D01*
X171029333Y-86193238D01*
X171076952Y-86145619D01*
X171172190Y-86098000D01*
X171457904Y-86098000D01*
X171553142Y-86145619D01*
X171600761Y-86193238D01*
X171648380Y-86288476D01*
X171648380Y-86431333D01*
X170981714Y-85764666D02*
X171648380Y-85574190D01*
X171172190Y-85383714D01*
X171648380Y-85193238D01*
X170981714Y-85002761D01*
X171600761Y-84240857D02*
X171648380Y-84336095D01*
X171648380Y-84526571D01*
X171600761Y-84621809D01*
X171505523Y-84669428D01*
X171124571Y-84669428D01*
X171029333Y-84621809D01*
X170981714Y-84526571D01*
X170981714Y-84336095D01*
X171029333Y-84240857D01*
X171124571Y-84193238D01*
X171219809Y-84193238D01*
X171315047Y-84669428D01*
X171648380Y-83764666D02*
X170981714Y-83764666D01*
X171172190Y-83764666D02*
X171076952Y-83717047D01*
X171029333Y-83669428D01*
X170981714Y-83574190D01*
X170981714Y-83478952D01*
%TO.C,Sensor*%
X144478666Y-68476761D02*
X144621523Y-68524380D01*
X144859619Y-68524380D01*
X144954857Y-68476761D01*
X145002476Y-68429142D01*
X145050095Y-68333904D01*
X145050095Y-68238666D01*
X145002476Y-68143428D01*
X144954857Y-68095809D01*
X144859619Y-68048190D01*
X144669142Y-68000571D01*
X144573904Y-67952952D01*
X144526285Y-67905333D01*
X144478666Y-67810095D01*
X144478666Y-67714857D01*
X144526285Y-67619619D01*
X144573904Y-67572000D01*
X144669142Y-67524380D01*
X144907238Y-67524380D01*
X145050095Y-67572000D01*
X145859619Y-68476761D02*
X145764380Y-68524380D01*
X145573904Y-68524380D01*
X145478666Y-68476761D01*
X145431047Y-68381523D01*
X145431047Y-68000571D01*
X145478666Y-67905333D01*
X145573904Y-67857714D01*
X145764380Y-67857714D01*
X145859619Y-67905333D01*
X145907238Y-68000571D01*
X145907238Y-68095809D01*
X145431047Y-68191047D01*
X146335809Y-67857714D02*
X146335809Y-68524380D01*
X146335809Y-67952952D02*
X146383428Y-67905333D01*
X146478666Y-67857714D01*
X146621523Y-67857714D01*
X146716761Y-67905333D01*
X146764380Y-68000571D01*
X146764380Y-68524380D01*
X147192952Y-68476761D02*
X147288190Y-68524380D01*
X147478666Y-68524380D01*
X147573904Y-68476761D01*
X147621523Y-68381523D01*
X147621523Y-68333904D01*
X147573904Y-68238666D01*
X147478666Y-68191047D01*
X147335809Y-68191047D01*
X147240571Y-68143428D01*
X147192952Y-68048190D01*
X147192952Y-68000571D01*
X147240571Y-67905333D01*
X147335809Y-67857714D01*
X147478666Y-67857714D01*
X147573904Y-67905333D01*
X148192952Y-68524380D02*
X148097714Y-68476761D01*
X148050095Y-68429142D01*
X148002476Y-68333904D01*
X148002476Y-68048190D01*
X148050095Y-67952952D01*
X148097714Y-67905333D01*
X148192952Y-67857714D01*
X148335809Y-67857714D01*
X148431047Y-67905333D01*
X148478666Y-67952952D01*
X148526285Y-68048190D01*
X148526285Y-68333904D01*
X148478666Y-68429142D01*
X148431047Y-68476761D01*
X148335809Y-68524380D01*
X148192952Y-68524380D01*
X148954857Y-68524380D02*
X148954857Y-67857714D01*
X148954857Y-68048190D02*
X149002476Y-67952952D01*
X149050095Y-67905333D01*
X149145333Y-67857714D01*
X149240571Y-67857714D01*
%TO.C,Communication*%
X135279428Y-103989142D02*
X135231809Y-104036761D01*
X135088952Y-104084380D01*
X134993714Y-104084380D01*
X134850857Y-104036761D01*
X134755619Y-103941523D01*
X134708000Y-103846285D01*
X134660380Y-103655809D01*
X134660380Y-103512952D01*
X134708000Y-103322476D01*
X134755619Y-103227238D01*
X134850857Y-103132000D01*
X134993714Y-103084380D01*
X135088952Y-103084380D01*
X135231809Y-103132000D01*
X135279428Y-103179619D01*
X135850857Y-104084380D02*
X135755619Y-104036761D01*
X135708000Y-103989142D01*
X135660380Y-103893904D01*
X135660380Y-103608190D01*
X135708000Y-103512952D01*
X135755619Y-103465333D01*
X135850857Y-103417714D01*
X135993714Y-103417714D01*
X136088952Y-103465333D01*
X136136571Y-103512952D01*
X136184190Y-103608190D01*
X136184190Y-103893904D01*
X136136571Y-103989142D01*
X136088952Y-104036761D01*
X135993714Y-104084380D01*
X135850857Y-104084380D01*
X136612761Y-104084380D02*
X136612761Y-103417714D01*
X136612761Y-103512952D02*
X136660380Y-103465333D01*
X136755619Y-103417714D01*
X136898476Y-103417714D01*
X136993714Y-103465333D01*
X137041333Y-103560571D01*
X137041333Y-104084380D01*
X137041333Y-103560571D02*
X137088952Y-103465333D01*
X137184190Y-103417714D01*
X137327047Y-103417714D01*
X137422285Y-103465333D01*
X137469904Y-103560571D01*
X137469904Y-104084380D01*
X137946095Y-104084380D02*
X137946095Y-103417714D01*
X137946095Y-103512952D02*
X137993714Y-103465333D01*
X138088952Y-103417714D01*
X138231809Y-103417714D01*
X138327047Y-103465333D01*
X138374666Y-103560571D01*
X138374666Y-104084380D01*
X138374666Y-103560571D02*
X138422285Y-103465333D01*
X138517523Y-103417714D01*
X138660380Y-103417714D01*
X138755619Y-103465333D01*
X138803238Y-103560571D01*
X138803238Y-104084380D01*
X139708000Y-103417714D02*
X139708000Y-104084380D01*
X139279428Y-103417714D02*
X139279428Y-103941523D01*
X139327047Y-104036761D01*
X139422285Y-104084380D01*
X139565142Y-104084380D01*
X139660380Y-104036761D01*
X139708000Y-103989142D01*
X140184190Y-103417714D02*
X140184190Y-104084380D01*
X140184190Y-103512952D02*
X140231809Y-103465333D01*
X140327047Y-103417714D01*
X140469904Y-103417714D01*
X140565142Y-103465333D01*
X140612761Y-103560571D01*
X140612761Y-104084380D01*
X141088952Y-104084380D02*
X141088952Y-103417714D01*
X141088952Y-103084380D02*
X141041333Y-103132000D01*
X141088952Y-103179619D01*
X141136571Y-103132000D01*
X141088952Y-103084380D01*
X141088952Y-103179619D01*
X141993714Y-104036761D02*
X141898476Y-104084380D01*
X141708000Y-104084380D01*
X141612761Y-104036761D01*
X141565142Y-103989142D01*
X141517523Y-103893904D01*
X141517523Y-103608190D01*
X141565142Y-103512952D01*
X141612761Y-103465333D01*
X141708000Y-103417714D01*
X141898476Y-103417714D01*
X141993714Y-103465333D01*
X142850857Y-104084380D02*
X142850857Y-103560571D01*
X142803238Y-103465333D01*
X142708000Y-103417714D01*
X142517523Y-103417714D01*
X142422285Y-103465333D01*
X142850857Y-104036761D02*
X142755619Y-104084380D01*
X142517523Y-104084380D01*
X142422285Y-104036761D01*
X142374666Y-103941523D01*
X142374666Y-103846285D01*
X142422285Y-103751047D01*
X142517523Y-103703428D01*
X142755619Y-103703428D01*
X142850857Y-103655809D01*
X143184190Y-103417714D02*
X143565142Y-103417714D01*
X143327047Y-103084380D02*
X143327047Y-103941523D01*
X143374666Y-104036761D01*
X143469904Y-104084380D01*
X143565142Y-104084380D01*
X143898476Y-104084380D02*
X143898476Y-103417714D01*
X143898476Y-103084380D02*
X143850857Y-103132000D01*
X143898476Y-103179619D01*
X143946095Y-103132000D01*
X143898476Y-103084380D01*
X143898476Y-103179619D01*
X144517523Y-104084380D02*
X144422285Y-104036761D01*
X144374666Y-103989142D01*
X144327047Y-103893904D01*
X144327047Y-103608190D01*
X144374666Y-103512952D01*
X144422285Y-103465333D01*
X144517523Y-103417714D01*
X144660380Y-103417714D01*
X144755619Y-103465333D01*
X144803238Y-103512952D01*
X144850857Y-103608190D01*
X144850857Y-103893904D01*
X144803238Y-103989142D01*
X144755619Y-104036761D01*
X144660380Y-104084380D01*
X144517523Y-104084380D01*
X145279428Y-103417714D02*
X145279428Y-104084380D01*
X145279428Y-103512952D02*
X145327047Y-103465333D01*
X145422285Y-103417714D01*
X145565142Y-103417714D01*
X145660380Y-103465333D01*
X145708000Y-103560571D01*
X145708000Y-104084380D01*
%TO.C,Motor*%
X171648380Y-97845333D02*
X170648380Y-97845333D01*
X171362666Y-97512000D01*
X170648380Y-97178666D01*
X171648380Y-97178666D01*
X171648380Y-96559619D02*
X171600761Y-96654857D01*
X171553142Y-96702476D01*
X171457904Y-96750095D01*
X171172190Y-96750095D01*
X171076952Y-96702476D01*
X171029333Y-96654857D01*
X170981714Y-96559619D01*
X170981714Y-96416761D01*
X171029333Y-96321523D01*
X171076952Y-96273904D01*
X171172190Y-96226285D01*
X171457904Y-96226285D01*
X171553142Y-96273904D01*
X171600761Y-96321523D01*
X171648380Y-96416761D01*
X171648380Y-96559619D01*
X170981714Y-95940571D02*
X170981714Y-95559619D01*
X170648380Y-95797714D02*
X171505523Y-95797714D01*
X171600761Y-95750095D01*
X171648380Y-95654857D01*
X171648380Y-95559619D01*
X171648380Y-95083428D02*
X171600761Y-95178666D01*
X171553142Y-95226285D01*
X171457904Y-95273904D01*
X171172190Y-95273904D01*
X171076952Y-95226285D01*
X171029333Y-95178666D01*
X170981714Y-95083428D01*
X170981714Y-94940571D01*
X171029333Y-94845333D01*
X171076952Y-94797714D01*
X171172190Y-94750095D01*
X171457904Y-94750095D01*
X171553142Y-94797714D01*
X171600761Y-94845333D01*
X171648380Y-94940571D01*
X171648380Y-95083428D01*
X171648380Y-94321523D02*
X170981714Y-94321523D01*
X171172190Y-94321523D02*
X171076952Y-94273904D01*
X171029333Y-94226285D01*
X170981714Y-94131047D01*
X170981714Y-94035809D01*
%TO.C,Logic_board*%
X130221380Y-90863904D02*
X130221380Y-91340095D01*
X129221380Y-91340095D01*
X130221380Y-90387714D02*
X130173761Y-90482952D01*
X130126142Y-90530571D01*
X130030904Y-90578190D01*
X129745190Y-90578190D01*
X129649952Y-90530571D01*
X129602333Y-90482952D01*
X129554714Y-90387714D01*
X129554714Y-90244857D01*
X129602333Y-90149619D01*
X129649952Y-90102000D01*
X129745190Y-90054380D01*
X130030904Y-90054380D01*
X130126142Y-90102000D01*
X130173761Y-90149619D01*
X130221380Y-90244857D01*
X130221380Y-90387714D01*
X129554714Y-89197238D02*
X130364238Y-89197238D01*
X130459476Y-89244857D01*
X130507095Y-89292476D01*
X130554714Y-89387714D01*
X130554714Y-89530571D01*
X130507095Y-89625809D01*
X130173761Y-89197238D02*
X130221380Y-89292476D01*
X130221380Y-89482952D01*
X130173761Y-89578190D01*
X130126142Y-89625809D01*
X130030904Y-89673428D01*
X129745190Y-89673428D01*
X129649952Y-89625809D01*
X129602333Y-89578190D01*
X129554714Y-89482952D01*
X129554714Y-89292476D01*
X129602333Y-89197238D01*
X130221380Y-88721047D02*
X129554714Y-88721047D01*
X129221380Y-88721047D02*
X129269000Y-88768666D01*
X129316619Y-88721047D01*
X129269000Y-88673428D01*
X129221380Y-88721047D01*
X129316619Y-88721047D01*
X130173761Y-87816285D02*
X130221380Y-87911523D01*
X130221380Y-88102000D01*
X130173761Y-88197238D01*
X130126142Y-88244857D01*
X130030904Y-88292476D01*
X129745190Y-88292476D01*
X129649952Y-88244857D01*
X129602333Y-88197238D01*
X129554714Y-88102000D01*
X129554714Y-87911523D01*
X129602333Y-87816285D01*
X130316619Y-87625809D02*
X130316619Y-86863904D01*
X130221380Y-86625809D02*
X129221380Y-86625809D01*
X129602333Y-86625809D02*
X129554714Y-86530571D01*
X129554714Y-86340095D01*
X129602333Y-86244857D01*
X129649952Y-86197238D01*
X129745190Y-86149619D01*
X130030904Y-86149619D01*
X130126142Y-86197238D01*
X130173761Y-86244857D01*
X130221380Y-86340095D01*
X130221380Y-86530571D01*
X130173761Y-86625809D01*
X130221380Y-85578190D02*
X130173761Y-85673428D01*
X130126142Y-85721047D01*
X130030904Y-85768666D01*
X129745190Y-85768666D01*
X129649952Y-85721047D01*
X129602333Y-85673428D01*
X129554714Y-85578190D01*
X129554714Y-85435333D01*
X129602333Y-85340095D01*
X129649952Y-85292476D01*
X129745190Y-85244857D01*
X130030904Y-85244857D01*
X130126142Y-85292476D01*
X130173761Y-85340095D01*
X130221380Y-85435333D01*
X130221380Y-85578190D01*
X130221380Y-84387714D02*
X129697571Y-84387714D01*
X129602333Y-84435333D01*
X129554714Y-84530571D01*
X129554714Y-84721047D01*
X129602333Y-84816285D01*
X130173761Y-84387714D02*
X130221380Y-84482952D01*
X130221380Y-84721047D01*
X130173761Y-84816285D01*
X130078523Y-84863904D01*
X129983285Y-84863904D01*
X129888047Y-84816285D01*
X129840428Y-84721047D01*
X129840428Y-84482952D01*
X129792809Y-84387714D01*
X130221380Y-83911523D02*
X129554714Y-83911523D01*
X129745190Y-83911523D02*
X129649952Y-83863904D01*
X129602333Y-83816285D01*
X129554714Y-83721047D01*
X129554714Y-83625809D01*
X130221380Y-82863904D02*
X129221380Y-82863904D01*
X130173761Y-82863904D02*
X130221380Y-82959142D01*
X130221380Y-83149619D01*
X130173761Y-83244857D01*
X130126142Y-83292476D01*
X130030904Y-83340095D01*
X129745190Y-83340095D01*
X129649952Y-83292476D01*
X129602333Y-83244857D01*
X129554714Y-83149619D01*
X129554714Y-82959142D01*
X129602333Y-82863904D01*
D11*
%TO.C,Regulator*%
X169986000Y-72171000D02*
X169986000Y-69511000D01*
X162246000Y-69511000D02*
X163576000Y-69511000D01*
X164846000Y-72171000D02*
X164846000Y-69511000D01*
X164846000Y-72171000D02*
X169986000Y-72171000D01*
X164846000Y-69511000D02*
X169986000Y-69511000D01*
X162246000Y-70841000D02*
X162246000Y-69511000D01*
%TO.C,Motor_driver*%
X168970000Y-77410000D02*
X168970000Y-78740000D01*
X166310000Y-80010000D02*
X168970000Y-80010000D01*
X168970000Y-80010000D02*
X168970000Y-97850000D01*
X166310000Y-97850000D02*
X168970000Y-97850000D01*
X166310000Y-80010000D02*
X166310000Y-97850000D01*
X167640000Y-77410000D02*
X168970000Y-77410000D01*
X151070000Y-97850000D02*
X153730000Y-97850000D01*
X151070000Y-80010000D02*
X153730000Y-80010000D01*
X152400000Y-77410000D02*
X153730000Y-77410000D01*
X153730000Y-80010000D02*
X153730000Y-97850000D01*
X153730000Y-77410000D02*
X153730000Y-78740000D01*
X151070000Y-80010000D02*
X151070000Y-97850000D01*
%TO.C,Logic_board*%
X140910000Y-80010000D02*
X143570000Y-80010000D01*
X140910000Y-95310000D02*
X143570000Y-95310000D01*
X142240000Y-77410000D02*
X143570000Y-77410000D01*
X140910000Y-80010000D02*
X140910000Y-95310000D01*
X143570000Y-80010000D02*
X143570000Y-95310000D01*
X143570000Y-77410000D02*
X143570000Y-78740000D01*
%TO.C,Power*%
X175320000Y-87127000D02*
X175320000Y-88457000D01*
X172660000Y-85857000D02*
X172660000Y-83257000D01*
X175320000Y-85857000D02*
X172660000Y-85857000D01*
X175320000Y-88457000D02*
X173990000Y-88457000D01*
X175320000Y-83257000D02*
X172660000Y-83257000D01*
X175320000Y-85857000D02*
X175320000Y-83257000D01*
%TO.C,Sensor*%
X148082000Y-72196000D02*
X142942000Y-72196000D01*
X148082000Y-69536000D02*
X142942000Y-69536000D01*
X142942000Y-69536000D02*
X142942000Y-72196000D01*
X148082000Y-69536000D02*
X148082000Y-72196000D01*
X150682000Y-72196000D02*
X149352000Y-72196000D01*
X150682000Y-70866000D02*
X150682000Y-72196000D01*
%TO.C,Communication*%
X172526000Y-103632000D02*
X172526000Y-104962000D01*
X172526000Y-104962000D02*
X171196000Y-104962000D01*
X169926000Y-104962000D02*
X147006000Y-104962000D01*
X147006000Y-102302000D02*
X147006000Y-104962000D01*
X169926000Y-102302000D02*
X169926000Y-104962000D01*
X169926000Y-102302000D02*
X147006000Y-102302000D01*
%TO.C,Motor*%
X175320000Y-92655000D02*
X172660000Y-92655000D01*
X175320000Y-95255000D02*
X172660000Y-95255000D01*
X175320000Y-96525000D02*
X175320000Y-97855000D01*
X172660000Y-95255000D02*
X172660000Y-92655000D01*
X175320000Y-95255000D02*
X175320000Y-92655000D01*
X175320000Y-97855000D02*
X173990000Y-97855000D01*
%TO.C,Logic_board*%
X125670000Y-80010000D02*
X128330000Y-80010000D01*
X127000000Y-77410000D02*
X128330000Y-77410000D01*
X128330000Y-77410000D02*
X128330000Y-78740000D01*
X125670000Y-95310000D02*
X128330000Y-95310000D01*
X125670000Y-80010000D02*
X125670000Y-95310000D01*
X128330000Y-80010000D02*
X128330000Y-95310000D01*
%TD*%
M02*
