%TF.GenerationSoftware,KiCad,Pcbnew,(6.0.5)*%
%TF.CreationDate,2022-06-20T10:47:57-05:00*%
%TF.ProjectId,hauptic_pcb,68617570-7469-4635-9f70-63622e6b6963,rev?*%
%TF.SameCoordinates,Original*%
%TF.FileFunction,Copper,L1,Top*%
%TF.FilePolarity,Positive*%
%FSLAX46Y46*%
G04 Gerber Fmt 4.6, Leading zero omitted, Abs format (unit mm)*
G04 Created by KiCad (PCBNEW (6.0.5)) date 2022-06-20 10:47:57*
%MOMM*%
%LPD*%
G01*
G04 APERTURE LIST*
%TA.AperFunction,ComponentPad*%
%ADD10R,1.700000X1.700000*%
%TD*%
%TA.AperFunction,ComponentPad*%
%ADD11O,1.700000X1.700000*%
%TD*%
%TA.AperFunction,Conductor*%
%ADD12C,0.250000*%
%TD*%
G04 APERTURE END LIST*
D10*
%TO.P,Motor_driver,1,Pin_1*%
%TO.N,unconnected-(Motor_driver2-Pad1)*%
X167640000Y-78740000D03*
D11*
%TO.P,Motor_driver,2,Pin_2*%
%TO.N,unconnected-(Motor_driver2-Pad2)*%
X167640000Y-81280000D03*
%TO.P,Motor_driver,3,Pin_3*%
%TO.N,unconnected-(Motor_driver2-Pad3)*%
X167640000Y-83820000D03*
%TO.P,Motor_driver,4,Pin_4*%
%TO.N,Net-(Motor_driver2-Pad4)*%
X167640000Y-86360000D03*
%TO.P,Motor_driver,5,Pin_5*%
%TO.N,Net-(Motor_driver2-Pad5)*%
X167640000Y-88900000D03*
%TO.P,Motor_driver,6,Pin_6*%
%TO.N,Net-(Communication1-Pad1)*%
X167640000Y-91440000D03*
%TO.P,Motor_driver,7,Pin_7*%
%TO.N,Net-(Communication1-Pad4)*%
X167640000Y-93980000D03*
%TO.P,Motor_driver,8,Pin_8*%
%TO.N,Net-(Main_power1-Pad2)*%
X167640000Y-96520000D03*
%TD*%
%TO.P,Motor_driver,8,Pin_8*%
%TO.N,Net-(Logic_board2-Pad7)*%
X152400000Y-96520000D03*
%TO.P,Motor_driver,7,Pin_7*%
%TO.N,Net-(Logic_board1-Pad3)*%
X152400000Y-93980000D03*
%TO.P,Motor_driver,6,Pin_6*%
%TO.N,Net-(Logic_board1-Pad2)*%
X152400000Y-91440000D03*
%TO.P,Motor_driver,5,Pin_5*%
%TO.N,Net-(Logic_board1-Pad1)*%
X152400000Y-88900000D03*
%TO.P,Motor_driver,4,Pin_4*%
%TO.N,unconnected-(Motor_driver1-Pad4)*%
X152400000Y-86360000D03*
%TO.P,Motor_driver,3,Pin_3*%
%TO.N,unconnected-(Motor_driver1-Pad3)*%
X152400000Y-83820000D03*
%TO.P,Motor_driver,2,Pin_2*%
%TO.N,unconnected-(Motor_driver1-Pad2)*%
X152400000Y-81280000D03*
D10*
%TO.P,Motor_driver,1,Pin_1*%
%TO.N,Net-(Sensor1-Pad2)*%
X152400000Y-78740000D03*
%TD*%
%TO.P,Logic_board,1,Pin_1*%
%TO.N,unconnected-(Logic_board2-Pad1)*%
X142240000Y-78740000D03*
D11*
%TO.P,Logic_board,2,Pin_2*%
%TO.N,Net-(Communication1-Pad10)*%
X142240000Y-81280000D03*
%TO.P,Logic_board,3,Pin_3*%
%TO.N,Net-(Communication1-Pad7)*%
X142240000Y-83820000D03*
%TO.P,Logic_board,4,Pin_4*%
%TO.N,unconnected-(Logic_board2-Pad4)*%
X142240000Y-86360000D03*
%TO.P,Logic_board,5,Pin_5*%
%TO.N,Net-(Communication1-Pad6)*%
X142240000Y-88900000D03*
%TO.P,Logic_board,6,Pin_6*%
%TO.N,Net-(Sensor1-Pad3)*%
X142240000Y-91440000D03*
%TO.P,Logic_board,7,Pin_7*%
%TO.N,Net-(Logic_board2-Pad7)*%
X142240000Y-93980000D03*
%TD*%
%TO.P,Power,2,Pin_2*%
%TO.N,Net-(Main_power1-Pad2)*%
X173990000Y-84587000D03*
D10*
%TO.P,Power,1,Pin_1*%
%TO.N,Net-(Communication1-Pad1)*%
X173990000Y-87127000D03*
%TD*%
%TO.P,Sensor,1,Pin_1*%
%TO.N,Net-(Communication1-Pad4)*%
X149352000Y-70866000D03*
D11*
%TO.P,Sensor,2,Pin_2*%
%TO.N,Net-(Sensor1-Pad2)*%
X146812000Y-70866000D03*
%TO.P,Sensor,3,Pin_3*%
%TO.N,Net-(Sensor1-Pad3)*%
X144272000Y-70866000D03*
%TD*%
D10*
%TO.P,Communication,1,Pin_1*%
%TO.N,Net-(Communication1-Pad1)*%
X171196000Y-103632000D03*
D11*
%TO.P,Communication,2,Pin_2*%
X168656000Y-103632000D03*
%TO.P,Communication,3,Pin_3*%
X166116000Y-103632000D03*
%TO.P,Communication,4,Pin_4*%
%TO.N,Net-(Communication1-Pad4)*%
X163576000Y-103632000D03*
%TO.P,Communication,5,Pin_5*%
X161036000Y-103632000D03*
%TO.P,Communication,6,Pin_6*%
%TO.N,Net-(Communication1-Pad6)*%
X158496000Y-103632000D03*
%TO.P,Communication,7,Pin_7*%
%TO.N,Net-(Communication1-Pad7)*%
X155956000Y-103632000D03*
%TO.P,Communication,8,Pin_8*%
X153416000Y-103632000D03*
%TO.P,Communication,9,Pin_9*%
%TO.N,Net-(Communication1-Pad10)*%
X150876000Y-103632000D03*
%TO.P,Communication,10,Pin_10*%
X148336000Y-103632000D03*
%TD*%
D10*
%TO.P,Motor,1,Pin_1*%
%TO.N,Net-(Motor_driver2-Pad5)*%
X173990000Y-96525000D03*
D11*
%TO.P,Motor,2,Pin_2*%
%TO.N,Net-(Motor_driver2-Pad4)*%
X173990000Y-93985000D03*
%TD*%
D10*
%TO.P,Logic_board,1,Pin_1*%
%TO.N,Net-(Logic_board1-Pad1)*%
X127000000Y-78740000D03*
D11*
%TO.P,Logic_board,2,Pin_2*%
%TO.N,Net-(Logic_board1-Pad2)*%
X127000000Y-81280000D03*
%TO.P,Logic_board,3,Pin_3*%
%TO.N,Net-(Logic_board1-Pad3)*%
X127000000Y-83820000D03*
%TO.P,Logic_board,4,Pin_4*%
%TO.N,unconnected-(Logic_board1-Pad4)*%
X127000000Y-86360000D03*
%TO.P,Logic_board,5,Pin_5*%
%TO.N,unconnected-(Logic_board1-Pad5)*%
X127000000Y-88900000D03*
%TO.P,Logic_board,6,Pin_6*%
%TO.N,Net-(Sensor1-Pad2)*%
X127000000Y-91440000D03*
%TO.P,Logic_board,7,Pin_7*%
%TO.N,Net-(Communication1-Pad4)*%
X127000000Y-93980000D03*
%TD*%
%TO.P,Regulator,3,Pin_3*%
%TO.N,Net-(Main_power1-Pad2)*%
X168656000Y-70841000D03*
%TO.P,Regulator,2,Pin_2*%
%TO.N,Net-(Communication1-Pad1)*%
X166116000Y-70841000D03*
D10*
%TO.P,Regulator,1,Pin_1*%
%TO.N,Net-(Communication1-Pad4)*%
X163576000Y-70841000D03*
%TD*%
D12*
%TO.N,Net-(Communication1-Pad1)*%
X171196000Y-103632000D02*
X169672000Y-105156000D01*
X169672000Y-105156000D02*
X168656000Y-105156000D01*
X168656000Y-105156000D02*
X168656000Y-103632000D01*
X166116000Y-105156000D02*
X168656000Y-105156000D01*
X166116000Y-103632000D02*
X166116000Y-105156000D01*
%TO.N,Net-(Communication1-Pad4)*%
X163576000Y-105156000D02*
X163576000Y-103632000D01*
X161036000Y-105156000D02*
X163576000Y-105156000D01*
X161036000Y-103632000D02*
X161036000Y-105156000D01*
%TO.N,Net-(Sensor1-Pad2)*%
X152400000Y-76454000D02*
X146812000Y-70866000D01*
X152400000Y-78740000D02*
X152400000Y-76454000D01*
%TO.N,Net-(Communication1-Pad1)*%
X171196000Y-102362000D02*
X171196000Y-103632000D01*
X169317511Y-74042511D02*
X169317511Y-82454511D01*
X169317511Y-82454511D02*
X173990000Y-87127000D01*
X173990000Y-87127000D02*
X175768000Y-88905000D01*
X175768000Y-97790000D02*
X171196000Y-102362000D01*
X175768000Y-88905000D02*
X175768000Y-97790000D01*
X166116000Y-70841000D02*
X169317511Y-74042511D01*
%TO.N,Net-(Communication1-Pad4)*%
X163576000Y-70841000D02*
X163576000Y-90170000D01*
X163551000Y-70866000D02*
X163576000Y-70841000D01*
X161036000Y-103632000D02*
X161036000Y-100330000D01*
X154686000Y-98806000D02*
X131826000Y-98806000D01*
X163576000Y-90170000D02*
X167386000Y-93980000D01*
X161036000Y-100330000D02*
X167386000Y-93980000D01*
X154686000Y-93980000D02*
X154686000Y-98806000D01*
X149352000Y-70866000D02*
X163551000Y-70866000D01*
X167640000Y-93980000D02*
X167132000Y-93980000D01*
X154686000Y-93980000D02*
X167386000Y-93980000D01*
X131826000Y-98806000D02*
X127000000Y-93980000D01*
%TO.N,Net-(Sensor1-Pad2)*%
X125222000Y-89662000D02*
X125222000Y-75946000D01*
X149606000Y-75946000D02*
X152400000Y-78740000D01*
X127000000Y-91440000D02*
X125222000Y-89662000D01*
X125222000Y-75946000D02*
X149606000Y-75946000D01*
%TO.N,Net-(Logic_board1-Pad1)*%
X128174511Y-79914511D02*
X143414511Y-79914511D01*
X143414511Y-79914511D02*
X152400000Y-88900000D01*
X127000000Y-78740000D02*
X128174511Y-79914511D01*
%TO.N,Net-(Logic_board1-Pad2)*%
X152400000Y-91440000D02*
X143414511Y-82454511D01*
X143414511Y-82454511D02*
X128174511Y-82454511D01*
X128174511Y-82454511D02*
X127000000Y-81280000D01*
%TO.N,Net-(Logic_board1-Pad3)*%
X152400000Y-93980000D02*
X143414511Y-84994511D01*
X143414511Y-84994511D02*
X128174511Y-84994511D01*
X128174511Y-84994511D02*
X127000000Y-83820000D01*
%TO.N,Net-(Logic_board2-Pad7)*%
X152400000Y-96520000D02*
X144780000Y-96520000D01*
X144780000Y-96520000D02*
X142240000Y-93980000D01*
%TO.N,Net-(Motor_driver2-Pad4)*%
X173990000Y-93985000D02*
X173990000Y-92710000D01*
X173990000Y-92710000D02*
X167640000Y-86360000D01*
%TO.N,Net-(Motor_driver2-Pad5)*%
X172815489Y-95350489D02*
X172815489Y-94075489D01*
X173990000Y-96525000D02*
X172815489Y-95350489D01*
X172815489Y-94075489D02*
X167640000Y-88900000D01*
%TO.N,Net-(Main_power1-Pad2)*%
X173990000Y-76175000D02*
X168656000Y-70841000D01*
X173990000Y-84587000D02*
X173990000Y-76175000D01*
%TD*%
%TA.AperFunction,Conductor*%
%TO.N,Net-(Sensor1-Pad2)*%
G36*
X177233621Y-66568502D02*
G01*
X177280114Y-66622158D01*
X177291500Y-66674500D01*
X177291500Y-106045500D01*
X177271498Y-106113621D01*
X177217842Y-106160114D01*
X177165500Y-106171500D01*
X124332500Y-106171500D01*
X124264379Y-106151498D01*
X124217886Y-106097842D01*
X124206500Y-106045500D01*
X124206500Y-102494703D01*
X126668743Y-102494703D01*
X126706268Y-102779734D01*
X126782129Y-103057036D01*
X126894923Y-103321476D01*
X127042561Y-103568161D01*
X127222313Y-103792528D01*
X127430851Y-103990423D01*
X127664317Y-104158186D01*
X127668112Y-104160195D01*
X127668113Y-104160196D01*
X127689869Y-104171715D01*
X127918392Y-104292712D01*
X128188373Y-104391511D01*
X128469264Y-104452755D01*
X128497841Y-104455004D01*
X128692282Y-104470307D01*
X128692291Y-104470307D01*
X128694739Y-104470500D01*
X128850271Y-104470500D01*
X128852407Y-104470354D01*
X128852418Y-104470354D01*
X129060548Y-104456165D01*
X129060554Y-104456164D01*
X129064825Y-104455873D01*
X129069020Y-104455004D01*
X129069022Y-104455004D01*
X129205584Y-104426723D01*
X129346342Y-104397574D01*
X129617343Y-104301607D01*
X129872812Y-104169750D01*
X129876313Y-104167289D01*
X129876317Y-104167287D01*
X129990417Y-104087096D01*
X130108023Y-104004441D01*
X130299223Y-103826767D01*
X130315479Y-103811661D01*
X130315481Y-103811658D01*
X130318622Y-103808740D01*
X130500713Y-103586268D01*
X130650927Y-103341142D01*
X130766483Y-103077898D01*
X130845244Y-102801406D01*
X130885751Y-102516784D01*
X130885845Y-102498951D01*
X130887235Y-102233583D01*
X130887235Y-102233576D01*
X130887257Y-102229297D01*
X130885765Y-102217959D01*
X130857653Y-102004434D01*
X130849732Y-101944266D01*
X130773871Y-101666964D01*
X130661077Y-101402524D01*
X130513439Y-101155839D01*
X130333687Y-100931472D01*
X130125149Y-100733577D01*
X129891683Y-100565814D01*
X129872202Y-100555499D01*
X129846654Y-100541972D01*
X129637608Y-100431288D01*
X129367627Y-100332489D01*
X129086736Y-100271245D01*
X129055685Y-100268801D01*
X128863718Y-100253693D01*
X128863709Y-100253693D01*
X128861261Y-100253500D01*
X128705729Y-100253500D01*
X128703593Y-100253646D01*
X128703582Y-100253646D01*
X128495452Y-100267835D01*
X128495446Y-100267836D01*
X128491175Y-100268127D01*
X128486980Y-100268996D01*
X128486978Y-100268996D01*
X128433156Y-100280142D01*
X128209658Y-100326426D01*
X127938657Y-100422393D01*
X127683188Y-100554250D01*
X127679687Y-100556711D01*
X127679683Y-100556713D01*
X127628900Y-100592404D01*
X127447977Y-100719559D01*
X127237378Y-100915260D01*
X127055287Y-101137732D01*
X126905073Y-101382858D01*
X126789517Y-101646102D01*
X126710756Y-101922594D01*
X126670249Y-102207216D01*
X126670227Y-102211505D01*
X126670226Y-102211512D01*
X126668765Y-102490417D01*
X126668743Y-102494703D01*
X124206500Y-102494703D01*
X124206500Y-93946695D01*
X125637251Y-93946695D01*
X125637548Y-93951848D01*
X125637548Y-93951851D01*
X125643011Y-94046590D01*
X125650110Y-94169715D01*
X125651247Y-94174761D01*
X125651248Y-94174767D01*
X125671119Y-94262939D01*
X125699222Y-94387639D01*
X125783266Y-94594616D01*
X125899987Y-94785088D01*
X126046250Y-94953938D01*
X126218126Y-95096632D01*
X126411000Y-95209338D01*
X126619692Y-95289030D01*
X126624760Y-95290061D01*
X126624763Y-95290062D01*
X126729466Y-95311364D01*
X126838597Y-95333567D01*
X126843772Y-95333757D01*
X126843774Y-95333757D01*
X127056673Y-95341564D01*
X127056677Y-95341564D01*
X127061837Y-95341753D01*
X127066957Y-95341097D01*
X127066959Y-95341097D01*
X127278288Y-95314025D01*
X127278289Y-95314025D01*
X127283416Y-95313368D01*
X127288367Y-95311883D01*
X127288370Y-95311882D01*
X127329829Y-95299444D01*
X127400825Y-95299028D01*
X127455131Y-95331035D01*
X131322343Y-99198247D01*
X131329887Y-99206537D01*
X131334000Y-99213018D01*
X131339777Y-99218443D01*
X131383667Y-99259658D01*
X131386509Y-99262413D01*
X131406231Y-99282135D01*
X131409355Y-99284558D01*
X131409359Y-99284562D01*
X131409424Y-99284612D01*
X131418445Y-99292317D01*
X131450679Y-99322586D01*
X131457627Y-99326405D01*
X131457629Y-99326407D01*
X131468432Y-99332346D01*
X131484959Y-99343202D01*
X131494698Y-99350757D01*
X131494700Y-99350758D01*
X131500960Y-99355614D01*
X131541540Y-99373174D01*
X131552188Y-99378391D01*
X131566415Y-99386212D01*
X131590940Y-99399695D01*
X131598616Y-99401666D01*
X131598619Y-99401667D01*
X131610562Y-99404733D01*
X131629267Y-99411137D01*
X131647855Y-99419181D01*
X131655678Y-99420420D01*
X131655688Y-99420423D01*
X131691524Y-99426099D01*
X131703144Y-99428505D01*
X131738289Y-99437528D01*
X131745970Y-99439500D01*
X131766224Y-99439500D01*
X131785934Y-99441051D01*
X131805943Y-99444220D01*
X131813835Y-99443474D01*
X131825263Y-99442394D01*
X131849962Y-99440059D01*
X131861819Y-99439500D01*
X154614207Y-99439500D01*
X154637816Y-99441732D01*
X154638119Y-99441790D01*
X154638123Y-99441790D01*
X154645906Y-99443275D01*
X154701951Y-99439749D01*
X154709862Y-99439500D01*
X154725856Y-99439500D01*
X154741730Y-99437494D01*
X154749590Y-99436752D01*
X154777049Y-99435024D01*
X154797737Y-99433723D01*
X154797738Y-99433723D01*
X154805650Y-99433225D01*
X154813191Y-99430775D01*
X154813487Y-99430679D01*
X154836631Y-99425506D01*
X154836935Y-99425468D01*
X154836940Y-99425467D01*
X154844797Y-99424474D01*
X154852162Y-99421558D01*
X154852166Y-99421557D01*
X154897011Y-99403801D01*
X154904430Y-99401129D01*
X154957875Y-99383764D01*
X154964572Y-99379514D01*
X154964831Y-99379350D01*
X154985958Y-99368585D01*
X154986246Y-99368471D01*
X154986251Y-99368468D01*
X154993617Y-99365552D01*
X155000025Y-99360896D01*
X155000031Y-99360893D01*
X155039052Y-99332542D01*
X155045589Y-99328099D01*
X155093018Y-99298000D01*
X155098659Y-99291993D01*
X155116446Y-99276312D01*
X155116691Y-99276134D01*
X155116693Y-99276132D01*
X155123107Y-99271472D01*
X155128162Y-99265362D01*
X155158903Y-99228204D01*
X155164134Y-99222270D01*
X155197158Y-99187102D01*
X155197160Y-99187099D01*
X155202586Y-99181321D01*
X155206558Y-99174097D01*
X155219881Y-99154494D01*
X155220080Y-99154254D01*
X155220084Y-99154247D01*
X155225133Y-99148144D01*
X155249047Y-99097324D01*
X155252629Y-99090292D01*
X155279695Y-99041060D01*
X155281665Y-99033385D01*
X155281668Y-99033379D01*
X155281744Y-99033081D01*
X155289776Y-99010772D01*
X155289906Y-99010497D01*
X155289909Y-99010489D01*
X155293283Y-99003318D01*
X155303806Y-98948151D01*
X155305532Y-98940429D01*
X155317529Y-98893707D01*
X155317529Y-98893706D01*
X155319500Y-98886030D01*
X155319500Y-98877793D01*
X155321732Y-98854184D01*
X155321790Y-98853881D01*
X155321790Y-98853877D01*
X155323275Y-98846094D01*
X155319749Y-98790049D01*
X155319500Y-98782138D01*
X155319500Y-94739500D01*
X155339502Y-94671379D01*
X155393158Y-94624886D01*
X155445500Y-94613500D01*
X165552406Y-94613500D01*
X165620527Y-94633502D01*
X165667020Y-94687158D01*
X165677124Y-94757432D01*
X165647630Y-94822012D01*
X165641502Y-94828594D01*
X163141105Y-97328990D01*
X160643747Y-99826348D01*
X160635461Y-99833888D01*
X160628982Y-99838000D01*
X160623557Y-99843777D01*
X160582357Y-99887651D01*
X160579602Y-99890493D01*
X160559865Y-99910230D01*
X160557385Y-99913427D01*
X160549682Y-99922447D01*
X160519414Y-99954679D01*
X160515595Y-99961625D01*
X160515593Y-99961628D01*
X160509652Y-99972434D01*
X160498801Y-99988953D01*
X160486386Y-100004959D01*
X160483241Y-100012228D01*
X160483238Y-100012232D01*
X160468826Y-100045537D01*
X160463609Y-100056187D01*
X160442305Y-100094940D01*
X160440334Y-100102615D01*
X160440334Y-100102616D01*
X160437267Y-100114562D01*
X160430863Y-100133266D01*
X160422819Y-100151855D01*
X160421580Y-100159678D01*
X160421577Y-100159688D01*
X160415901Y-100195524D01*
X160413495Y-100207144D01*
X160402500Y-100249970D01*
X160402500Y-100270224D01*
X160400949Y-100289934D01*
X160397780Y-100309943D01*
X160398526Y-100317835D01*
X160401941Y-100353961D01*
X160402500Y-100365819D01*
X160402500Y-102353692D01*
X160382498Y-102421813D01*
X160334683Y-102465453D01*
X160309607Y-102478507D01*
X160305474Y-102481610D01*
X160305471Y-102481612D01*
X160135100Y-102609530D01*
X160130965Y-102612635D01*
X160091525Y-102653907D01*
X160037280Y-102710671D01*
X159976629Y-102774138D01*
X159869201Y-102931621D01*
X159814293Y-102976621D01*
X159743768Y-102984792D01*
X159680021Y-102953538D01*
X159659324Y-102929054D01*
X159578822Y-102804617D01*
X159578820Y-102804614D01*
X159576014Y-102800277D01*
X159425670Y-102635051D01*
X159421619Y-102631852D01*
X159421615Y-102631848D01*
X159254414Y-102499800D01*
X159254410Y-102499798D01*
X159250359Y-102496598D01*
X159245831Y-102494098D01*
X159129988Y-102430150D01*
X159054789Y-102388638D01*
X159049920Y-102386914D01*
X159049916Y-102386912D01*
X158849087Y-102315795D01*
X158849083Y-102315794D01*
X158844212Y-102314069D01*
X158839119Y-102313162D01*
X158839116Y-102313161D01*
X158629373Y-102275800D01*
X158629367Y-102275799D01*
X158624284Y-102274894D01*
X158550452Y-102273992D01*
X158406081Y-102272228D01*
X158406079Y-102272228D01*
X158400911Y-102272165D01*
X158180091Y-102305955D01*
X157967756Y-102375357D01*
X157937443Y-102391137D01*
X157793975Y-102465822D01*
X157769607Y-102478507D01*
X157765474Y-102481610D01*
X157765471Y-102481612D01*
X157595100Y-102609530D01*
X157590965Y-102612635D01*
X157551525Y-102653907D01*
X157497280Y-102710671D01*
X157436629Y-102774138D01*
X157329201Y-102931621D01*
X157274293Y-102976621D01*
X157203768Y-102984792D01*
X157140021Y-102953538D01*
X157119324Y-102929054D01*
X157038822Y-102804617D01*
X157038820Y-102804614D01*
X157036014Y-102800277D01*
X156885670Y-102635051D01*
X156881619Y-102631852D01*
X156881615Y-102631848D01*
X156714414Y-102499800D01*
X156714410Y-102499798D01*
X156710359Y-102496598D01*
X156705831Y-102494098D01*
X156589988Y-102430150D01*
X156514789Y-102388638D01*
X156509920Y-102386914D01*
X156509916Y-102386912D01*
X156309087Y-102315795D01*
X156309083Y-102315794D01*
X156304212Y-102314069D01*
X156299119Y-102313162D01*
X156299116Y-102313161D01*
X156089373Y-102275800D01*
X156089367Y-102275799D01*
X156084284Y-102274894D01*
X156010452Y-102273992D01*
X155866081Y-102272228D01*
X155866079Y-102272228D01*
X155860911Y-102272165D01*
X155640091Y-102305955D01*
X155427756Y-102375357D01*
X155397443Y-102391137D01*
X155253975Y-102465822D01*
X155229607Y-102478507D01*
X155225474Y-102481610D01*
X155225471Y-102481612D01*
X155055100Y-102609530D01*
X155050965Y-102612635D01*
X155011525Y-102653907D01*
X154957280Y-102710671D01*
X154896629Y-102774138D01*
X154789201Y-102931621D01*
X154734293Y-102976621D01*
X154663768Y-102984792D01*
X154600021Y-102953538D01*
X154579324Y-102929054D01*
X154498822Y-102804617D01*
X154498820Y-102804614D01*
X154496014Y-102800277D01*
X154345670Y-102635051D01*
X154341619Y-102631852D01*
X154341615Y-102631848D01*
X154174414Y-102499800D01*
X154174410Y-102499798D01*
X154170359Y-102496598D01*
X154165831Y-102494098D01*
X154049988Y-102430150D01*
X153974789Y-102388638D01*
X153969920Y-102386914D01*
X153969916Y-102386912D01*
X153769087Y-102315795D01*
X153769083Y-102315794D01*
X153764212Y-102314069D01*
X153759119Y-102313162D01*
X153759116Y-102313161D01*
X153549373Y-102275800D01*
X153549367Y-102275799D01*
X153544284Y-102274894D01*
X153470452Y-102273992D01*
X153326081Y-102272228D01*
X153326079Y-102272228D01*
X153320911Y-102272165D01*
X153100091Y-102305955D01*
X152887756Y-102375357D01*
X152857443Y-102391137D01*
X152713975Y-102465822D01*
X152689607Y-102478507D01*
X152685474Y-102481610D01*
X152685471Y-102481612D01*
X152515100Y-102609530D01*
X152510965Y-102612635D01*
X152471525Y-102653907D01*
X152417280Y-102710671D01*
X152356629Y-102774138D01*
X152249201Y-102931621D01*
X152194293Y-102976621D01*
X152123768Y-102984792D01*
X152060021Y-102953538D01*
X152039324Y-102929054D01*
X151958822Y-102804617D01*
X151958820Y-102804614D01*
X151956014Y-102800277D01*
X151805670Y-102635051D01*
X151801619Y-102631852D01*
X151801615Y-102631848D01*
X151634414Y-102499800D01*
X151634410Y-102499798D01*
X151630359Y-102496598D01*
X151625831Y-102494098D01*
X151509988Y-102430150D01*
X151434789Y-102388638D01*
X151429920Y-102386914D01*
X151429916Y-102386912D01*
X151229087Y-102315795D01*
X151229083Y-102315794D01*
X151224212Y-102314069D01*
X151219119Y-102313162D01*
X151219116Y-102313161D01*
X151009373Y-102275800D01*
X151009367Y-102275799D01*
X151004284Y-102274894D01*
X150930452Y-102273992D01*
X150786081Y-102272228D01*
X150786079Y-102272228D01*
X150780911Y-102272165D01*
X150560091Y-102305955D01*
X150347756Y-102375357D01*
X150317443Y-102391137D01*
X150173975Y-102465822D01*
X150149607Y-102478507D01*
X150145474Y-102481610D01*
X150145471Y-102481612D01*
X149975100Y-102609530D01*
X149970965Y-102612635D01*
X149931525Y-102653907D01*
X149877280Y-102710671D01*
X149816629Y-102774138D01*
X149709201Y-102931621D01*
X149654293Y-102976621D01*
X149583768Y-102984792D01*
X149520021Y-102953538D01*
X149499324Y-102929054D01*
X149418822Y-102804617D01*
X149418820Y-102804614D01*
X149416014Y-102800277D01*
X149265670Y-102635051D01*
X149261619Y-102631852D01*
X149261615Y-102631848D01*
X149094414Y-102499800D01*
X149094410Y-102499798D01*
X149090359Y-102496598D01*
X149085831Y-102494098D01*
X148969988Y-102430150D01*
X148894789Y-102388638D01*
X148889920Y-102386914D01*
X148889916Y-102386912D01*
X148689087Y-102315795D01*
X148689083Y-102315794D01*
X148684212Y-102314069D01*
X148679119Y-102313162D01*
X148679116Y-102313161D01*
X148469373Y-102275800D01*
X148469367Y-102275799D01*
X148464284Y-102274894D01*
X148390452Y-102273992D01*
X148246081Y-102272228D01*
X148246079Y-102272228D01*
X148240911Y-102272165D01*
X148020091Y-102305955D01*
X147807756Y-102375357D01*
X147777443Y-102391137D01*
X147633975Y-102465822D01*
X147609607Y-102478507D01*
X147605474Y-102481610D01*
X147605471Y-102481612D01*
X147435100Y-102609530D01*
X147430965Y-102612635D01*
X147391525Y-102653907D01*
X147337280Y-102710671D01*
X147276629Y-102774138D01*
X147150743Y-102958680D01*
X147056688Y-103161305D01*
X146996989Y-103376570D01*
X146973251Y-103598695D01*
X146973548Y-103603848D01*
X146973548Y-103603851D01*
X146985362Y-103808740D01*
X146986110Y-103821715D01*
X146987247Y-103826761D01*
X146987248Y-103826767D01*
X147011304Y-103933508D01*
X147035222Y-104039639D01*
X147119266Y-104246616D01*
X147170942Y-104330944D01*
X147233291Y-104432688D01*
X147235987Y-104437088D01*
X147382250Y-104605938D01*
X147554126Y-104748632D01*
X147747000Y-104861338D01*
X147955692Y-104941030D01*
X147960760Y-104942061D01*
X147960763Y-104942062D01*
X148068017Y-104963883D01*
X148174597Y-104985567D01*
X148179772Y-104985757D01*
X148179774Y-104985757D01*
X148392673Y-104993564D01*
X148392677Y-104993564D01*
X148397837Y-104993753D01*
X148402957Y-104993097D01*
X148402959Y-104993097D01*
X148614288Y-104966025D01*
X148614289Y-104966025D01*
X148619416Y-104965368D01*
X148624366Y-104963883D01*
X148828429Y-104902661D01*
X148828434Y-104902659D01*
X148833384Y-104901174D01*
X149033994Y-104802896D01*
X149215860Y-104673173D01*
X149374096Y-104515489D01*
X149406563Y-104470307D01*
X149504453Y-104334077D01*
X149505776Y-104335028D01*
X149552645Y-104291857D01*
X149622580Y-104279625D01*
X149688026Y-104307144D01*
X149715875Y-104338994D01*
X149775987Y-104437088D01*
X149922250Y-104605938D01*
X150094126Y-104748632D01*
X150287000Y-104861338D01*
X150495692Y-104941030D01*
X150500760Y-104942061D01*
X150500763Y-104942062D01*
X150608017Y-104963883D01*
X150714597Y-104985567D01*
X150719772Y-104985757D01*
X150719774Y-104985757D01*
X150932673Y-104993564D01*
X150932677Y-104993564D01*
X150937837Y-104993753D01*
X150942957Y-104993097D01*
X150942959Y-104993097D01*
X151154288Y-104966025D01*
X151154289Y-104966025D01*
X151159416Y-104965368D01*
X151164366Y-104963883D01*
X151368429Y-104902661D01*
X151368434Y-104902659D01*
X151373384Y-104901174D01*
X151573994Y-104802896D01*
X151755860Y-104673173D01*
X151914096Y-104515489D01*
X151946563Y-104470307D01*
X152044453Y-104334077D01*
X152045776Y-104335028D01*
X152092645Y-104291857D01*
X152162580Y-104279625D01*
X152228026Y-104307144D01*
X152255875Y-104338994D01*
X152315987Y-104437088D01*
X152462250Y-104605938D01*
X152634126Y-104748632D01*
X152827000Y-104861338D01*
X153035692Y-104941030D01*
X153040760Y-104942061D01*
X153040763Y-104942062D01*
X153148017Y-104963883D01*
X153254597Y-104985567D01*
X153259772Y-104985757D01*
X153259774Y-104985757D01*
X153472673Y-104993564D01*
X153472677Y-104993564D01*
X153477837Y-104993753D01*
X153482957Y-104993097D01*
X153482959Y-104993097D01*
X153694288Y-104966025D01*
X153694289Y-104966025D01*
X153699416Y-104965368D01*
X153704366Y-104963883D01*
X153908429Y-104902661D01*
X153908434Y-104902659D01*
X153913384Y-104901174D01*
X154113994Y-104802896D01*
X154295860Y-104673173D01*
X154454096Y-104515489D01*
X154486563Y-104470307D01*
X154584453Y-104334077D01*
X154585776Y-104335028D01*
X154632645Y-104291857D01*
X154702580Y-104279625D01*
X154768026Y-104307144D01*
X154795875Y-104338994D01*
X154855987Y-104437088D01*
X155002250Y-104605938D01*
X155174126Y-104748632D01*
X155367000Y-104861338D01*
X155575692Y-104941030D01*
X155580760Y-104942061D01*
X155580763Y-104942062D01*
X155688017Y-104963883D01*
X155794597Y-104985567D01*
X155799772Y-104985757D01*
X155799774Y-104985757D01*
X156012673Y-104993564D01*
X156012677Y-104993564D01*
X156017837Y-104993753D01*
X156022957Y-104993097D01*
X156022959Y-104993097D01*
X156234288Y-104966025D01*
X156234289Y-104966025D01*
X156239416Y-104965368D01*
X156244366Y-104963883D01*
X156448429Y-104902661D01*
X156448434Y-104902659D01*
X156453384Y-104901174D01*
X156653994Y-104802896D01*
X156835860Y-104673173D01*
X156994096Y-104515489D01*
X157026563Y-104470307D01*
X157124453Y-104334077D01*
X157125776Y-104335028D01*
X157172645Y-104291857D01*
X157242580Y-104279625D01*
X157308026Y-104307144D01*
X157335875Y-104338994D01*
X157395987Y-104437088D01*
X157542250Y-104605938D01*
X157714126Y-104748632D01*
X157907000Y-104861338D01*
X158115692Y-104941030D01*
X158120760Y-104942061D01*
X158120763Y-104942062D01*
X158228017Y-104963883D01*
X158334597Y-104985567D01*
X158339772Y-104985757D01*
X158339774Y-104985757D01*
X158552673Y-104993564D01*
X158552677Y-104993564D01*
X158557837Y-104993753D01*
X158562957Y-104993097D01*
X158562959Y-104993097D01*
X158774288Y-104966025D01*
X158774289Y-104966025D01*
X158779416Y-104965368D01*
X158784366Y-104963883D01*
X158988429Y-104902661D01*
X158988434Y-104902659D01*
X158993384Y-104901174D01*
X159193994Y-104802896D01*
X159375860Y-104673173D01*
X159534096Y-104515489D01*
X159566563Y-104470307D01*
X159664453Y-104334077D01*
X159665776Y-104335028D01*
X159712645Y-104291857D01*
X159782580Y-104279625D01*
X159848026Y-104307144D01*
X159875875Y-104338994D01*
X159935987Y-104437088D01*
X160082250Y-104605938D01*
X160254126Y-104748632D01*
X160258593Y-104751242D01*
X160340070Y-104798853D01*
X160388794Y-104850491D01*
X160402500Y-104907641D01*
X160402500Y-105084207D01*
X160400268Y-105107816D01*
X160398725Y-105115906D01*
X160399223Y-105123817D01*
X160402251Y-105171951D01*
X160402500Y-105179862D01*
X160402500Y-105195856D01*
X160404506Y-105211730D01*
X160405248Y-105219590D01*
X160408775Y-105275650D01*
X160411225Y-105283191D01*
X160411321Y-105283487D01*
X160416494Y-105306631D01*
X160416532Y-105306935D01*
X160416533Y-105306940D01*
X160417526Y-105314797D01*
X160420442Y-105322162D01*
X160420443Y-105322166D01*
X160438199Y-105367011D01*
X160440871Y-105374430D01*
X160458236Y-105427875D01*
X160462486Y-105434571D01*
X160462486Y-105434572D01*
X160462650Y-105434831D01*
X160473415Y-105455958D01*
X160473529Y-105456246D01*
X160473532Y-105456251D01*
X160476448Y-105463617D01*
X160481104Y-105470025D01*
X160481107Y-105470031D01*
X160509458Y-105509052D01*
X160513901Y-105515589D01*
X160544000Y-105563018D01*
X160549778Y-105568444D01*
X160549779Y-105568445D01*
X160550007Y-105568659D01*
X160565688Y-105586446D01*
X160570528Y-105593107D01*
X160576637Y-105598161D01*
X160576638Y-105598162D01*
X160613796Y-105628903D01*
X160619730Y-105634134D01*
X160654898Y-105667158D01*
X160654901Y-105667160D01*
X160660679Y-105672586D01*
X160667903Y-105676558D01*
X160687506Y-105689881D01*
X160687746Y-105690080D01*
X160687753Y-105690084D01*
X160693856Y-105695133D01*
X160727342Y-105710890D01*
X160744676Y-105719047D01*
X160751708Y-105722629D01*
X160800940Y-105749695D01*
X160808615Y-105751665D01*
X160808621Y-105751668D01*
X160808919Y-105751744D01*
X160831228Y-105759776D01*
X160831503Y-105759906D01*
X160831511Y-105759909D01*
X160838682Y-105763283D01*
X160893849Y-105773806D01*
X160901558Y-105775529D01*
X160931531Y-105783225D01*
X160948293Y-105787529D01*
X160948294Y-105787529D01*
X160955970Y-105789500D01*
X160964207Y-105789500D01*
X160987816Y-105791732D01*
X160988119Y-105791790D01*
X160988123Y-105791790D01*
X160995906Y-105793275D01*
X161051951Y-105789749D01*
X161059862Y-105789500D01*
X163504207Y-105789500D01*
X163527816Y-105791732D01*
X163528119Y-105791790D01*
X163528123Y-105791790D01*
X163535906Y-105793275D01*
X163591951Y-105789749D01*
X163599862Y-105789500D01*
X163615856Y-105789500D01*
X163631730Y-105787494D01*
X163639590Y-105786752D01*
X163667049Y-105785024D01*
X163687737Y-105783723D01*
X163687738Y-105783723D01*
X163695650Y-105783225D01*
X163703191Y-105780775D01*
X163703487Y-105780679D01*
X163726631Y-105775506D01*
X163726935Y-105775468D01*
X163726940Y-105775467D01*
X163734797Y-105774474D01*
X163742162Y-105771558D01*
X163742166Y-105771557D01*
X163787011Y-105753801D01*
X163794430Y-105751129D01*
X163847875Y-105733764D01*
X163854572Y-105729514D01*
X163854831Y-105729350D01*
X163875958Y-105718585D01*
X163876246Y-105718471D01*
X163876251Y-105718468D01*
X163883617Y-105715552D01*
X163890025Y-105710896D01*
X163890031Y-105710893D01*
X163929052Y-105682542D01*
X163935589Y-105678099D01*
X163983018Y-105648000D01*
X163988659Y-105641993D01*
X164006446Y-105626312D01*
X164006691Y-105626134D01*
X164006693Y-105626132D01*
X164013107Y-105621472D01*
X164018162Y-105615362D01*
X164048903Y-105578204D01*
X164054134Y-105572270D01*
X164087158Y-105537102D01*
X164087160Y-105537099D01*
X164092586Y-105531321D01*
X164096558Y-105524097D01*
X164109881Y-105504494D01*
X164110080Y-105504254D01*
X164110084Y-105504247D01*
X164115133Y-105498144D01*
X164139047Y-105447324D01*
X164142629Y-105440292D01*
X164169695Y-105391060D01*
X164171665Y-105383385D01*
X164171668Y-105383379D01*
X164171744Y-105383081D01*
X164179776Y-105360772D01*
X164179906Y-105360497D01*
X164179909Y-105360489D01*
X164183283Y-105353318D01*
X164193806Y-105298151D01*
X164195532Y-105290429D01*
X164207529Y-105243707D01*
X164207529Y-105243706D01*
X164209500Y-105236030D01*
X164209500Y-105227793D01*
X164211732Y-105204184D01*
X164211790Y-105203881D01*
X164211790Y-105203877D01*
X164213275Y-105196094D01*
X164209749Y-105140049D01*
X164209500Y-105132138D01*
X164209500Y-104912427D01*
X164229502Y-104844306D01*
X164270618Y-104804550D01*
X164273994Y-104802896D01*
X164455860Y-104673173D01*
X164614096Y-104515489D01*
X164646563Y-104470307D01*
X164744453Y-104334077D01*
X164745776Y-104335028D01*
X164792645Y-104291857D01*
X164862580Y-104279625D01*
X164928026Y-104307144D01*
X164955875Y-104338994D01*
X165015987Y-104437088D01*
X165162250Y-104605938D01*
X165334126Y-104748632D01*
X165338593Y-104751242D01*
X165420070Y-104798853D01*
X165468794Y-104850491D01*
X165482500Y-104907641D01*
X165482500Y-105084207D01*
X165480268Y-105107816D01*
X165478725Y-105115906D01*
X165479223Y-105123817D01*
X165482251Y-105171951D01*
X165482500Y-105179862D01*
X165482500Y-105195856D01*
X165484506Y-105211730D01*
X165485248Y-105219590D01*
X165488775Y-105275650D01*
X165491225Y-105283191D01*
X165491321Y-105283487D01*
X165496494Y-105306631D01*
X165496532Y-105306935D01*
X165496533Y-105306940D01*
X165497526Y-105314797D01*
X165500442Y-105322162D01*
X165500443Y-105322166D01*
X165518199Y-105367011D01*
X165520871Y-105374430D01*
X165538236Y-105427875D01*
X165542486Y-105434571D01*
X165542486Y-105434572D01*
X165542650Y-105434831D01*
X165553415Y-105455958D01*
X165553529Y-105456246D01*
X165553532Y-105456251D01*
X165556448Y-105463617D01*
X165561104Y-105470025D01*
X165561107Y-105470031D01*
X165589458Y-105509052D01*
X165593901Y-105515589D01*
X165624000Y-105563018D01*
X165629778Y-105568444D01*
X165629779Y-105568445D01*
X165630007Y-105568659D01*
X165645688Y-105586446D01*
X165650528Y-105593107D01*
X165656637Y-105598161D01*
X165656638Y-105598162D01*
X165693796Y-105628903D01*
X165699730Y-105634134D01*
X165734898Y-105667158D01*
X165734901Y-105667160D01*
X165740679Y-105672586D01*
X165747903Y-105676558D01*
X165767506Y-105689881D01*
X165767746Y-105690080D01*
X165767753Y-105690084D01*
X165773856Y-105695133D01*
X165807342Y-105710890D01*
X165824676Y-105719047D01*
X165831708Y-105722629D01*
X165880940Y-105749695D01*
X165888615Y-105751665D01*
X165888621Y-105751668D01*
X165888919Y-105751744D01*
X165911228Y-105759776D01*
X165911503Y-105759906D01*
X165911511Y-105759909D01*
X165918682Y-105763283D01*
X165973849Y-105773806D01*
X165981558Y-105775529D01*
X166011531Y-105783225D01*
X166028293Y-105787529D01*
X166028294Y-105787529D01*
X166035970Y-105789500D01*
X166044207Y-105789500D01*
X166067816Y-105791732D01*
X166068119Y-105791790D01*
X166068123Y-105791790D01*
X166075906Y-105793275D01*
X166131951Y-105789749D01*
X166139862Y-105789500D01*
X168584207Y-105789500D01*
X168607816Y-105791732D01*
X168608119Y-105791790D01*
X168608123Y-105791790D01*
X168615906Y-105793275D01*
X168671951Y-105789749D01*
X168679862Y-105789500D01*
X169593233Y-105789500D01*
X169604416Y-105790027D01*
X169611909Y-105791702D01*
X169619835Y-105791453D01*
X169619836Y-105791453D01*
X169679986Y-105789562D01*
X169683945Y-105789500D01*
X169711856Y-105789500D01*
X169715791Y-105789003D01*
X169715856Y-105788995D01*
X169727693Y-105788062D01*
X169761488Y-105787000D01*
X169763970Y-105786922D01*
X169771889Y-105786673D01*
X169791343Y-105781021D01*
X169810700Y-105777013D01*
X169822930Y-105775468D01*
X169822931Y-105775468D01*
X169830797Y-105774474D01*
X169838168Y-105771555D01*
X169838170Y-105771555D01*
X169871912Y-105758196D01*
X169883142Y-105754351D01*
X169917983Y-105744229D01*
X169917984Y-105744229D01*
X169925593Y-105742018D01*
X169932412Y-105737985D01*
X169932417Y-105737983D01*
X169943028Y-105731707D01*
X169960776Y-105723012D01*
X169979617Y-105715552D01*
X170015387Y-105689564D01*
X170025307Y-105683048D01*
X170056535Y-105664580D01*
X170056538Y-105664578D01*
X170063362Y-105660542D01*
X170077683Y-105646221D01*
X170092717Y-105633380D01*
X170102694Y-105626131D01*
X170109107Y-105621472D01*
X170137298Y-105587395D01*
X170145288Y-105578616D01*
X170696499Y-105027405D01*
X170758811Y-104993379D01*
X170785594Y-104990500D01*
X172094134Y-104990500D01*
X172156316Y-104983745D01*
X172292705Y-104932615D01*
X172409261Y-104845261D01*
X172496615Y-104728705D01*
X172547745Y-104592316D01*
X172554500Y-104530134D01*
X172554500Y-102733866D01*
X172547745Y-102671684D01*
X172496615Y-102535295D01*
X172409261Y-102418739D01*
X172311716Y-102345633D01*
X172269204Y-102288777D01*
X172264178Y-102217959D01*
X172298189Y-102155715D01*
X176160247Y-98293657D01*
X176168537Y-98286113D01*
X176175018Y-98282000D01*
X176221659Y-98232332D01*
X176224413Y-98229491D01*
X176244134Y-98209770D01*
X176246612Y-98206575D01*
X176254318Y-98197553D01*
X176279158Y-98171101D01*
X176284586Y-98165321D01*
X176290732Y-98154142D01*
X176294346Y-98147568D01*
X176305199Y-98131045D01*
X176312753Y-98121306D01*
X176317613Y-98115041D01*
X176335176Y-98074457D01*
X176340383Y-98063827D01*
X176361695Y-98025060D01*
X176363666Y-98017383D01*
X176363668Y-98017378D01*
X176366732Y-98005442D01*
X176373138Y-97986730D01*
X176378034Y-97975417D01*
X176381181Y-97968145D01*
X176388097Y-97924481D01*
X176390504Y-97912860D01*
X176399528Y-97877711D01*
X176399528Y-97877710D01*
X176401500Y-97870030D01*
X176401500Y-97849769D01*
X176403051Y-97830058D01*
X176403256Y-97828767D01*
X176406219Y-97810057D01*
X176402059Y-97766046D01*
X176401500Y-97754189D01*
X176401500Y-88983768D01*
X176402027Y-88972585D01*
X176403702Y-88965092D01*
X176401562Y-88897001D01*
X176401500Y-88893044D01*
X176401500Y-88865144D01*
X176400996Y-88861153D01*
X176400063Y-88849311D01*
X176399571Y-88833637D01*
X176398674Y-88805111D01*
X176396462Y-88797497D01*
X176396461Y-88797492D01*
X176393023Y-88785659D01*
X176389012Y-88766295D01*
X176387467Y-88754064D01*
X176386474Y-88746203D01*
X176383557Y-88738836D01*
X176383556Y-88738831D01*
X176370198Y-88705092D01*
X176366354Y-88693865D01*
X176361559Y-88677361D01*
X176354018Y-88651407D01*
X176343707Y-88633972D01*
X176335012Y-88616224D01*
X176327552Y-88597383D01*
X176301564Y-88561613D01*
X176295048Y-88551693D01*
X176276580Y-88520465D01*
X176276578Y-88520462D01*
X176272542Y-88513638D01*
X176258221Y-88499317D01*
X176245380Y-88484283D01*
X176238131Y-88474306D01*
X176233472Y-88467893D01*
X176199395Y-88439702D01*
X176190616Y-88431712D01*
X175385405Y-87626501D01*
X175351379Y-87564189D01*
X175348500Y-87537406D01*
X175348500Y-86228866D01*
X175341745Y-86166684D01*
X175290615Y-86030295D01*
X175203261Y-85913739D01*
X175086705Y-85826385D01*
X175074132Y-85821672D01*
X174968203Y-85781960D01*
X174911439Y-85739318D01*
X174886739Y-85672756D01*
X174901947Y-85603408D01*
X174923493Y-85574727D01*
X175028096Y-85470489D01*
X175158453Y-85289077D01*
X175190321Y-85224598D01*
X175255136Y-85093453D01*
X175255137Y-85093451D01*
X175257430Y-85088811D01*
X175322370Y-84875069D01*
X175351529Y-84653590D01*
X175352130Y-84628990D01*
X175353074Y-84590365D01*
X175353074Y-84590361D01*
X175353156Y-84587000D01*
X175334852Y-84364361D01*
X175280431Y-84147702D01*
X175191354Y-83942840D01*
X175111885Y-83820000D01*
X175072822Y-83759617D01*
X175072820Y-83759614D01*
X175070014Y-83755277D01*
X174919670Y-83590051D01*
X174915619Y-83586852D01*
X174915615Y-83586848D01*
X174748414Y-83454800D01*
X174748410Y-83454798D01*
X174744359Y-83451598D01*
X174739835Y-83449101D01*
X174739831Y-83449098D01*
X174688608Y-83420822D01*
X174638636Y-83370390D01*
X174623500Y-83310513D01*
X174623500Y-76253767D01*
X174624027Y-76242584D01*
X174625702Y-76235091D01*
X174623562Y-76167014D01*
X174623500Y-76163055D01*
X174623500Y-76135144D01*
X174622995Y-76131144D01*
X174622062Y-76119301D01*
X174620922Y-76083029D01*
X174620673Y-76075110D01*
X174615022Y-76055658D01*
X174611014Y-76036306D01*
X174609467Y-76024063D01*
X174608474Y-76016203D01*
X174605556Y-76008832D01*
X174592200Y-75975097D01*
X174588355Y-75963870D01*
X174587721Y-75961687D01*
X174576018Y-75921407D01*
X174565707Y-75903972D01*
X174557012Y-75886224D01*
X174549552Y-75867383D01*
X174523564Y-75831613D01*
X174517048Y-75821693D01*
X174498580Y-75790465D01*
X174498578Y-75790462D01*
X174494542Y-75783638D01*
X174480221Y-75769317D01*
X174467380Y-75754283D01*
X174460131Y-75744306D01*
X174455472Y-75737893D01*
X174421395Y-75709702D01*
X174412616Y-75701712D01*
X170007218Y-71296313D01*
X169973192Y-71234001D01*
X169975755Y-71170589D01*
X169986865Y-71134022D01*
X169988370Y-71129069D01*
X170017529Y-70907590D01*
X170019156Y-70841000D01*
X170000852Y-70618361D01*
X169946431Y-70401702D01*
X169857354Y-70196840D01*
X169754995Y-70038617D01*
X169738822Y-70013617D01*
X169738820Y-70013614D01*
X169736014Y-70009277D01*
X169711834Y-69982703D01*
X171880743Y-69982703D01*
X171881302Y-69986947D01*
X171881302Y-69986951D01*
X171884654Y-70012411D01*
X171918268Y-70267734D01*
X171994129Y-70545036D01*
X172106923Y-70809476D01*
X172254561Y-71056161D01*
X172434313Y-71280528D01*
X172642851Y-71478423D01*
X172876317Y-71646186D01*
X172880112Y-71648195D01*
X172880113Y-71648196D01*
X172901869Y-71659715D01*
X173130392Y-71780712D01*
X173400373Y-71879511D01*
X173681264Y-71940755D01*
X173709841Y-71943004D01*
X173904282Y-71958307D01*
X173904291Y-71958307D01*
X173906739Y-71958500D01*
X174062271Y-71958500D01*
X174064407Y-71958354D01*
X174064418Y-71958354D01*
X174272548Y-71944165D01*
X174272554Y-71944164D01*
X174276825Y-71943873D01*
X174281020Y-71943004D01*
X174281022Y-71943004D01*
X174473494Y-71903145D01*
X174558342Y-71885574D01*
X174829343Y-71789607D01*
X175084812Y-71657750D01*
X175088313Y-71655289D01*
X175088317Y-71655287D01*
X175212404Y-71568077D01*
X175320023Y-71492441D01*
X175530622Y-71296740D01*
X175712713Y-71074268D01*
X175862927Y-70829142D01*
X175978483Y-70565898D01*
X176057244Y-70289406D01*
X176097751Y-70004784D01*
X176097843Y-69987403D01*
X176099235Y-69721583D01*
X176099235Y-69721576D01*
X176099257Y-69717297D01*
X176098627Y-69712507D01*
X176081544Y-69582750D01*
X176061732Y-69432266D01*
X175985871Y-69154964D01*
X175873077Y-68890524D01*
X175725439Y-68643839D01*
X175545687Y-68419472D01*
X175337149Y-68221577D01*
X175103683Y-68053814D01*
X175081843Y-68042250D01*
X175058654Y-68029972D01*
X174849608Y-67919288D01*
X174579627Y-67820489D01*
X174298736Y-67759245D01*
X174267685Y-67756801D01*
X174075718Y-67741693D01*
X174075709Y-67741693D01*
X174073261Y-67741500D01*
X173917729Y-67741500D01*
X173915593Y-67741646D01*
X173915582Y-67741646D01*
X173707452Y-67755835D01*
X173707446Y-67755836D01*
X173703175Y-67756127D01*
X173698980Y-67756996D01*
X173698978Y-67756996D01*
X173562416Y-67785277D01*
X173421658Y-67814426D01*
X173150657Y-67910393D01*
X172895188Y-68042250D01*
X172891687Y-68044711D01*
X172891683Y-68044713D01*
X172881594Y-68051804D01*
X172659977Y-68207559D01*
X172449378Y-68403260D01*
X172267287Y-68625732D01*
X172117073Y-68870858D01*
X172001517Y-69134102D01*
X171922756Y-69410594D01*
X171882249Y-69695216D01*
X171882227Y-69699505D01*
X171882226Y-69699512D01*
X171880765Y-69978417D01*
X171880743Y-69982703D01*
X169711834Y-69982703D01*
X169585670Y-69844051D01*
X169581619Y-69840852D01*
X169581615Y-69840848D01*
X169414414Y-69708800D01*
X169414410Y-69708798D01*
X169410359Y-69705598D01*
X169383850Y-69690964D01*
X169327611Y-69659919D01*
X169214789Y-69597638D01*
X169209920Y-69595914D01*
X169209916Y-69595912D01*
X169009087Y-69524795D01*
X169009083Y-69524794D01*
X169004212Y-69523069D01*
X168999119Y-69522162D01*
X168999116Y-69522161D01*
X168789373Y-69484800D01*
X168789367Y-69484799D01*
X168784284Y-69483894D01*
X168710452Y-69482992D01*
X168566081Y-69481228D01*
X168566079Y-69481228D01*
X168560911Y-69481165D01*
X168340091Y-69514955D01*
X168127756Y-69584357D01*
X167929607Y-69687507D01*
X167925474Y-69690610D01*
X167925471Y-69690612D01*
X167830246Y-69762109D01*
X167750965Y-69821635D01*
X167725894Y-69847870D01*
X167614470Y-69964469D01*
X167596629Y-69983138D01*
X167489201Y-70140621D01*
X167434293Y-70185621D01*
X167363768Y-70193792D01*
X167300021Y-70162538D01*
X167279324Y-70138054D01*
X167198822Y-70013617D01*
X167198820Y-70013614D01*
X167196014Y-70009277D01*
X167045670Y-69844051D01*
X167041619Y-69840852D01*
X167041615Y-69840848D01*
X166874414Y-69708800D01*
X166874410Y-69708798D01*
X166870359Y-69705598D01*
X166843850Y-69690964D01*
X166787611Y-69659919D01*
X166674789Y-69597638D01*
X166669920Y-69595914D01*
X166669916Y-69595912D01*
X166469087Y-69524795D01*
X166469083Y-69524794D01*
X166464212Y-69523069D01*
X166459119Y-69522162D01*
X166459116Y-69522161D01*
X166249373Y-69484800D01*
X166249367Y-69484799D01*
X166244284Y-69483894D01*
X166170452Y-69482992D01*
X166026081Y-69481228D01*
X166026079Y-69481228D01*
X166020911Y-69481165D01*
X165800091Y-69514955D01*
X165587756Y-69584357D01*
X165389607Y-69687507D01*
X165385474Y-69690610D01*
X165385471Y-69690612D01*
X165290246Y-69762109D01*
X165210965Y-69821635D01*
X165137717Y-69898285D01*
X165130283Y-69906064D01*
X165068759Y-69941494D01*
X164997846Y-69938037D01*
X164940060Y-69896791D01*
X164921207Y-69863243D01*
X164879767Y-69752703D01*
X164876615Y-69744295D01*
X164789261Y-69627739D01*
X164672705Y-69540385D01*
X164536316Y-69489255D01*
X164474134Y-69482500D01*
X162677866Y-69482500D01*
X162615684Y-69489255D01*
X162479295Y-69540385D01*
X162362739Y-69627739D01*
X162275385Y-69744295D01*
X162224255Y-69880684D01*
X162217500Y-69942866D01*
X162217500Y-70106500D01*
X162197498Y-70174621D01*
X162143842Y-70221114D01*
X162091500Y-70232500D01*
X150836500Y-70232500D01*
X150768379Y-70212498D01*
X150721886Y-70158842D01*
X150710500Y-70106500D01*
X150710500Y-69967866D01*
X150703745Y-69905684D01*
X150652615Y-69769295D01*
X150565261Y-69652739D01*
X150448705Y-69565385D01*
X150312316Y-69514255D01*
X150250134Y-69507500D01*
X148453866Y-69507500D01*
X148391684Y-69514255D01*
X148255295Y-69565385D01*
X148138739Y-69652739D01*
X148051385Y-69769295D01*
X148048233Y-69777703D01*
X148048232Y-69777705D01*
X148006722Y-69888433D01*
X147964081Y-69945198D01*
X147897519Y-69969898D01*
X147828170Y-69954691D01*
X147795546Y-69929004D01*
X147744799Y-69873234D01*
X147737273Y-69866215D01*
X147570139Y-69734222D01*
X147561552Y-69728517D01*
X147375117Y-69625599D01*
X147365705Y-69621369D01*
X147164959Y-69550280D01*
X147154988Y-69547646D01*
X147083837Y-69534972D01*
X147070540Y-69536432D01*
X147066000Y-69550989D01*
X147066000Y-72184517D01*
X147070064Y-72198359D01*
X147083478Y-72200393D01*
X147090184Y-72199534D01*
X147100262Y-72197392D01*
X147304255Y-72136191D01*
X147313842Y-72132433D01*
X147505095Y-72038739D01*
X147513945Y-72033464D01*
X147687328Y-71909792D01*
X147695193Y-71903145D01*
X147799897Y-71798805D01*
X147862268Y-71764889D01*
X147933075Y-71770077D01*
X147989837Y-71812723D01*
X148006819Y-71843826D01*
X148021934Y-71884144D01*
X148051385Y-71962705D01*
X148138739Y-72079261D01*
X148255295Y-72166615D01*
X148391684Y-72217745D01*
X148453866Y-72224500D01*
X150250134Y-72224500D01*
X150312316Y-72217745D01*
X150448705Y-72166615D01*
X150565261Y-72079261D01*
X150652615Y-71962705D01*
X150703745Y-71826316D01*
X150710500Y-71764134D01*
X150710500Y-71625500D01*
X150730502Y-71557379D01*
X150784158Y-71510886D01*
X150836500Y-71499500D01*
X162091500Y-71499500D01*
X162159621Y-71519502D01*
X162206114Y-71573158D01*
X162217500Y-71625500D01*
X162217500Y-71739134D01*
X162224255Y-71801316D01*
X162275385Y-71937705D01*
X162362739Y-72054261D01*
X162479295Y-72141615D01*
X162615684Y-72192745D01*
X162677866Y-72199500D01*
X162816500Y-72199500D01*
X162884621Y-72219502D01*
X162931114Y-72273158D01*
X162942500Y-72325500D01*
X162942500Y-90091233D01*
X162941973Y-90102416D01*
X162940298Y-90109909D01*
X162940547Y-90117835D01*
X162940547Y-90117836D01*
X162942438Y-90177986D01*
X162942500Y-90181945D01*
X162942500Y-90209856D01*
X162942997Y-90213790D01*
X162942997Y-90213791D01*
X162943005Y-90213856D01*
X162943938Y-90225693D01*
X162945327Y-90269889D01*
X162950155Y-90286507D01*
X162950978Y-90289339D01*
X162954987Y-90308700D01*
X162957526Y-90328797D01*
X162960445Y-90336168D01*
X162960445Y-90336170D01*
X162973804Y-90369912D01*
X162977649Y-90381142D01*
X162989982Y-90423593D01*
X162994015Y-90430412D01*
X162994017Y-90430417D01*
X163000293Y-90441028D01*
X163008988Y-90458776D01*
X163016448Y-90477617D01*
X163021110Y-90484033D01*
X163021110Y-90484034D01*
X163042436Y-90513387D01*
X163048952Y-90523307D01*
X163071458Y-90561362D01*
X163085779Y-90575683D01*
X163098619Y-90590716D01*
X163110528Y-90607107D01*
X163117562Y-90612926D01*
X163144605Y-90635298D01*
X163153384Y-90643288D01*
X165641501Y-93131405D01*
X165675527Y-93193717D01*
X165670462Y-93264532D01*
X165627915Y-93321368D01*
X165561395Y-93346179D01*
X165552406Y-93346500D01*
X154757793Y-93346500D01*
X154734184Y-93344268D01*
X154733881Y-93344210D01*
X154733877Y-93344210D01*
X154726094Y-93342725D01*
X154670049Y-93346251D01*
X154662138Y-93346500D01*
X154646144Y-93346500D01*
X154630270Y-93348506D01*
X154622410Y-93349248D01*
X154594951Y-93350976D01*
X154574263Y-93352277D01*
X154574262Y-93352277D01*
X154566350Y-93352775D01*
X154558809Y-93355225D01*
X154558513Y-93355321D01*
X154535369Y-93360494D01*
X154535065Y-93360532D01*
X154535060Y-93360533D01*
X154527203Y-93361526D01*
X154519838Y-93364442D01*
X154519834Y-93364443D01*
X154474989Y-93382199D01*
X154467570Y-93384871D01*
X154414125Y-93402236D01*
X154407429Y-93406486D01*
X154407428Y-93406486D01*
X154407169Y-93406650D01*
X154386042Y-93417415D01*
X154385754Y-93417529D01*
X154385749Y-93417532D01*
X154378383Y-93420448D01*
X154371975Y-93425104D01*
X154371969Y-93425107D01*
X154332948Y-93453458D01*
X154326411Y-93457901D01*
X154278982Y-93488000D01*
X154273556Y-93493778D01*
X154273555Y-93493779D01*
X154273341Y-93494007D01*
X154255554Y-93509688D01*
X154255309Y-93509866D01*
X154255307Y-93509868D01*
X154248893Y-93514528D01*
X154243839Y-93520637D01*
X154243838Y-93520638D01*
X154213097Y-93557796D01*
X154207866Y-93563730D01*
X154174842Y-93598898D01*
X154174840Y-93598901D01*
X154169414Y-93604679D01*
X154165445Y-93611899D01*
X154152119Y-93631506D01*
X154151920Y-93631746D01*
X154151916Y-93631753D01*
X154146867Y-93637856D01*
X154128259Y-93677400D01*
X154122953Y-93688676D01*
X154119371Y-93695708D01*
X154092305Y-93744940D01*
X154090335Y-93752615D01*
X154090332Y-93752621D01*
X154090256Y-93752919D01*
X154082224Y-93775228D01*
X154082094Y-93775503D01*
X154082091Y-93775511D01*
X154078717Y-93782682D01*
X154077231Y-93790474D01*
X154068195Y-93837843D01*
X154066471Y-93845558D01*
X154052500Y-93899970D01*
X154052500Y-93908207D01*
X154050268Y-93931816D01*
X154048725Y-93939906D01*
X154051459Y-93983365D01*
X154052251Y-93995951D01*
X154052500Y-94003862D01*
X154052500Y-98046500D01*
X154032498Y-98114621D01*
X153978842Y-98161114D01*
X153926500Y-98172500D01*
X132140594Y-98172500D01*
X132072473Y-98152498D01*
X132051499Y-98135595D01*
X128351218Y-94435313D01*
X128317192Y-94373001D01*
X128319755Y-94309589D01*
X128330865Y-94273022D01*
X128332370Y-94268069D01*
X128361529Y-94046590D01*
X128363156Y-93980000D01*
X128344852Y-93757361D01*
X128290431Y-93540702D01*
X128201354Y-93335840D01*
X128130790Y-93226764D01*
X128082822Y-93152617D01*
X128082820Y-93152614D01*
X128080014Y-93148277D01*
X127929670Y-92983051D01*
X127925619Y-92979852D01*
X127925615Y-92979848D01*
X127758414Y-92847800D01*
X127758410Y-92847798D01*
X127754359Y-92844598D01*
X127712569Y-92821529D01*
X127662598Y-92771097D01*
X127647826Y-92701654D01*
X127672942Y-92635248D01*
X127700294Y-92608641D01*
X127875328Y-92483792D01*
X127883200Y-92477139D01*
X128034052Y-92326812D01*
X128040730Y-92318965D01*
X128165003Y-92146020D01*
X128170313Y-92137183D01*
X128264670Y-91946267D01*
X128268469Y-91936672D01*
X128330377Y-91732910D01*
X128332555Y-91722837D01*
X128333986Y-91711962D01*
X128331775Y-91697778D01*
X128318617Y-91694000D01*
X125683225Y-91694000D01*
X125669694Y-91697973D01*
X125668257Y-91707966D01*
X125698565Y-91842446D01*
X125701645Y-91852275D01*
X125781770Y-92049603D01*
X125786413Y-92058794D01*
X125897694Y-92240388D01*
X125903777Y-92248699D01*
X126043213Y-92409667D01*
X126050580Y-92416883D01*
X126214434Y-92552916D01*
X126222881Y-92558831D01*
X126291969Y-92599203D01*
X126340693Y-92650842D01*
X126353764Y-92720625D01*
X126327033Y-92786396D01*
X126286584Y-92819752D01*
X126273607Y-92826507D01*
X126269474Y-92829610D01*
X126269471Y-92829612D01*
X126099100Y-92957530D01*
X126094965Y-92960635D01*
X125940629Y-93122138D01*
X125814743Y-93306680D01*
X125779688Y-93382199D01*
X125744546Y-93457908D01*
X125720688Y-93509305D01*
X125660989Y-93724570D01*
X125637251Y-93946695D01*
X124206500Y-93946695D01*
X124206500Y-88866695D01*
X125637251Y-88866695D01*
X125637548Y-88871848D01*
X125637548Y-88871851D01*
X125642924Y-88965092D01*
X125650110Y-89089715D01*
X125651247Y-89094761D01*
X125651248Y-89094767D01*
X125659301Y-89130499D01*
X125699222Y-89307639D01*
X125783266Y-89514616D01*
X125899987Y-89705088D01*
X126046250Y-89873938D01*
X126218126Y-90016632D01*
X126291445Y-90059476D01*
X126291955Y-90059774D01*
X126340679Y-90111412D01*
X126353750Y-90181195D01*
X126327019Y-90246967D01*
X126286562Y-90280327D01*
X126278457Y-90284546D01*
X126269738Y-90290036D01*
X126099433Y-90417905D01*
X126091726Y-90424748D01*
X125944590Y-90578717D01*
X125938104Y-90586727D01*
X125818098Y-90762649D01*
X125813000Y-90771623D01*
X125723338Y-90964783D01*
X125719775Y-90974470D01*
X125664389Y-91174183D01*
X125665912Y-91182607D01*
X125678292Y-91186000D01*
X128318344Y-91186000D01*
X128331875Y-91182027D01*
X128333180Y-91172947D01*
X128291214Y-91005875D01*
X128287894Y-90996124D01*
X128202972Y-90800814D01*
X128198105Y-90791739D01*
X128082426Y-90612926D01*
X128076136Y-90604757D01*
X127932806Y-90447240D01*
X127925273Y-90440215D01*
X127758139Y-90308222D01*
X127749556Y-90302520D01*
X127712602Y-90282120D01*
X127662631Y-90231687D01*
X127647859Y-90162245D01*
X127672975Y-90095839D01*
X127700327Y-90069232D01*
X127723797Y-90052491D01*
X127879860Y-89941173D01*
X127939052Y-89882188D01*
X128034435Y-89787137D01*
X128038096Y-89783489D01*
X128097594Y-89700689D01*
X128165435Y-89606277D01*
X128168453Y-89602077D01*
X128267430Y-89401811D01*
X128332370Y-89188069D01*
X128361529Y-88966590D01*
X128361759Y-88957165D01*
X128363074Y-88903365D01*
X128363074Y-88903361D01*
X128363156Y-88900000D01*
X128344852Y-88677361D01*
X128290431Y-88460702D01*
X128201354Y-88255840D01*
X128080014Y-88068277D01*
X127929670Y-87903051D01*
X127925619Y-87899852D01*
X127925615Y-87899848D01*
X127758414Y-87767800D01*
X127758410Y-87767798D01*
X127754359Y-87764598D01*
X127713053Y-87741796D01*
X127663084Y-87691364D01*
X127648312Y-87621921D01*
X127673428Y-87555516D01*
X127700780Y-87528909D01*
X127744603Y-87497650D01*
X127879860Y-87401173D01*
X128038096Y-87243489D01*
X128097594Y-87160689D01*
X128165435Y-87066277D01*
X128168453Y-87062077D01*
X128267430Y-86861811D01*
X128332370Y-86648069D01*
X128361529Y-86426590D01*
X128361611Y-86423240D01*
X128363074Y-86363365D01*
X128363074Y-86363361D01*
X128363156Y-86360000D01*
X128344852Y-86137361D01*
X128290431Y-85920702D01*
X128239797Y-85804252D01*
X128230977Y-85733807D01*
X128261644Y-85669775D01*
X128322060Y-85632487D01*
X128355347Y-85628011D01*
X140884576Y-85628011D01*
X140952697Y-85648013D01*
X140999190Y-85701669D01*
X141009294Y-85771943D01*
X140998864Y-85807061D01*
X140960688Y-85889305D01*
X140900989Y-86104570D01*
X140877251Y-86326695D01*
X140877548Y-86331848D01*
X140877548Y-86331851D01*
X140883011Y-86426590D01*
X140890110Y-86549715D01*
X140891247Y-86554761D01*
X140891248Y-86554767D01*
X140911119Y-86642939D01*
X140939222Y-86767639D01*
X141023266Y-86974616D01*
X141139987Y-87165088D01*
X141286250Y-87333938D01*
X141458126Y-87476632D01*
X141528595Y-87517811D01*
X141531445Y-87519476D01*
X141580169Y-87571114D01*
X141593240Y-87640897D01*
X141566509Y-87706669D01*
X141526055Y-87740027D01*
X141513607Y-87746507D01*
X141509474Y-87749610D01*
X141509471Y-87749612D01*
X141485247Y-87767800D01*
X141334965Y-87880635D01*
X141180629Y-88042138D01*
X141054743Y-88226680D01*
X141039003Y-88260590D01*
X140963973Y-88422229D01*
X140960688Y-88429305D01*
X140900989Y-88644570D01*
X140877251Y-88866695D01*
X140877548Y-88871848D01*
X140877548Y-88871851D01*
X140882924Y-88965092D01*
X140890110Y-89089715D01*
X140891247Y-89094761D01*
X140891248Y-89094767D01*
X140899301Y-89130499D01*
X140939222Y-89307639D01*
X141023266Y-89514616D01*
X141139987Y-89705088D01*
X141286250Y-89873938D01*
X141458126Y-90016632D01*
X141528595Y-90057811D01*
X141531445Y-90059476D01*
X141580169Y-90111114D01*
X141593240Y-90180897D01*
X141566509Y-90246669D01*
X141526055Y-90280027D01*
X141513607Y-90286507D01*
X141509474Y-90289610D01*
X141509471Y-90289612D01*
X141339100Y-90417530D01*
X141334965Y-90420635D01*
X141331393Y-90424373D01*
X141186798Y-90575683D01*
X141180629Y-90582138D01*
X141177715Y-90586410D01*
X141177714Y-90586411D01*
X141174777Y-90590717D01*
X141054743Y-90766680D01*
X140960688Y-90969305D01*
X140900989Y-91184570D01*
X140877251Y-91406695D01*
X140877548Y-91411848D01*
X140877548Y-91411851D01*
X140883011Y-91506590D01*
X140890110Y-91629715D01*
X140891247Y-91634760D01*
X140891248Y-91634767D01*
X140898745Y-91668031D01*
X140939222Y-91847639D01*
X141023266Y-92054616D01*
X141139987Y-92245088D01*
X141286250Y-92413938D01*
X141458126Y-92556632D01*
X141516355Y-92590658D01*
X141531445Y-92599476D01*
X141580169Y-92651114D01*
X141593240Y-92720897D01*
X141566509Y-92786669D01*
X141526055Y-92820027D01*
X141513607Y-92826507D01*
X141509474Y-92829610D01*
X141509471Y-92829612D01*
X141339100Y-92957530D01*
X141334965Y-92960635D01*
X141180629Y-93122138D01*
X141054743Y-93306680D01*
X141019688Y-93382199D01*
X140984546Y-93457908D01*
X140960688Y-93509305D01*
X140900989Y-93724570D01*
X140877251Y-93946695D01*
X140877548Y-93951848D01*
X140877548Y-93951851D01*
X140883011Y-94046590D01*
X140890110Y-94169715D01*
X140891247Y-94174761D01*
X140891248Y-94174767D01*
X140911119Y-94262939D01*
X140939222Y-94387639D01*
X141023266Y-94594616D01*
X141139987Y-94785088D01*
X141286250Y-94953938D01*
X141458126Y-95096632D01*
X141651000Y-95209338D01*
X141859692Y-95289030D01*
X141864760Y-95290061D01*
X141864763Y-95290062D01*
X141969466Y-95311364D01*
X142078597Y-95333567D01*
X142083772Y-95333757D01*
X142083774Y-95333757D01*
X142296673Y-95341564D01*
X142296677Y-95341564D01*
X142301837Y-95341753D01*
X142306957Y-95341097D01*
X142306959Y-95341097D01*
X142518288Y-95314025D01*
X142518289Y-95314025D01*
X142523416Y-95313368D01*
X142528367Y-95311883D01*
X142528370Y-95311882D01*
X142569829Y-95299444D01*
X142640825Y-95299028D01*
X142695131Y-95331035D01*
X144276343Y-96912247D01*
X144283887Y-96920537D01*
X144288000Y-96927018D01*
X144293777Y-96932443D01*
X144337667Y-96973658D01*
X144340509Y-96976413D01*
X144360230Y-96996134D01*
X144363425Y-96998612D01*
X144372447Y-97006318D01*
X144404679Y-97036586D01*
X144411628Y-97040406D01*
X144422432Y-97046346D01*
X144438956Y-97057199D01*
X144454959Y-97069613D01*
X144495543Y-97087176D01*
X144506173Y-97092383D01*
X144544940Y-97113695D01*
X144552617Y-97115666D01*
X144552622Y-97115668D01*
X144564558Y-97118732D01*
X144583266Y-97125137D01*
X144601855Y-97133181D01*
X144609680Y-97134420D01*
X144609682Y-97134421D01*
X144645519Y-97140097D01*
X144657140Y-97142504D01*
X144692289Y-97151528D01*
X144699970Y-97153500D01*
X144720231Y-97153500D01*
X144739940Y-97155051D01*
X144759943Y-97158219D01*
X144767835Y-97157473D01*
X144773062Y-97156979D01*
X144803954Y-97154059D01*
X144815811Y-97153500D01*
X151124274Y-97153500D01*
X151192395Y-97173502D01*
X151231707Y-97213665D01*
X151299987Y-97325088D01*
X151446250Y-97493938D01*
X151618126Y-97636632D01*
X151811000Y-97749338D01*
X151815825Y-97751180D01*
X151815826Y-97751181D01*
X151854754Y-97766046D01*
X152019692Y-97829030D01*
X152024760Y-97830061D01*
X152024763Y-97830062D01*
X152121627Y-97849769D01*
X152238597Y-97873567D01*
X152243772Y-97873757D01*
X152243774Y-97873757D01*
X152456673Y-97881564D01*
X152456677Y-97881564D01*
X152461837Y-97881753D01*
X152466957Y-97881097D01*
X152466959Y-97881097D01*
X152678288Y-97854025D01*
X152678289Y-97854025D01*
X152683416Y-97853368D01*
X152728467Y-97839852D01*
X152892429Y-97790661D01*
X152892434Y-97790659D01*
X152897384Y-97789174D01*
X153097994Y-97690896D01*
X153279860Y-97561173D01*
X153438096Y-97403489D01*
X153497594Y-97320689D01*
X153565435Y-97226277D01*
X153568453Y-97222077D01*
X153572611Y-97213665D01*
X153665136Y-97026453D01*
X153665137Y-97026451D01*
X153667430Y-97021811D01*
X153732370Y-96808069D01*
X153761529Y-96586590D01*
X153763156Y-96520000D01*
X153744852Y-96297361D01*
X153690431Y-96080702D01*
X153601354Y-95875840D01*
X153480014Y-95688277D01*
X153329670Y-95523051D01*
X153325619Y-95519852D01*
X153325615Y-95519848D01*
X153158414Y-95387800D01*
X153158410Y-95387798D01*
X153154359Y-95384598D01*
X153113053Y-95361796D01*
X153063084Y-95311364D01*
X153048312Y-95241921D01*
X153073428Y-95175516D01*
X153100780Y-95148909D01*
X153144603Y-95117650D01*
X153279860Y-95021173D01*
X153438096Y-94863489D01*
X153497594Y-94780689D01*
X153565435Y-94686277D01*
X153568453Y-94682077D01*
X153573741Y-94671379D01*
X153665136Y-94486453D01*
X153665137Y-94486451D01*
X153667430Y-94481811D01*
X153703436Y-94363301D01*
X153730865Y-94273023D01*
X153730865Y-94273021D01*
X153732370Y-94268069D01*
X153761529Y-94046590D01*
X153763156Y-93980000D01*
X153744852Y-93757361D01*
X153690431Y-93540702D01*
X153601354Y-93335840D01*
X153530790Y-93226764D01*
X153482822Y-93152617D01*
X153482820Y-93152614D01*
X153480014Y-93148277D01*
X153329670Y-92983051D01*
X153325619Y-92979852D01*
X153325615Y-92979848D01*
X153158414Y-92847800D01*
X153158410Y-92847798D01*
X153154359Y-92844598D01*
X153113053Y-92821796D01*
X153063084Y-92771364D01*
X153048312Y-92701921D01*
X153073428Y-92635516D01*
X153100780Y-92608909D01*
X153153497Y-92571306D01*
X153279860Y-92481173D01*
X153438096Y-92323489D01*
X153451873Y-92304317D01*
X153565435Y-92146277D01*
X153568453Y-92142077D01*
X153667430Y-91941811D01*
X153721270Y-91764604D01*
X153730865Y-91733023D01*
X153730865Y-91733021D01*
X153732370Y-91728069D01*
X153761529Y-91506590D01*
X153761611Y-91503240D01*
X153763074Y-91443365D01*
X153763074Y-91443361D01*
X153763156Y-91440000D01*
X153744852Y-91217361D01*
X153690431Y-91000702D01*
X153601354Y-90795840D01*
X153502664Y-90643288D01*
X153482822Y-90612617D01*
X153482820Y-90612614D01*
X153480014Y-90608277D01*
X153329670Y-90443051D01*
X153325619Y-90439852D01*
X153325615Y-90439848D01*
X153158414Y-90307800D01*
X153158410Y-90307798D01*
X153154359Y-90304598D01*
X153113053Y-90281796D01*
X153063084Y-90231364D01*
X153048312Y-90161921D01*
X153073428Y-90095516D01*
X153100780Y-90068909D01*
X153144603Y-90037650D01*
X153279860Y-89941173D01*
X153339052Y-89882188D01*
X153434435Y-89787137D01*
X153438096Y-89783489D01*
X153497594Y-89700689D01*
X153565435Y-89606277D01*
X153568453Y-89602077D01*
X153667430Y-89401811D01*
X153732370Y-89188069D01*
X153761529Y-88966590D01*
X153761759Y-88957165D01*
X153763074Y-88903365D01*
X153763074Y-88903361D01*
X153763156Y-88900000D01*
X153744852Y-88677361D01*
X153690431Y-88460702D01*
X153601354Y-88255840D01*
X153480014Y-88068277D01*
X153329670Y-87903051D01*
X153325619Y-87899852D01*
X153325615Y-87899848D01*
X153158414Y-87767800D01*
X153158410Y-87767798D01*
X153154359Y-87764598D01*
X153113053Y-87741796D01*
X153063084Y-87691364D01*
X153048312Y-87621921D01*
X153073428Y-87555516D01*
X153100780Y-87528909D01*
X153144603Y-87497650D01*
X153279860Y-87401173D01*
X153438096Y-87243489D01*
X153497594Y-87160689D01*
X153565435Y-87066277D01*
X153568453Y-87062077D01*
X153667430Y-86861811D01*
X153732370Y-86648069D01*
X153761529Y-86426590D01*
X153761611Y-86423240D01*
X153763074Y-86363365D01*
X153763074Y-86363361D01*
X153763156Y-86360000D01*
X153744852Y-86137361D01*
X153690431Y-85920702D01*
X153601354Y-85715840D01*
X153544535Y-85628011D01*
X153482822Y-85532617D01*
X153482820Y-85532614D01*
X153480014Y-85528277D01*
X153329670Y-85363051D01*
X153325619Y-85359852D01*
X153325615Y-85359848D01*
X153158414Y-85227800D01*
X153158410Y-85227798D01*
X153154359Y-85224598D01*
X153113053Y-85201796D01*
X153063084Y-85151364D01*
X153048312Y-85081921D01*
X153073428Y-85015516D01*
X153100780Y-84988909D01*
X153144603Y-84957650D01*
X153279860Y-84861173D01*
X153438096Y-84703489D01*
X153497594Y-84620689D01*
X153565435Y-84526277D01*
X153568453Y-84522077D01*
X153571505Y-84515903D01*
X153665136Y-84326453D01*
X153665137Y-84326451D01*
X153667430Y-84321811D01*
X153732370Y-84108069D01*
X153761529Y-83886590D01*
X153763156Y-83820000D01*
X153744852Y-83597361D01*
X153690431Y-83380702D01*
X153601354Y-83175840D01*
X153480014Y-82988277D01*
X153329670Y-82823051D01*
X153325619Y-82819852D01*
X153325615Y-82819848D01*
X153158414Y-82687800D01*
X153158410Y-82687798D01*
X153154359Y-82684598D01*
X153113053Y-82661796D01*
X153063084Y-82611364D01*
X153048312Y-82541921D01*
X153073428Y-82475516D01*
X153100780Y-82448909D01*
X153144603Y-82417650D01*
X153279860Y-82321173D01*
X153438096Y-82163489D01*
X153497594Y-82080689D01*
X153565435Y-81986277D01*
X153568453Y-81982077D01*
X153571505Y-81975903D01*
X153665136Y-81786453D01*
X153665137Y-81786451D01*
X153667430Y-81781811D01*
X153732370Y-81568069D01*
X153761529Y-81346590D01*
X153763156Y-81280000D01*
X153744852Y-81057361D01*
X153690431Y-80840702D01*
X153601354Y-80635840D01*
X153480014Y-80448277D01*
X153476540Y-80444459D01*
X153476533Y-80444450D01*
X153332435Y-80286088D01*
X153301383Y-80222242D01*
X153309779Y-80151744D01*
X153354956Y-80096976D01*
X153381400Y-80083307D01*
X153488052Y-80043325D01*
X153503649Y-80034786D01*
X153605724Y-79958285D01*
X153618285Y-79945724D01*
X153694786Y-79843649D01*
X153703324Y-79828054D01*
X153748478Y-79707606D01*
X153752105Y-79692351D01*
X153757631Y-79641486D01*
X153758000Y-79634672D01*
X153758000Y-79012115D01*
X153753525Y-78996876D01*
X153752135Y-78995671D01*
X153744452Y-78994000D01*
X151060116Y-78994000D01*
X151044877Y-78998475D01*
X151043672Y-78999865D01*
X151042001Y-79007548D01*
X151042001Y-79634669D01*
X151042371Y-79641490D01*
X151047895Y-79692352D01*
X151051521Y-79707604D01*
X151096676Y-79828054D01*
X151105214Y-79843649D01*
X151181715Y-79945724D01*
X151194276Y-79958285D01*
X151296351Y-80034786D01*
X151311946Y-80043324D01*
X151420827Y-80084142D01*
X151477591Y-80126784D01*
X151502291Y-80193345D01*
X151487083Y-80262694D01*
X151467691Y-80289175D01*
X151353461Y-80408710D01*
X151340629Y-80422138D01*
X151214743Y-80606680D01*
X151120688Y-80809305D01*
X151060989Y-81024570D01*
X151037251Y-81246695D01*
X151037548Y-81251848D01*
X151037548Y-81251851D01*
X151043011Y-81346590D01*
X151050110Y-81469715D01*
X151051247Y-81474761D01*
X151051248Y-81474767D01*
X151071119Y-81562939D01*
X151099222Y-81687639D01*
X151183266Y-81894616D01*
X151299987Y-82085088D01*
X151446250Y-82253938D01*
X151618126Y-82396632D01*
X151688595Y-82437811D01*
X151691445Y-82439476D01*
X151740169Y-82491114D01*
X151753240Y-82560897D01*
X151726509Y-82626669D01*
X151686055Y-82660027D01*
X151673607Y-82666507D01*
X151669474Y-82669610D01*
X151669471Y-82669612D01*
X151499100Y-82797530D01*
X151494965Y-82800635D01*
X151340629Y-82962138D01*
X151214743Y-83146680D01*
X151175165Y-83231943D01*
X151138695Y-83310513D01*
X151120688Y-83349305D01*
X151060989Y-83564570D01*
X151037251Y-83786695D01*
X151037548Y-83791848D01*
X151037548Y-83791851D01*
X151043011Y-83886590D01*
X151050110Y-84009715D01*
X151051247Y-84014761D01*
X151051248Y-84014767D01*
X151071119Y-84102939D01*
X151099222Y-84227639D01*
X151183266Y-84434616D01*
X151299987Y-84625088D01*
X151446250Y-84793938D01*
X151618126Y-84936632D01*
X151688595Y-84977811D01*
X151691445Y-84979476D01*
X151740169Y-85031114D01*
X151753240Y-85100897D01*
X151726509Y-85166669D01*
X151686055Y-85200027D01*
X151673607Y-85206507D01*
X151669474Y-85209610D01*
X151669471Y-85209612D01*
X151558040Y-85293277D01*
X151494965Y-85340635D01*
X151491393Y-85344373D01*
X151370874Y-85470489D01*
X151340629Y-85502138D01*
X151214743Y-85686680D01*
X151120688Y-85889305D01*
X151060989Y-86104570D01*
X151037251Y-86326695D01*
X151037548Y-86331851D01*
X151037422Y-86337024D01*
X151035914Y-86336987D01*
X151021411Y-86399482D01*
X150970520Y-86448986D01*
X150900944Y-86463117D01*
X150834773Y-86437389D01*
X150822574Y-86426669D01*
X143918163Y-79522258D01*
X143910623Y-79513972D01*
X143906511Y-79507493D01*
X143856859Y-79460867D01*
X143854018Y-79458113D01*
X143834281Y-79438376D01*
X143831084Y-79435896D01*
X143822062Y-79428191D01*
X143795611Y-79403352D01*
X143789832Y-79397925D01*
X143782886Y-79394106D01*
X143782883Y-79394104D01*
X143772077Y-79388163D01*
X143755558Y-79377312D01*
X143755094Y-79376952D01*
X143739552Y-79364897D01*
X143732283Y-79361752D01*
X143732279Y-79361749D01*
X143698974Y-79347337D01*
X143688312Y-79342114D01*
X143663798Y-79328637D01*
X143613740Y-79278291D01*
X143598500Y-79218223D01*
X143598500Y-78467885D01*
X151042000Y-78467885D01*
X151046475Y-78483124D01*
X151047865Y-78484329D01*
X151055548Y-78486000D01*
X152127885Y-78486000D01*
X152143124Y-78481525D01*
X152144329Y-78480135D01*
X152146000Y-78472452D01*
X152146000Y-78467885D01*
X152654000Y-78467885D01*
X152658475Y-78483124D01*
X152659865Y-78484329D01*
X152667548Y-78486000D01*
X153739884Y-78486000D01*
X153755123Y-78481525D01*
X153756328Y-78480135D01*
X153757999Y-78472452D01*
X153757999Y-77845331D01*
X153757629Y-77838510D01*
X153752105Y-77787648D01*
X153748479Y-77772396D01*
X153703324Y-77651946D01*
X153694786Y-77636351D01*
X153618285Y-77534276D01*
X153605724Y-77521715D01*
X153503649Y-77445214D01*
X153488054Y-77436676D01*
X153367606Y-77391522D01*
X153352351Y-77387895D01*
X153301486Y-77382369D01*
X153294672Y-77382000D01*
X152672115Y-77382000D01*
X152656876Y-77386475D01*
X152655671Y-77387865D01*
X152654000Y-77395548D01*
X152654000Y-78467885D01*
X152146000Y-78467885D01*
X152146000Y-77400116D01*
X152141525Y-77384877D01*
X152140135Y-77383672D01*
X152132452Y-77382001D01*
X151505331Y-77382001D01*
X151498510Y-77382371D01*
X151447648Y-77387895D01*
X151432396Y-77391521D01*
X151311946Y-77436676D01*
X151296351Y-77445214D01*
X151194276Y-77521715D01*
X151181715Y-77534276D01*
X151105214Y-77636351D01*
X151096676Y-77651946D01*
X151051522Y-77772394D01*
X151047895Y-77787649D01*
X151042369Y-77838514D01*
X151042000Y-77845328D01*
X151042000Y-78467885D01*
X143598500Y-78467885D01*
X143598500Y-77841866D01*
X143591745Y-77779684D01*
X143540615Y-77643295D01*
X143453261Y-77526739D01*
X143336705Y-77439385D01*
X143200316Y-77388255D01*
X143138134Y-77381500D01*
X141341866Y-77381500D01*
X141279684Y-77388255D01*
X141143295Y-77439385D01*
X141026739Y-77526739D01*
X140939385Y-77643295D01*
X140888255Y-77779684D01*
X140881500Y-77841866D01*
X140881500Y-79155011D01*
X140861498Y-79223132D01*
X140807842Y-79269625D01*
X140755500Y-79281011D01*
X128489106Y-79281011D01*
X128420985Y-79261009D01*
X128400011Y-79244106D01*
X128395405Y-79239500D01*
X128361379Y-79177188D01*
X128358500Y-79150405D01*
X128358500Y-77841866D01*
X128351745Y-77779684D01*
X128300615Y-77643295D01*
X128213261Y-77526739D01*
X128096705Y-77439385D01*
X127960316Y-77388255D01*
X127898134Y-77381500D01*
X126101866Y-77381500D01*
X126039684Y-77388255D01*
X125903295Y-77439385D01*
X125786739Y-77526739D01*
X125699385Y-77643295D01*
X125648255Y-77779684D01*
X125641500Y-77841866D01*
X125641500Y-79638134D01*
X125648255Y-79700316D01*
X125699385Y-79836705D01*
X125786739Y-79953261D01*
X125903295Y-80040615D01*
X125911704Y-80043767D01*
X125911705Y-80043768D01*
X126020451Y-80084535D01*
X126077216Y-80127176D01*
X126101916Y-80193738D01*
X126086709Y-80263087D01*
X126067316Y-80289568D01*
X125940629Y-80422138D01*
X125814743Y-80606680D01*
X125720688Y-80809305D01*
X125660989Y-81024570D01*
X125637251Y-81246695D01*
X125637548Y-81251848D01*
X125637548Y-81251851D01*
X125643011Y-81346590D01*
X125650110Y-81469715D01*
X125651247Y-81474761D01*
X125651248Y-81474767D01*
X125671119Y-81562939D01*
X125699222Y-81687639D01*
X125783266Y-81894616D01*
X125899987Y-82085088D01*
X126046250Y-82253938D01*
X126218126Y-82396632D01*
X126288595Y-82437811D01*
X126291445Y-82439476D01*
X126340169Y-82491114D01*
X126353240Y-82560897D01*
X126326509Y-82626669D01*
X126286055Y-82660027D01*
X126273607Y-82666507D01*
X126269474Y-82669610D01*
X126269471Y-82669612D01*
X126099100Y-82797530D01*
X126094965Y-82800635D01*
X125940629Y-82962138D01*
X125814743Y-83146680D01*
X125775165Y-83231943D01*
X125738695Y-83310513D01*
X125720688Y-83349305D01*
X125660989Y-83564570D01*
X125637251Y-83786695D01*
X125637548Y-83791848D01*
X125637548Y-83791851D01*
X125643011Y-83886590D01*
X125650110Y-84009715D01*
X125651247Y-84014761D01*
X125651248Y-84014767D01*
X125671119Y-84102939D01*
X125699222Y-84227639D01*
X125783266Y-84434616D01*
X125899987Y-84625088D01*
X126046250Y-84793938D01*
X126218126Y-84936632D01*
X126288595Y-84977811D01*
X126291445Y-84979476D01*
X126340169Y-85031114D01*
X126353240Y-85100897D01*
X126326509Y-85166669D01*
X126286055Y-85200027D01*
X126273607Y-85206507D01*
X126269474Y-85209610D01*
X126269471Y-85209612D01*
X126158040Y-85293277D01*
X126094965Y-85340635D01*
X126091393Y-85344373D01*
X125970874Y-85470489D01*
X125940629Y-85502138D01*
X125814743Y-85686680D01*
X125720688Y-85889305D01*
X125660989Y-86104570D01*
X125637251Y-86326695D01*
X125637548Y-86331848D01*
X125637548Y-86331851D01*
X125643011Y-86426590D01*
X125650110Y-86549715D01*
X125651247Y-86554761D01*
X125651248Y-86554767D01*
X125671119Y-86642939D01*
X125699222Y-86767639D01*
X125783266Y-86974616D01*
X125899987Y-87165088D01*
X126046250Y-87333938D01*
X126218126Y-87476632D01*
X126288595Y-87517811D01*
X126291445Y-87519476D01*
X126340169Y-87571114D01*
X126353240Y-87640897D01*
X126326509Y-87706669D01*
X126286055Y-87740027D01*
X126273607Y-87746507D01*
X126269474Y-87749610D01*
X126269471Y-87749612D01*
X126245247Y-87767800D01*
X126094965Y-87880635D01*
X125940629Y-88042138D01*
X125814743Y-88226680D01*
X125799003Y-88260590D01*
X125723973Y-88422229D01*
X125720688Y-88429305D01*
X125660989Y-88644570D01*
X125637251Y-88866695D01*
X124206500Y-88866695D01*
X124206500Y-70832695D01*
X142909251Y-70832695D01*
X142909548Y-70837848D01*
X142909548Y-70837851D01*
X142915011Y-70932590D01*
X142922110Y-71055715D01*
X142923247Y-71060761D01*
X142923248Y-71060767D01*
X142937485Y-71123939D01*
X142971222Y-71273639D01*
X143009461Y-71367811D01*
X143053178Y-71475473D01*
X143055266Y-71480616D01*
X143075180Y-71513113D01*
X143165018Y-71659715D01*
X143171987Y-71671088D01*
X143318250Y-71839938D01*
X143490126Y-71982632D01*
X143683000Y-72095338D01*
X143891692Y-72175030D01*
X143896760Y-72176061D01*
X143896763Y-72176062D01*
X143991862Y-72195410D01*
X144110597Y-72219567D01*
X144115772Y-72219757D01*
X144115774Y-72219757D01*
X144328673Y-72227564D01*
X144328677Y-72227564D01*
X144333837Y-72227753D01*
X144338957Y-72227097D01*
X144338959Y-72227097D01*
X144550288Y-72200025D01*
X144550289Y-72200025D01*
X144555416Y-72199368D01*
X144560366Y-72197883D01*
X144764429Y-72136661D01*
X144764434Y-72136659D01*
X144769384Y-72135174D01*
X144969994Y-72036896D01*
X145151860Y-71907173D01*
X145310096Y-71749489D01*
X145369594Y-71666689D01*
X145440453Y-71568077D01*
X145441640Y-71568930D01*
X145488960Y-71525362D01*
X145558897Y-71513145D01*
X145624338Y-71540678D01*
X145652166Y-71572511D01*
X145709694Y-71666388D01*
X145715777Y-71674699D01*
X145855213Y-71835667D01*
X145862580Y-71842883D01*
X146026434Y-71978916D01*
X146034881Y-71984831D01*
X146218756Y-72092279D01*
X146228042Y-72096729D01*
X146427001Y-72172703D01*
X146436899Y-72175579D01*
X146540250Y-72196606D01*
X146554299Y-72195410D01*
X146558000Y-72185065D01*
X146558000Y-69549102D01*
X146554082Y-69535758D01*
X146539806Y-69533771D01*
X146501324Y-69539660D01*
X146491288Y-69542051D01*
X146288868Y-69608212D01*
X146279359Y-69612209D01*
X146090463Y-69710542D01*
X146081738Y-69716036D01*
X145911433Y-69843905D01*
X145903726Y-69850748D01*
X145756590Y-70004717D01*
X145750109Y-70012722D01*
X145645498Y-70166074D01*
X145590587Y-70211076D01*
X145520062Y-70219247D01*
X145456315Y-70187993D01*
X145435618Y-70163509D01*
X145354822Y-70038617D01*
X145354820Y-70038614D01*
X145352014Y-70034277D01*
X145201670Y-69869051D01*
X145197619Y-69865852D01*
X145197615Y-69865848D01*
X145030414Y-69733800D01*
X145030410Y-69733798D01*
X145026359Y-69730598D01*
X145010029Y-69721583D01*
X144943972Y-69685118D01*
X144830789Y-69622638D01*
X144825920Y-69620914D01*
X144825916Y-69620912D01*
X144625087Y-69549795D01*
X144625083Y-69549794D01*
X144620212Y-69548069D01*
X144615119Y-69547162D01*
X144615116Y-69547161D01*
X144405373Y-69509800D01*
X144405367Y-69509799D01*
X144400284Y-69508894D01*
X144326452Y-69507992D01*
X144182081Y-69506228D01*
X144182079Y-69506228D01*
X144176911Y-69506165D01*
X143956091Y-69539955D01*
X143743756Y-69609357D01*
X143708445Y-69627739D01*
X143578823Y-69695216D01*
X143545607Y-69712507D01*
X143541474Y-69715610D01*
X143541471Y-69715612D01*
X143371100Y-69843530D01*
X143366965Y-69846635D01*
X143363393Y-69850373D01*
X143219940Y-70000488D01*
X143212629Y-70008138D01*
X143086743Y-70192680D01*
X142992688Y-70395305D01*
X142932989Y-70610570D01*
X142909251Y-70832695D01*
X124206500Y-70832695D01*
X124206500Y-66674500D01*
X124226502Y-66606379D01*
X124280158Y-66559886D01*
X124332500Y-66548500D01*
X177165500Y-66548500D01*
X177233621Y-66568502D01*
G37*
%TD.AperFunction*%
%TD*%
M02*
