M48
; DRILL file {KiCad (6.0.5)} date Mon Jun 20 10:47:55 2022
; FORMAT={-:-/ absolute / inch / decimal}
; #@! TF.CreationDate,2022-06-20T10:47:55-05:00
; #@! TF.GenerationSoftware,Kicad,Pcbnew,(6.0.5)
; #@! TF.FileFunction,Plated,1,2,PTH
FMAT,2
INCH
; #@! TA.AperFunction,Plated,PTH,ComponentDrill
T1C0.0394
%
G90
G05
T1
X5.0Y-3.1
X5.0Y-3.2
X5.0Y-3.3
X5.0Y-3.4
X5.0Y-3.5
X5.0Y-3.6
X5.0Y-3.7
X5.6Y-3.1
X5.6Y-3.2
X5.6Y-3.3
X5.6Y-3.4
X5.6Y-3.5
X5.6Y-3.6
X5.6Y-3.7
X5.68Y-2.79
X5.78Y-2.79
X5.84Y-4.08
X5.88Y-2.79
X5.94Y-4.08
X6.0Y-3.1
X6.0Y-3.2
X6.0Y-3.3
X6.0Y-3.4
X6.0Y-3.5
X6.0Y-3.6
X6.0Y-3.7
X6.0Y-3.8
X6.04Y-4.08
X6.14Y-4.08
X6.24Y-4.08
X6.34Y-4.08
X6.44Y-2.789
X6.44Y-4.08
X6.54Y-2.789
X6.54Y-4.08
X6.6Y-3.1
X6.6Y-3.2
X6.6Y-3.3
X6.6Y-3.4
X6.6Y-3.5
X6.6Y-3.6
X6.6Y-3.7
X6.6Y-3.8
X6.64Y-2.789
X6.64Y-4.08
X6.74Y-4.08
X6.85Y-3.3302
X6.85Y-3.4302
X6.85Y-3.7002
X6.85Y-3.8002
T0
M30
