%TF.GenerationSoftware,KiCad,Pcbnew,(6.0.5)*%
%TF.CreationDate,2022-06-20T10:47:57-05:00*%
%TF.ProjectId,hauptic_pcb,68617570-7469-4635-9f70-63622e6b6963,rev?*%
%TF.SameCoordinates,Original*%
%TF.FileFunction,Copper,L2,Bot*%
%TF.FilePolarity,Positive*%
%FSLAX46Y46*%
G04 Gerber Fmt 4.6, Leading zero omitted, Abs format (unit mm)*
G04 Created by KiCad (PCBNEW (6.0.5)) date 2022-06-20 10:47:57*
%MOMM*%
%LPD*%
G01*
G04 APERTURE LIST*
%TA.AperFunction,ComponentPad*%
%ADD10R,1.700000X1.700000*%
%TD*%
%TA.AperFunction,ComponentPad*%
%ADD11O,1.700000X1.700000*%
%TD*%
%TA.AperFunction,Conductor*%
%ADD12C,0.250000*%
%TD*%
G04 APERTURE END LIST*
D10*
%TO.P,Motor_driver,1,Pin_1*%
%TO.N,unconnected-(Motor_driver2-Pad1)*%
X167640000Y-78740000D03*
D11*
%TO.P,Motor_driver,2,Pin_2*%
%TO.N,unconnected-(Motor_driver2-Pad2)*%
X167640000Y-81280000D03*
%TO.P,Motor_driver,3,Pin_3*%
%TO.N,unconnected-(Motor_driver2-Pad3)*%
X167640000Y-83820000D03*
%TO.P,Motor_driver,4,Pin_4*%
%TO.N,Net-(Motor_driver2-Pad4)*%
X167640000Y-86360000D03*
%TO.P,Motor_driver,5,Pin_5*%
%TO.N,Net-(Motor_driver2-Pad5)*%
X167640000Y-88900000D03*
%TO.P,Motor_driver,6,Pin_6*%
%TO.N,Net-(Communication1-Pad1)*%
X167640000Y-91440000D03*
%TO.P,Motor_driver,7,Pin_7*%
%TO.N,Net-(Communication1-Pad4)*%
X167640000Y-93980000D03*
%TO.P,Motor_driver,8,Pin_8*%
%TO.N,Net-(Main_power1-Pad2)*%
X167640000Y-96520000D03*
%TD*%
%TO.P,Motor_driver,8,Pin_8*%
%TO.N,Net-(Logic_board2-Pad7)*%
X152400000Y-96520000D03*
%TO.P,Motor_driver,7,Pin_7*%
%TO.N,Net-(Logic_board1-Pad3)*%
X152400000Y-93980000D03*
%TO.P,Motor_driver,6,Pin_6*%
%TO.N,Net-(Logic_board1-Pad2)*%
X152400000Y-91440000D03*
%TO.P,Motor_driver,5,Pin_5*%
%TO.N,Net-(Logic_board1-Pad1)*%
X152400000Y-88900000D03*
%TO.P,Motor_driver,4,Pin_4*%
%TO.N,unconnected-(Motor_driver1-Pad4)*%
X152400000Y-86360000D03*
%TO.P,Motor_driver,3,Pin_3*%
%TO.N,unconnected-(Motor_driver1-Pad3)*%
X152400000Y-83820000D03*
%TO.P,Motor_driver,2,Pin_2*%
%TO.N,unconnected-(Motor_driver1-Pad2)*%
X152400000Y-81280000D03*
D10*
%TO.P,Motor_driver,1,Pin_1*%
%TO.N,Net-(Sensor1-Pad2)*%
X152400000Y-78740000D03*
%TD*%
%TO.P,Logic_board,1,Pin_1*%
%TO.N,unconnected-(Logic_board2-Pad1)*%
X142240000Y-78740000D03*
D11*
%TO.P,Logic_board,2,Pin_2*%
%TO.N,Net-(Communication1-Pad10)*%
X142240000Y-81280000D03*
%TO.P,Logic_board,3,Pin_3*%
%TO.N,Net-(Communication1-Pad7)*%
X142240000Y-83820000D03*
%TO.P,Logic_board,4,Pin_4*%
%TO.N,unconnected-(Logic_board2-Pad4)*%
X142240000Y-86360000D03*
%TO.P,Logic_board,5,Pin_5*%
%TO.N,Net-(Communication1-Pad6)*%
X142240000Y-88900000D03*
%TO.P,Logic_board,6,Pin_6*%
%TO.N,Net-(Sensor1-Pad3)*%
X142240000Y-91440000D03*
%TO.P,Logic_board,7,Pin_7*%
%TO.N,Net-(Logic_board2-Pad7)*%
X142240000Y-93980000D03*
%TD*%
%TO.P,Power,2,Pin_2*%
%TO.N,Net-(Main_power1-Pad2)*%
X173990000Y-84587000D03*
D10*
%TO.P,Power,1,Pin_1*%
%TO.N,Net-(Communication1-Pad1)*%
X173990000Y-87127000D03*
%TD*%
%TO.P,Sensor,1,Pin_1*%
%TO.N,Net-(Communication1-Pad4)*%
X149352000Y-70866000D03*
D11*
%TO.P,Sensor,2,Pin_2*%
%TO.N,Net-(Sensor1-Pad2)*%
X146812000Y-70866000D03*
%TO.P,Sensor,3,Pin_3*%
%TO.N,Net-(Sensor1-Pad3)*%
X144272000Y-70866000D03*
%TD*%
D10*
%TO.P,Communication,1,Pin_1*%
%TO.N,Net-(Communication1-Pad1)*%
X171196000Y-103632000D03*
D11*
%TO.P,Communication,2,Pin_2*%
X168656000Y-103632000D03*
%TO.P,Communication,3,Pin_3*%
X166116000Y-103632000D03*
%TO.P,Communication,4,Pin_4*%
%TO.N,Net-(Communication1-Pad4)*%
X163576000Y-103632000D03*
%TO.P,Communication,5,Pin_5*%
X161036000Y-103632000D03*
%TO.P,Communication,6,Pin_6*%
%TO.N,Net-(Communication1-Pad6)*%
X158496000Y-103632000D03*
%TO.P,Communication,7,Pin_7*%
%TO.N,Net-(Communication1-Pad7)*%
X155956000Y-103632000D03*
%TO.P,Communication,8,Pin_8*%
X153416000Y-103632000D03*
%TO.P,Communication,9,Pin_9*%
%TO.N,Net-(Communication1-Pad10)*%
X150876000Y-103632000D03*
%TO.P,Communication,10,Pin_10*%
X148336000Y-103632000D03*
%TD*%
D10*
%TO.P,Motor,1,Pin_1*%
%TO.N,Net-(Motor_driver2-Pad5)*%
X173990000Y-96525000D03*
D11*
%TO.P,Motor,2,Pin_2*%
%TO.N,Net-(Motor_driver2-Pad4)*%
X173990000Y-93985000D03*
%TD*%
D10*
%TO.P,Logic_board,1,Pin_1*%
%TO.N,Net-(Logic_board1-Pad1)*%
X127000000Y-78740000D03*
D11*
%TO.P,Logic_board,2,Pin_2*%
%TO.N,Net-(Logic_board1-Pad2)*%
X127000000Y-81280000D03*
%TO.P,Logic_board,3,Pin_3*%
%TO.N,Net-(Logic_board1-Pad3)*%
X127000000Y-83820000D03*
%TO.P,Logic_board,4,Pin_4*%
%TO.N,unconnected-(Logic_board1-Pad4)*%
X127000000Y-86360000D03*
%TO.P,Logic_board,5,Pin_5*%
%TO.N,unconnected-(Logic_board1-Pad5)*%
X127000000Y-88900000D03*
%TO.P,Logic_board,6,Pin_6*%
%TO.N,Net-(Sensor1-Pad2)*%
X127000000Y-91440000D03*
%TO.P,Logic_board,7,Pin_7*%
%TO.N,Net-(Communication1-Pad4)*%
X127000000Y-93980000D03*
%TD*%
%TO.P,Regulator,3,Pin_3*%
%TO.N,Net-(Main_power1-Pad2)*%
X168656000Y-70841000D03*
%TO.P,Regulator,2,Pin_2*%
%TO.N,Net-(Communication1-Pad1)*%
X166116000Y-70841000D03*
D10*
%TO.P,Regulator,1,Pin_1*%
%TO.N,Net-(Communication1-Pad4)*%
X163576000Y-70841000D03*
%TD*%
D12*
%TO.N,Net-(Communication1-Pad7)*%
X155956000Y-105410000D02*
X155956000Y-103632000D01*
X153416000Y-105410000D02*
X155956000Y-105410000D01*
X153416000Y-103632000D02*
X153416000Y-105410000D01*
%TO.N,Net-(Communication1-Pad10)*%
X150876000Y-105410000D02*
X150876000Y-103632000D01*
X148336000Y-105410000D02*
X150876000Y-105410000D01*
X148336000Y-103632000D02*
X148336000Y-105410000D01*
%TO.N,Net-(Communication1-Pad1)*%
X171953000Y-87127000D02*
X167640000Y-91440000D01*
X173990000Y-87127000D02*
X171953000Y-87127000D01*
%TO.N,Net-(Communication1-Pad6)*%
X149743010Y-95758000D02*
X157617010Y-103632000D01*
X141732000Y-95758000D02*
X149743010Y-95758000D01*
X157617010Y-103632000D02*
X158496000Y-103632000D01*
X141065489Y-95091489D02*
X141732000Y-95758000D01*
X141065489Y-90074511D02*
X141065489Y-95091489D01*
X142240000Y-88900000D02*
X141065489Y-90074511D01*
%TO.N,Net-(Communication1-Pad7)*%
X145991511Y-96207511D02*
X153416000Y-103632000D01*
X140615978Y-95277682D02*
X141545806Y-96207510D01*
X141545806Y-96207510D02*
X145991511Y-96207511D01*
X140615978Y-85444022D02*
X140615978Y-95277682D01*
X142240000Y-83820000D02*
X140615978Y-85444022D01*
%TO.N,Net-(Communication1-Pad10)*%
X140166468Y-97240468D02*
X146558000Y-103632000D01*
X140166468Y-83353532D02*
X140166468Y-97240468D01*
X146558000Y-103632000D02*
X148336000Y-103632000D01*
X142240000Y-81280000D02*
X140166468Y-83353532D01*
%TO.N,Net-(Main_power1-Pad2)*%
X175164511Y-88995489D02*
X167640000Y-96520000D01*
X173990000Y-84587000D02*
X175164511Y-85761511D01*
X175164511Y-85761511D02*
X175164511Y-88995489D01*
%TO.N,Net-(Sensor1-Pad3)*%
X144272000Y-70866000D02*
X144272000Y-89408000D01*
X144272000Y-89408000D02*
X142240000Y-91440000D01*
%TD*%
%TA.AperFunction,Conductor*%
%TO.N,Net-(Sensor1-Pad2)*%
G36*
X177233621Y-66568502D02*
G01*
X177280114Y-66622158D01*
X177291500Y-66674500D01*
X177291500Y-106045500D01*
X177271498Y-106113621D01*
X177217842Y-106160114D01*
X177165500Y-106171500D01*
X156373448Y-106171500D01*
X156305327Y-106151498D01*
X156258834Y-106097842D01*
X156248730Y-106027568D01*
X156278224Y-105962988D01*
X156299387Y-105943564D01*
X156309052Y-105936542D01*
X156315589Y-105932099D01*
X156363018Y-105902000D01*
X156368659Y-105895993D01*
X156386446Y-105880312D01*
X156386691Y-105880134D01*
X156386693Y-105880132D01*
X156393107Y-105875472D01*
X156398162Y-105869362D01*
X156428903Y-105832204D01*
X156434134Y-105826270D01*
X156467158Y-105791102D01*
X156467160Y-105791099D01*
X156472586Y-105785321D01*
X156476558Y-105778097D01*
X156489881Y-105758494D01*
X156490080Y-105758254D01*
X156490084Y-105758247D01*
X156495133Y-105752144D01*
X156519047Y-105701324D01*
X156522629Y-105694292D01*
X156549695Y-105645060D01*
X156551665Y-105637385D01*
X156551668Y-105637379D01*
X156551744Y-105637081D01*
X156559776Y-105614772D01*
X156559906Y-105614497D01*
X156559909Y-105614489D01*
X156563283Y-105607318D01*
X156573806Y-105552151D01*
X156575532Y-105544429D01*
X156587529Y-105497707D01*
X156587529Y-105497706D01*
X156589500Y-105490030D01*
X156589500Y-105481793D01*
X156591732Y-105458184D01*
X156591790Y-105457881D01*
X156591790Y-105457877D01*
X156593275Y-105450094D01*
X156589749Y-105394049D01*
X156589500Y-105386138D01*
X156589500Y-104912427D01*
X156609502Y-104844306D01*
X156650618Y-104804550D01*
X156653994Y-104802896D01*
X156835860Y-104673173D01*
X156994096Y-104515489D01*
X157026563Y-104470307D01*
X157124453Y-104334077D01*
X157125776Y-104335028D01*
X157172645Y-104291857D01*
X157242580Y-104279625D01*
X157308026Y-104307144D01*
X157335875Y-104338994D01*
X157395987Y-104437088D01*
X157542250Y-104605938D01*
X157714126Y-104748632D01*
X157907000Y-104861338D01*
X158115692Y-104941030D01*
X158120760Y-104942061D01*
X158120763Y-104942062D01*
X158228017Y-104963883D01*
X158334597Y-104985567D01*
X158339772Y-104985757D01*
X158339774Y-104985757D01*
X158552673Y-104993564D01*
X158552677Y-104993564D01*
X158557837Y-104993753D01*
X158562957Y-104993097D01*
X158562959Y-104993097D01*
X158774288Y-104966025D01*
X158774289Y-104966025D01*
X158779416Y-104965368D01*
X158784366Y-104963883D01*
X158988429Y-104902661D01*
X158988434Y-104902659D01*
X158993384Y-104901174D01*
X159193994Y-104802896D01*
X159375860Y-104673173D01*
X159534096Y-104515489D01*
X159566563Y-104470307D01*
X159664453Y-104334077D01*
X159665776Y-104335028D01*
X159712645Y-104291857D01*
X159782580Y-104279625D01*
X159848026Y-104307144D01*
X159875875Y-104338994D01*
X159935987Y-104437088D01*
X160082250Y-104605938D01*
X160254126Y-104748632D01*
X160447000Y-104861338D01*
X160655692Y-104941030D01*
X160660760Y-104942061D01*
X160660763Y-104942062D01*
X160768017Y-104963883D01*
X160874597Y-104985567D01*
X160879772Y-104985757D01*
X160879774Y-104985757D01*
X161092673Y-104993564D01*
X161092677Y-104993564D01*
X161097837Y-104993753D01*
X161102957Y-104993097D01*
X161102959Y-104993097D01*
X161314288Y-104966025D01*
X161314289Y-104966025D01*
X161319416Y-104965368D01*
X161324366Y-104963883D01*
X161528429Y-104902661D01*
X161528434Y-104902659D01*
X161533384Y-104901174D01*
X161733994Y-104802896D01*
X161915860Y-104673173D01*
X162074096Y-104515489D01*
X162106563Y-104470307D01*
X162204453Y-104334077D01*
X162205776Y-104335028D01*
X162252645Y-104291857D01*
X162322580Y-104279625D01*
X162388026Y-104307144D01*
X162415875Y-104338994D01*
X162475987Y-104437088D01*
X162622250Y-104605938D01*
X162794126Y-104748632D01*
X162987000Y-104861338D01*
X163195692Y-104941030D01*
X163200760Y-104942061D01*
X163200763Y-104942062D01*
X163308017Y-104963883D01*
X163414597Y-104985567D01*
X163419772Y-104985757D01*
X163419774Y-104985757D01*
X163632673Y-104993564D01*
X163632677Y-104993564D01*
X163637837Y-104993753D01*
X163642957Y-104993097D01*
X163642959Y-104993097D01*
X163854288Y-104966025D01*
X163854289Y-104966025D01*
X163859416Y-104965368D01*
X163864366Y-104963883D01*
X164068429Y-104902661D01*
X164068434Y-104902659D01*
X164073384Y-104901174D01*
X164273994Y-104802896D01*
X164455860Y-104673173D01*
X164614096Y-104515489D01*
X164646563Y-104470307D01*
X164744453Y-104334077D01*
X164745776Y-104335028D01*
X164792645Y-104291857D01*
X164862580Y-104279625D01*
X164928026Y-104307144D01*
X164955875Y-104338994D01*
X165015987Y-104437088D01*
X165162250Y-104605938D01*
X165334126Y-104748632D01*
X165527000Y-104861338D01*
X165735692Y-104941030D01*
X165740760Y-104942061D01*
X165740763Y-104942062D01*
X165848017Y-104963883D01*
X165954597Y-104985567D01*
X165959772Y-104985757D01*
X165959774Y-104985757D01*
X166172673Y-104993564D01*
X166172677Y-104993564D01*
X166177837Y-104993753D01*
X166182957Y-104993097D01*
X166182959Y-104993097D01*
X166394288Y-104966025D01*
X166394289Y-104966025D01*
X166399416Y-104965368D01*
X166404366Y-104963883D01*
X166608429Y-104902661D01*
X166608434Y-104902659D01*
X166613384Y-104901174D01*
X166813994Y-104802896D01*
X166995860Y-104673173D01*
X167154096Y-104515489D01*
X167186563Y-104470307D01*
X167284453Y-104334077D01*
X167285776Y-104335028D01*
X167332645Y-104291857D01*
X167402580Y-104279625D01*
X167468026Y-104307144D01*
X167495875Y-104338994D01*
X167555987Y-104437088D01*
X167702250Y-104605938D01*
X167874126Y-104748632D01*
X168067000Y-104861338D01*
X168275692Y-104941030D01*
X168280760Y-104942061D01*
X168280763Y-104942062D01*
X168388017Y-104963883D01*
X168494597Y-104985567D01*
X168499772Y-104985757D01*
X168499774Y-104985757D01*
X168712673Y-104993564D01*
X168712677Y-104993564D01*
X168717837Y-104993753D01*
X168722957Y-104993097D01*
X168722959Y-104993097D01*
X168934288Y-104966025D01*
X168934289Y-104966025D01*
X168939416Y-104965368D01*
X168944366Y-104963883D01*
X169148429Y-104902661D01*
X169148434Y-104902659D01*
X169153384Y-104901174D01*
X169353994Y-104802896D01*
X169535860Y-104673173D01*
X169644091Y-104565319D01*
X169706462Y-104531404D01*
X169777268Y-104536592D01*
X169834030Y-104579238D01*
X169851012Y-104610341D01*
X169895385Y-104728705D01*
X169982739Y-104845261D01*
X170099295Y-104932615D01*
X170235684Y-104983745D01*
X170297866Y-104990500D01*
X172094134Y-104990500D01*
X172156316Y-104983745D01*
X172292705Y-104932615D01*
X172409261Y-104845261D01*
X172496615Y-104728705D01*
X172547745Y-104592316D01*
X172554500Y-104530134D01*
X172554500Y-102733866D01*
X172547745Y-102671684D01*
X172496615Y-102535295D01*
X172409261Y-102418739D01*
X172292705Y-102331385D01*
X172156316Y-102280255D01*
X172094134Y-102273500D01*
X170297866Y-102273500D01*
X170235684Y-102280255D01*
X170099295Y-102331385D01*
X169982739Y-102418739D01*
X169895385Y-102535295D01*
X169892233Y-102543703D01*
X169850919Y-102653907D01*
X169808277Y-102710671D01*
X169741716Y-102735371D01*
X169672367Y-102720163D01*
X169639743Y-102694476D01*
X169589151Y-102638875D01*
X169589142Y-102638866D01*
X169585670Y-102635051D01*
X169581619Y-102631852D01*
X169581615Y-102631848D01*
X169414414Y-102499800D01*
X169414410Y-102499798D01*
X169410359Y-102496598D01*
X169214789Y-102388638D01*
X169209920Y-102386914D01*
X169209916Y-102386912D01*
X169009087Y-102315795D01*
X169009083Y-102315794D01*
X169004212Y-102314069D01*
X168999119Y-102313162D01*
X168999116Y-102313161D01*
X168789373Y-102275800D01*
X168789367Y-102275799D01*
X168784284Y-102274894D01*
X168710452Y-102273992D01*
X168566081Y-102272228D01*
X168566079Y-102272228D01*
X168560911Y-102272165D01*
X168340091Y-102305955D01*
X168127756Y-102375357D01*
X167929607Y-102478507D01*
X167925474Y-102481610D01*
X167925471Y-102481612D01*
X167769555Y-102598677D01*
X167750965Y-102612635D01*
X167711525Y-102653907D01*
X167657280Y-102710671D01*
X167596629Y-102774138D01*
X167489201Y-102931621D01*
X167434293Y-102976621D01*
X167363768Y-102984792D01*
X167300021Y-102953538D01*
X167279324Y-102929054D01*
X167198822Y-102804617D01*
X167198820Y-102804614D01*
X167196014Y-102800277D01*
X167045670Y-102635051D01*
X167041619Y-102631852D01*
X167041615Y-102631848D01*
X166874414Y-102499800D01*
X166874410Y-102499798D01*
X166870359Y-102496598D01*
X166674789Y-102388638D01*
X166669920Y-102386914D01*
X166669916Y-102386912D01*
X166469087Y-102315795D01*
X166469083Y-102315794D01*
X166464212Y-102314069D01*
X166459119Y-102313162D01*
X166459116Y-102313161D01*
X166249373Y-102275800D01*
X166249367Y-102275799D01*
X166244284Y-102274894D01*
X166170452Y-102273992D01*
X166026081Y-102272228D01*
X166026079Y-102272228D01*
X166020911Y-102272165D01*
X165800091Y-102305955D01*
X165587756Y-102375357D01*
X165389607Y-102478507D01*
X165385474Y-102481610D01*
X165385471Y-102481612D01*
X165229555Y-102598677D01*
X165210965Y-102612635D01*
X165171525Y-102653907D01*
X165117280Y-102710671D01*
X165056629Y-102774138D01*
X164949201Y-102931621D01*
X164894293Y-102976621D01*
X164823768Y-102984792D01*
X164760021Y-102953538D01*
X164739324Y-102929054D01*
X164658822Y-102804617D01*
X164658820Y-102804614D01*
X164656014Y-102800277D01*
X164505670Y-102635051D01*
X164501619Y-102631852D01*
X164501615Y-102631848D01*
X164334414Y-102499800D01*
X164334410Y-102499798D01*
X164330359Y-102496598D01*
X164134789Y-102388638D01*
X164129920Y-102386914D01*
X164129916Y-102386912D01*
X163929087Y-102315795D01*
X163929083Y-102315794D01*
X163924212Y-102314069D01*
X163919119Y-102313162D01*
X163919116Y-102313161D01*
X163709373Y-102275800D01*
X163709367Y-102275799D01*
X163704284Y-102274894D01*
X163630452Y-102273992D01*
X163486081Y-102272228D01*
X163486079Y-102272228D01*
X163480911Y-102272165D01*
X163260091Y-102305955D01*
X163047756Y-102375357D01*
X162849607Y-102478507D01*
X162845474Y-102481610D01*
X162845471Y-102481612D01*
X162689555Y-102598677D01*
X162670965Y-102612635D01*
X162631525Y-102653907D01*
X162577280Y-102710671D01*
X162516629Y-102774138D01*
X162409201Y-102931621D01*
X162354293Y-102976621D01*
X162283768Y-102984792D01*
X162220021Y-102953538D01*
X162199324Y-102929054D01*
X162118822Y-102804617D01*
X162118820Y-102804614D01*
X162116014Y-102800277D01*
X161965670Y-102635051D01*
X161961619Y-102631852D01*
X161961615Y-102631848D01*
X161794414Y-102499800D01*
X161794410Y-102499798D01*
X161790359Y-102496598D01*
X161594789Y-102388638D01*
X161589920Y-102386914D01*
X161589916Y-102386912D01*
X161389087Y-102315795D01*
X161389083Y-102315794D01*
X161384212Y-102314069D01*
X161379119Y-102313162D01*
X161379116Y-102313161D01*
X161169373Y-102275800D01*
X161169367Y-102275799D01*
X161164284Y-102274894D01*
X161090452Y-102273992D01*
X160946081Y-102272228D01*
X160946079Y-102272228D01*
X160940911Y-102272165D01*
X160720091Y-102305955D01*
X160507756Y-102375357D01*
X160309607Y-102478507D01*
X160305474Y-102481610D01*
X160305471Y-102481612D01*
X160149555Y-102598677D01*
X160130965Y-102612635D01*
X160091525Y-102653907D01*
X160037280Y-102710671D01*
X159976629Y-102774138D01*
X159869201Y-102931621D01*
X159814293Y-102976621D01*
X159743768Y-102984792D01*
X159680021Y-102953538D01*
X159659324Y-102929054D01*
X159578822Y-102804617D01*
X159578820Y-102804614D01*
X159576014Y-102800277D01*
X159425670Y-102635051D01*
X159421619Y-102631852D01*
X159421615Y-102631848D01*
X159254414Y-102499800D01*
X159254410Y-102499798D01*
X159250359Y-102496598D01*
X159054789Y-102388638D01*
X159049920Y-102386914D01*
X159049916Y-102386912D01*
X158849087Y-102315795D01*
X158849083Y-102315794D01*
X158844212Y-102314069D01*
X158839119Y-102313162D01*
X158839116Y-102313161D01*
X158629373Y-102275800D01*
X158629367Y-102275799D01*
X158624284Y-102274894D01*
X158550452Y-102273992D01*
X158406081Y-102272228D01*
X158406079Y-102272228D01*
X158400911Y-102272165D01*
X158180091Y-102305955D01*
X157967756Y-102375357D01*
X157769607Y-102478507D01*
X157765474Y-102481610D01*
X157765471Y-102481612D01*
X157622760Y-102588763D01*
X157556275Y-102613669D01*
X157486880Y-102598677D01*
X157458012Y-102577098D01*
X152869503Y-97988588D01*
X152835477Y-97926276D01*
X152840542Y-97855461D01*
X152883089Y-97798625D01*
X152903165Y-97786342D01*
X153059927Y-97709545D01*
X153097994Y-97690896D01*
X153279860Y-97561173D01*
X153286555Y-97554502D01*
X153363866Y-97477460D01*
X153438096Y-97403489D01*
X153497594Y-97320689D01*
X153565435Y-97226277D01*
X153568453Y-97222077D01*
X153589063Y-97180377D01*
X153665136Y-97026453D01*
X153665137Y-97026451D01*
X153667430Y-97021811D01*
X153721305Y-96844489D01*
X153730865Y-96813023D01*
X153730865Y-96813021D01*
X153732370Y-96808069D01*
X153761529Y-96586590D01*
X153762563Y-96544283D01*
X153763074Y-96523365D01*
X153763074Y-96523361D01*
X153763156Y-96520000D01*
X153760418Y-96486695D01*
X166277251Y-96486695D01*
X166277548Y-96491848D01*
X166277548Y-96491851D01*
X166283770Y-96599757D01*
X166290110Y-96709715D01*
X166291247Y-96714761D01*
X166291248Y-96714767D01*
X166305927Y-96779900D01*
X166339222Y-96927639D01*
X166423266Y-97134616D01*
X166451308Y-97180377D01*
X166512556Y-97280324D01*
X166539987Y-97325088D01*
X166686250Y-97493938D01*
X166858126Y-97636632D01*
X167051000Y-97749338D01*
X167259692Y-97829030D01*
X167264760Y-97830061D01*
X167264763Y-97830062D01*
X167372017Y-97851883D01*
X167478597Y-97873567D01*
X167483772Y-97873757D01*
X167483774Y-97873757D01*
X167696673Y-97881564D01*
X167696677Y-97881564D01*
X167701837Y-97881753D01*
X167706957Y-97881097D01*
X167706959Y-97881097D01*
X167918288Y-97854025D01*
X167918289Y-97854025D01*
X167923416Y-97853368D01*
X167962544Y-97841629D01*
X168132429Y-97790661D01*
X168132434Y-97790659D01*
X168137384Y-97789174D01*
X168337994Y-97690896D01*
X168519860Y-97561173D01*
X168526555Y-97554502D01*
X168603866Y-97477460D01*
X168678096Y-97403489D01*
X168737594Y-97320689D01*
X168805435Y-97226277D01*
X168808453Y-97222077D01*
X168829063Y-97180377D01*
X168905136Y-97026453D01*
X168905137Y-97026451D01*
X168907430Y-97021811D01*
X168961305Y-96844489D01*
X168970865Y-96813023D01*
X168970865Y-96813021D01*
X168972370Y-96808069D01*
X169001529Y-96586590D01*
X169002563Y-96544283D01*
X169003074Y-96523365D01*
X169003074Y-96523361D01*
X169003156Y-96520000D01*
X168984852Y-96297361D01*
X168956821Y-96185765D01*
X168959625Y-96114823D01*
X168989930Y-96065974D01*
X171104209Y-93951695D01*
X172627251Y-93951695D01*
X172627548Y-93956848D01*
X172627548Y-93956851D01*
X172639524Y-94164547D01*
X172640110Y-94174715D01*
X172641247Y-94179761D01*
X172641248Y-94179767D01*
X172662265Y-94273023D01*
X172689222Y-94392639D01*
X172773266Y-94599616D01*
X172889987Y-94790088D01*
X173036250Y-94958938D01*
X173040230Y-94962242D01*
X173044981Y-94966187D01*
X173084616Y-95025090D01*
X173086113Y-95096071D01*
X173048997Y-95156593D01*
X173008725Y-95181112D01*
X172940387Y-95206731D01*
X172893295Y-95224385D01*
X172776739Y-95311739D01*
X172689385Y-95428295D01*
X172638255Y-95564684D01*
X172631500Y-95626866D01*
X172631500Y-97423134D01*
X172638255Y-97485316D01*
X172689385Y-97621705D01*
X172776739Y-97738261D01*
X172893295Y-97825615D01*
X173029684Y-97876745D01*
X173091866Y-97883500D01*
X174888134Y-97883500D01*
X174950316Y-97876745D01*
X175086705Y-97825615D01*
X175203261Y-97738261D01*
X175290615Y-97621705D01*
X175341745Y-97485316D01*
X175348500Y-97423134D01*
X175348500Y-95626866D01*
X175341745Y-95564684D01*
X175290615Y-95428295D01*
X175203261Y-95311739D01*
X175086705Y-95224385D01*
X175056981Y-95213242D01*
X174968203Y-95179960D01*
X174911439Y-95137318D01*
X174886739Y-95070756D01*
X174901947Y-95001408D01*
X174923493Y-94972727D01*
X174942348Y-94953938D01*
X175028096Y-94868489D01*
X175085222Y-94788990D01*
X175155435Y-94691277D01*
X175158453Y-94687077D01*
X175257430Y-94486811D01*
X175322370Y-94273069D01*
X175351529Y-94051590D01*
X175353156Y-93985000D01*
X175334852Y-93762361D01*
X175280431Y-93545702D01*
X175191354Y-93340840D01*
X175070014Y-93153277D01*
X174919670Y-92988051D01*
X174915619Y-92984852D01*
X174915615Y-92984848D01*
X174748414Y-92852800D01*
X174748410Y-92852798D01*
X174744359Y-92849598D01*
X174735302Y-92844598D01*
X174690296Y-92819754D01*
X174548789Y-92741638D01*
X174543920Y-92739914D01*
X174543916Y-92739912D01*
X174343087Y-92668795D01*
X174343083Y-92668794D01*
X174338212Y-92667069D01*
X174333119Y-92666162D01*
X174333116Y-92666161D01*
X174123373Y-92628800D01*
X174123367Y-92628799D01*
X174118284Y-92627894D01*
X174044452Y-92626992D01*
X173900081Y-92625228D01*
X173900079Y-92625228D01*
X173894911Y-92625165D01*
X173674091Y-92658955D01*
X173461756Y-92728357D01*
X173431443Y-92744137D01*
X173277790Y-92824124D01*
X173263607Y-92831507D01*
X173259474Y-92834610D01*
X173259471Y-92834612D01*
X173091624Y-92960635D01*
X173084965Y-92965635D01*
X172930629Y-93127138D01*
X172804743Y-93311680D01*
X172710688Y-93514305D01*
X172650989Y-93729570D01*
X172627251Y-93951695D01*
X171104209Y-93951695D01*
X175556758Y-89499146D01*
X175565048Y-89491602D01*
X175571529Y-89487489D01*
X175618170Y-89437821D01*
X175620924Y-89434980D01*
X175640646Y-89415258D01*
X175643123Y-89412065D01*
X175650828Y-89403044D01*
X175675670Y-89376589D01*
X175681097Y-89370810D01*
X175684918Y-89363860D01*
X175690857Y-89353057D01*
X175701713Y-89336530D01*
X175709268Y-89326791D01*
X175709269Y-89326789D01*
X175714125Y-89320529D01*
X175731685Y-89279949D01*
X175736902Y-89269301D01*
X175754386Y-89237498D01*
X175754387Y-89237496D01*
X175758206Y-89230549D01*
X175760389Y-89222050D01*
X175763244Y-89210927D01*
X175769648Y-89192223D01*
X175774544Y-89180909D01*
X175774544Y-89180908D01*
X175777692Y-89173634D01*
X175778931Y-89165811D01*
X175778934Y-89165801D01*
X175784610Y-89129965D01*
X175787016Y-89118345D01*
X175796039Y-89083200D01*
X175796039Y-89083199D01*
X175798011Y-89075519D01*
X175798011Y-89055265D01*
X175799562Y-89035554D01*
X175801491Y-89023375D01*
X175802731Y-89015546D01*
X175798570Y-88971527D01*
X175798011Y-88959670D01*
X175798011Y-85840274D01*
X175798538Y-85829090D01*
X175800212Y-85821602D01*
X175798073Y-85753543D01*
X175798011Y-85749586D01*
X175798011Y-85721655D01*
X175797505Y-85717649D01*
X175796572Y-85705803D01*
X175795433Y-85669548D01*
X175795184Y-85661621D01*
X175789533Y-85642169D01*
X175785525Y-85622817D01*
X175783979Y-85610579D01*
X175783978Y-85610577D01*
X175782985Y-85602714D01*
X175766705Y-85561597D01*
X175762870Y-85550396D01*
X175750529Y-85507917D01*
X175746496Y-85501098D01*
X175746494Y-85501093D01*
X175740218Y-85490482D01*
X175731521Y-85472732D01*
X175724063Y-85453894D01*
X175698082Y-85418134D01*
X175691564Y-85408212D01*
X175673089Y-85376971D01*
X175673085Y-85376966D01*
X175669053Y-85370148D01*
X175654729Y-85355824D01*
X175641887Y-85340789D01*
X175629983Y-85324404D01*
X175595917Y-85296222D01*
X175587138Y-85288233D01*
X175341218Y-85042313D01*
X175307192Y-84980001D01*
X175309755Y-84916589D01*
X175320865Y-84880022D01*
X175322370Y-84875069D01*
X175351529Y-84653590D01*
X175352130Y-84628990D01*
X175353074Y-84590365D01*
X175353074Y-84590361D01*
X175353156Y-84587000D01*
X175334852Y-84364361D01*
X175280431Y-84147702D01*
X175191354Y-83942840D01*
X175111885Y-83820000D01*
X175072822Y-83759617D01*
X175072820Y-83759614D01*
X175070014Y-83755277D01*
X174919670Y-83590051D01*
X174915619Y-83586852D01*
X174915615Y-83586848D01*
X174748414Y-83454800D01*
X174748410Y-83454798D01*
X174744359Y-83451598D01*
X174548789Y-83343638D01*
X174543920Y-83341914D01*
X174543916Y-83341912D01*
X174343087Y-83270795D01*
X174343083Y-83270794D01*
X174338212Y-83269069D01*
X174333119Y-83268162D01*
X174333116Y-83268161D01*
X174123373Y-83230800D01*
X174123367Y-83230799D01*
X174118284Y-83229894D01*
X174044452Y-83228992D01*
X173900081Y-83227228D01*
X173900079Y-83227228D01*
X173894911Y-83227165D01*
X173674091Y-83260955D01*
X173461756Y-83330357D01*
X173263607Y-83433507D01*
X173259474Y-83436610D01*
X173259471Y-83436612D01*
X173089100Y-83564530D01*
X173084965Y-83567635D01*
X172930629Y-83729138D01*
X172804743Y-83913680D01*
X172710688Y-84116305D01*
X172650989Y-84331570D01*
X172627251Y-84553695D01*
X172627548Y-84558848D01*
X172627548Y-84558851D01*
X172633011Y-84653590D01*
X172640110Y-84776715D01*
X172641247Y-84781761D01*
X172641248Y-84781767D01*
X172658322Y-84857529D01*
X172689222Y-84994639D01*
X172773266Y-85201616D01*
X172789312Y-85227800D01*
X172852440Y-85330816D01*
X172889987Y-85392088D01*
X173036250Y-85560938D01*
X173040230Y-85564242D01*
X173044981Y-85568187D01*
X173084616Y-85627090D01*
X173086113Y-85698071D01*
X173048997Y-85758593D01*
X173008724Y-85783112D01*
X172893295Y-85826385D01*
X172776739Y-85913739D01*
X172689385Y-86030295D01*
X172638255Y-86166684D01*
X172631500Y-86228866D01*
X172631500Y-86367500D01*
X172611498Y-86435621D01*
X172557842Y-86482114D01*
X172505500Y-86493500D01*
X172031767Y-86493500D01*
X172020584Y-86492973D01*
X172013091Y-86491298D01*
X172005165Y-86491547D01*
X172005164Y-86491547D01*
X171945014Y-86493438D01*
X171941055Y-86493500D01*
X171913144Y-86493500D01*
X171909210Y-86493997D01*
X171909209Y-86493997D01*
X171909144Y-86494005D01*
X171897307Y-86494938D01*
X171865490Y-86495938D01*
X171861029Y-86496078D01*
X171853110Y-86496327D01*
X171835454Y-86501456D01*
X171833658Y-86501978D01*
X171814306Y-86505986D01*
X171807235Y-86506880D01*
X171794203Y-86508526D01*
X171786834Y-86511443D01*
X171786832Y-86511444D01*
X171753097Y-86524800D01*
X171741869Y-86528645D01*
X171699407Y-86540982D01*
X171692584Y-86545017D01*
X171692582Y-86545018D01*
X171681972Y-86551293D01*
X171664224Y-86559988D01*
X171645383Y-86567448D01*
X171638967Y-86572110D01*
X171638966Y-86572110D01*
X171609613Y-86593436D01*
X171599693Y-86599952D01*
X171568465Y-86618420D01*
X171568462Y-86618422D01*
X171561638Y-86622458D01*
X171547317Y-86636779D01*
X171532284Y-86649619D01*
X171515893Y-86661528D01*
X171510842Y-86667634D01*
X171487702Y-86695605D01*
X171479712Y-86704384D01*
X169216877Y-88967219D01*
X169154565Y-89001245D01*
X169083750Y-88996180D01*
X169026914Y-88953633D01*
X169002206Y-88888448D01*
X168984852Y-88677361D01*
X168930431Y-88460702D01*
X168841354Y-88255840D01*
X168720014Y-88068277D01*
X168569670Y-87903051D01*
X168565619Y-87899852D01*
X168565615Y-87899848D01*
X168398414Y-87767800D01*
X168398410Y-87767798D01*
X168394359Y-87764598D01*
X168353053Y-87741796D01*
X168303084Y-87691364D01*
X168288312Y-87621921D01*
X168313428Y-87555516D01*
X168340780Y-87528909D01*
X168384603Y-87497650D01*
X168519860Y-87401173D01*
X168678096Y-87243489D01*
X168737594Y-87160689D01*
X168805435Y-87066277D01*
X168808453Y-87062077D01*
X168907430Y-86861811D01*
X168972370Y-86648069D01*
X169001529Y-86426590D01*
X169003156Y-86360000D01*
X168984852Y-86137361D01*
X168930431Y-85920702D01*
X168841354Y-85715840D01*
X168773258Y-85610579D01*
X168722822Y-85532617D01*
X168722820Y-85532614D01*
X168720014Y-85528277D01*
X168569670Y-85363051D01*
X168565619Y-85359852D01*
X168565615Y-85359848D01*
X168398414Y-85227800D01*
X168398410Y-85227798D01*
X168394359Y-85224598D01*
X168353053Y-85201796D01*
X168303084Y-85151364D01*
X168288312Y-85081921D01*
X168313428Y-85015516D01*
X168340780Y-84988909D01*
X168384603Y-84957650D01*
X168519860Y-84861173D01*
X168678096Y-84703489D01*
X168737594Y-84620689D01*
X168805435Y-84526277D01*
X168808453Y-84522077D01*
X168907430Y-84321811D01*
X168972370Y-84108069D01*
X169001529Y-83886590D01*
X169003156Y-83820000D01*
X168984852Y-83597361D01*
X168930431Y-83380702D01*
X168841354Y-83175840D01*
X168730606Y-83004649D01*
X168722822Y-82992617D01*
X168722820Y-82992614D01*
X168720014Y-82988277D01*
X168569670Y-82823051D01*
X168565619Y-82819852D01*
X168565615Y-82819848D01*
X168398414Y-82687800D01*
X168398410Y-82687798D01*
X168394359Y-82684598D01*
X168353053Y-82661796D01*
X168303084Y-82611364D01*
X168288312Y-82541921D01*
X168313428Y-82475516D01*
X168340780Y-82448909D01*
X168384603Y-82417650D01*
X168519860Y-82321173D01*
X168678096Y-82163489D01*
X168737594Y-82080689D01*
X168805435Y-81986277D01*
X168808453Y-81982077D01*
X168907430Y-81781811D01*
X168972370Y-81568069D01*
X169001529Y-81346590D01*
X169003156Y-81280000D01*
X168984852Y-81057361D01*
X168930431Y-80840702D01*
X168841354Y-80635840D01*
X168720014Y-80448277D01*
X168716532Y-80444450D01*
X168572798Y-80286488D01*
X168541746Y-80222642D01*
X168550141Y-80152143D01*
X168595317Y-80097375D01*
X168621761Y-80083706D01*
X168728297Y-80043767D01*
X168736705Y-80040615D01*
X168853261Y-79953261D01*
X168940615Y-79836705D01*
X168991745Y-79700316D01*
X168998500Y-79638134D01*
X168998500Y-77841866D01*
X168991745Y-77779684D01*
X168940615Y-77643295D01*
X168853261Y-77526739D01*
X168736705Y-77439385D01*
X168600316Y-77388255D01*
X168538134Y-77381500D01*
X166741866Y-77381500D01*
X166679684Y-77388255D01*
X166543295Y-77439385D01*
X166426739Y-77526739D01*
X166339385Y-77643295D01*
X166288255Y-77779684D01*
X166281500Y-77841866D01*
X166281500Y-79638134D01*
X166288255Y-79700316D01*
X166339385Y-79836705D01*
X166426739Y-79953261D01*
X166543295Y-80040615D01*
X166551704Y-80043767D01*
X166551705Y-80043768D01*
X166660451Y-80084535D01*
X166717216Y-80127176D01*
X166741916Y-80193738D01*
X166726709Y-80263087D01*
X166707316Y-80289568D01*
X166580629Y-80422138D01*
X166454743Y-80606680D01*
X166360688Y-80809305D01*
X166300989Y-81024570D01*
X166277251Y-81246695D01*
X166277548Y-81251848D01*
X166277548Y-81251851D01*
X166283011Y-81346590D01*
X166290110Y-81469715D01*
X166291247Y-81474761D01*
X166291248Y-81474767D01*
X166311119Y-81562939D01*
X166339222Y-81687639D01*
X166423266Y-81894616D01*
X166450923Y-81939748D01*
X166520161Y-82052734D01*
X166539987Y-82085088D01*
X166686250Y-82253938D01*
X166858126Y-82396632D01*
X166928595Y-82437811D01*
X166931445Y-82439476D01*
X166980169Y-82491114D01*
X166993240Y-82560897D01*
X166966509Y-82626669D01*
X166926055Y-82660027D01*
X166913607Y-82666507D01*
X166909474Y-82669610D01*
X166909471Y-82669612D01*
X166885247Y-82687800D01*
X166734965Y-82800635D01*
X166580629Y-82962138D01*
X166454743Y-83146680D01*
X166439003Y-83180590D01*
X166363319Y-83343638D01*
X166360688Y-83349305D01*
X166300989Y-83564570D01*
X166277251Y-83786695D01*
X166277548Y-83791848D01*
X166277548Y-83791851D01*
X166283011Y-83886590D01*
X166290110Y-84009715D01*
X166291247Y-84014761D01*
X166291248Y-84014767D01*
X166311119Y-84102939D01*
X166339222Y-84227639D01*
X166423266Y-84434616D01*
X166450923Y-84479748D01*
X166520161Y-84592734D01*
X166539987Y-84625088D01*
X166686250Y-84793938D01*
X166858126Y-84936632D01*
X166928595Y-84977811D01*
X166931445Y-84979476D01*
X166980169Y-85031114D01*
X166993240Y-85100897D01*
X166966509Y-85166669D01*
X166926055Y-85200027D01*
X166923003Y-85201616D01*
X166913607Y-85206507D01*
X166909474Y-85209610D01*
X166909471Y-85209612D01*
X166739100Y-85337530D01*
X166734965Y-85340635D01*
X166580629Y-85502138D01*
X166577715Y-85506410D01*
X166577714Y-85506411D01*
X166535573Y-85568187D01*
X166454743Y-85686680D01*
X166425543Y-85749586D01*
X166392115Y-85821602D01*
X166360688Y-85889305D01*
X166300989Y-86104570D01*
X166277251Y-86326695D01*
X166277548Y-86331848D01*
X166277548Y-86331851D01*
X166287517Y-86504744D01*
X166290110Y-86549715D01*
X166291247Y-86554761D01*
X166291248Y-86554767D01*
X166307768Y-86628069D01*
X166339222Y-86767639D01*
X166423266Y-86974616D01*
X166450923Y-87019748D01*
X166520161Y-87132734D01*
X166539987Y-87165088D01*
X166686250Y-87333938D01*
X166858126Y-87476632D01*
X166928595Y-87517811D01*
X166931445Y-87519476D01*
X166980169Y-87571114D01*
X166993240Y-87640897D01*
X166966509Y-87706669D01*
X166926055Y-87740027D01*
X166913607Y-87746507D01*
X166909474Y-87749610D01*
X166909471Y-87749612D01*
X166739100Y-87877530D01*
X166734965Y-87880635D01*
X166580629Y-88042138D01*
X166454743Y-88226680D01*
X166439003Y-88260590D01*
X166363973Y-88422229D01*
X166360688Y-88429305D01*
X166300989Y-88644570D01*
X166277251Y-88866695D01*
X166277548Y-88871848D01*
X166277548Y-88871851D01*
X166286285Y-89023375D01*
X166290110Y-89089715D01*
X166291247Y-89094761D01*
X166291248Y-89094767D01*
X166313392Y-89193023D01*
X166339222Y-89307639D01*
X166396243Y-89448065D01*
X166415590Y-89495711D01*
X166423266Y-89514616D01*
X166539987Y-89705088D01*
X166686250Y-89873938D01*
X166858126Y-90016632D01*
X166928595Y-90057811D01*
X166931445Y-90059476D01*
X166980169Y-90111114D01*
X166993240Y-90180897D01*
X166966509Y-90246669D01*
X166926055Y-90280027D01*
X166913607Y-90286507D01*
X166909474Y-90289610D01*
X166909471Y-90289612D01*
X166885247Y-90307800D01*
X166734965Y-90420635D01*
X166580629Y-90582138D01*
X166577715Y-90586410D01*
X166577714Y-90586411D01*
X166565404Y-90604457D01*
X166454743Y-90766680D01*
X166360688Y-90969305D01*
X166300989Y-91184570D01*
X166277251Y-91406695D01*
X166277548Y-91411848D01*
X166277548Y-91411851D01*
X166283011Y-91506590D01*
X166290110Y-91629715D01*
X166291247Y-91634761D01*
X166291248Y-91634767D01*
X166304597Y-91694000D01*
X166339222Y-91847639D01*
X166423266Y-92054616D01*
X166539987Y-92245088D01*
X166686250Y-92413938D01*
X166858126Y-92556632D01*
X166928595Y-92597811D01*
X166931445Y-92599476D01*
X166980169Y-92651114D01*
X166993240Y-92720897D01*
X166966509Y-92786669D01*
X166926055Y-92820027D01*
X166913607Y-92826507D01*
X166909474Y-92829610D01*
X166909471Y-92829612D01*
X166739100Y-92957530D01*
X166734965Y-92960635D01*
X166580629Y-93122138D01*
X166454743Y-93306680D01*
X166360688Y-93509305D01*
X166300989Y-93724570D01*
X166277251Y-93946695D01*
X166277548Y-93951848D01*
X166277548Y-93951851D01*
X166283011Y-94046590D01*
X166290110Y-94169715D01*
X166291247Y-94174761D01*
X166291248Y-94174767D01*
X166292375Y-94179767D01*
X166339222Y-94387639D01*
X166423266Y-94594616D01*
X166539987Y-94785088D01*
X166686250Y-94953938D01*
X166858126Y-95096632D01*
X166904860Y-95123941D01*
X166931445Y-95139476D01*
X166980169Y-95191114D01*
X166993240Y-95260897D01*
X166966509Y-95326669D01*
X166926055Y-95360027D01*
X166913607Y-95366507D01*
X166909474Y-95369610D01*
X166909471Y-95369612D01*
X166739100Y-95497530D01*
X166734965Y-95500635D01*
X166580629Y-95662138D01*
X166454743Y-95846680D01*
X166360688Y-96049305D01*
X166300989Y-96264570D01*
X166277251Y-96486695D01*
X153760418Y-96486695D01*
X153744852Y-96297361D01*
X153690431Y-96080702D01*
X153601354Y-95875840D01*
X153480014Y-95688277D01*
X153329670Y-95523051D01*
X153325619Y-95519852D01*
X153325615Y-95519848D01*
X153158414Y-95387800D01*
X153158410Y-95387798D01*
X153154359Y-95384598D01*
X153113053Y-95361796D01*
X153063084Y-95311364D01*
X153048312Y-95241921D01*
X153073428Y-95175516D01*
X153100780Y-95148909D01*
X153167060Y-95101632D01*
X153279860Y-95021173D01*
X153335039Y-94966187D01*
X153434435Y-94867137D01*
X153438096Y-94863489D01*
X153497594Y-94780689D01*
X153565435Y-94686277D01*
X153568453Y-94682077D01*
X153611574Y-94594829D01*
X153665136Y-94486453D01*
X153665137Y-94486451D01*
X153667430Y-94481811D01*
X153732370Y-94268069D01*
X153761529Y-94046590D01*
X153763156Y-93980000D01*
X153744852Y-93757361D01*
X153690431Y-93540702D01*
X153601354Y-93335840D01*
X153561906Y-93274862D01*
X153482822Y-93152617D01*
X153482820Y-93152614D01*
X153480014Y-93148277D01*
X153329670Y-92983051D01*
X153325619Y-92979852D01*
X153325615Y-92979848D01*
X153158414Y-92847800D01*
X153158410Y-92847798D01*
X153154359Y-92844598D01*
X153113053Y-92821796D01*
X153063084Y-92771364D01*
X153048312Y-92701921D01*
X153073428Y-92635516D01*
X153100780Y-92608909D01*
X153144603Y-92577650D01*
X153279860Y-92481173D01*
X153438096Y-92323489D01*
X153497594Y-92240689D01*
X153565435Y-92146277D01*
X153568453Y-92142077D01*
X153667430Y-91941811D01*
X153732370Y-91728069D01*
X153761529Y-91506590D01*
X153763156Y-91440000D01*
X153744852Y-91217361D01*
X153690431Y-91000702D01*
X153601354Y-90795840D01*
X153480014Y-90608277D01*
X153329670Y-90443051D01*
X153325619Y-90439852D01*
X153325615Y-90439848D01*
X153158414Y-90307800D01*
X153158410Y-90307798D01*
X153154359Y-90304598D01*
X153113053Y-90281796D01*
X153063084Y-90231364D01*
X153048312Y-90161921D01*
X153073428Y-90095516D01*
X153100780Y-90068909D01*
X153144603Y-90037650D01*
X153279860Y-89941173D01*
X153309485Y-89911652D01*
X153396860Y-89824581D01*
X153438096Y-89783489D01*
X153497594Y-89700689D01*
X153565435Y-89606277D01*
X153568453Y-89602077D01*
X153580199Y-89578312D01*
X153665136Y-89406453D01*
X153665137Y-89406451D01*
X153667430Y-89401811D01*
X153732370Y-89188069D01*
X153761529Y-88966590D01*
X153763156Y-88900000D01*
X153744852Y-88677361D01*
X153690431Y-88460702D01*
X153601354Y-88255840D01*
X153480014Y-88068277D01*
X153329670Y-87903051D01*
X153325619Y-87899852D01*
X153325615Y-87899848D01*
X153158414Y-87767800D01*
X153158410Y-87767798D01*
X153154359Y-87764598D01*
X153113053Y-87741796D01*
X153063084Y-87691364D01*
X153048312Y-87621921D01*
X153073428Y-87555516D01*
X153100780Y-87528909D01*
X153144603Y-87497650D01*
X153279860Y-87401173D01*
X153438096Y-87243489D01*
X153497594Y-87160689D01*
X153565435Y-87066277D01*
X153568453Y-87062077D01*
X153667430Y-86861811D01*
X153732370Y-86648069D01*
X153761529Y-86426590D01*
X153763156Y-86360000D01*
X153744852Y-86137361D01*
X153690431Y-85920702D01*
X153601354Y-85715840D01*
X153533258Y-85610579D01*
X153482822Y-85532617D01*
X153482820Y-85532614D01*
X153480014Y-85528277D01*
X153329670Y-85363051D01*
X153325619Y-85359852D01*
X153325615Y-85359848D01*
X153158414Y-85227800D01*
X153158410Y-85227798D01*
X153154359Y-85224598D01*
X153113053Y-85201796D01*
X153063084Y-85151364D01*
X153048312Y-85081921D01*
X153073428Y-85015516D01*
X153100780Y-84988909D01*
X153144603Y-84957650D01*
X153279860Y-84861173D01*
X153438096Y-84703489D01*
X153497594Y-84620689D01*
X153565435Y-84526277D01*
X153568453Y-84522077D01*
X153667430Y-84321811D01*
X153732370Y-84108069D01*
X153761529Y-83886590D01*
X153763156Y-83820000D01*
X153744852Y-83597361D01*
X153690431Y-83380702D01*
X153601354Y-83175840D01*
X153490606Y-83004649D01*
X153482822Y-82992617D01*
X153482820Y-82992614D01*
X153480014Y-82988277D01*
X153329670Y-82823051D01*
X153325619Y-82819852D01*
X153325615Y-82819848D01*
X153158414Y-82687800D01*
X153158410Y-82687798D01*
X153154359Y-82684598D01*
X153113053Y-82661796D01*
X153063084Y-82611364D01*
X153048312Y-82541921D01*
X153073428Y-82475516D01*
X153100780Y-82448909D01*
X153144603Y-82417650D01*
X153279860Y-82321173D01*
X153438096Y-82163489D01*
X153497594Y-82080689D01*
X153565435Y-81986277D01*
X153568453Y-81982077D01*
X153667430Y-81781811D01*
X153732370Y-81568069D01*
X153761529Y-81346590D01*
X153763156Y-81280000D01*
X153744852Y-81057361D01*
X153690431Y-80840702D01*
X153601354Y-80635840D01*
X153480014Y-80448277D01*
X153476540Y-80444459D01*
X153476533Y-80444450D01*
X153332435Y-80286088D01*
X153301383Y-80222242D01*
X153309779Y-80151744D01*
X153354956Y-80096976D01*
X153381400Y-80083307D01*
X153488052Y-80043325D01*
X153503649Y-80034786D01*
X153605724Y-79958285D01*
X153618285Y-79945724D01*
X153694786Y-79843649D01*
X153703324Y-79828054D01*
X153748478Y-79707606D01*
X153752105Y-79692351D01*
X153757631Y-79641486D01*
X153758000Y-79634672D01*
X153758000Y-79012115D01*
X153753525Y-78996876D01*
X153752135Y-78995671D01*
X153744452Y-78994000D01*
X151060116Y-78994000D01*
X151044877Y-78998475D01*
X151043672Y-78999865D01*
X151042001Y-79007548D01*
X151042001Y-79634669D01*
X151042371Y-79641490D01*
X151047895Y-79692352D01*
X151051521Y-79707604D01*
X151096676Y-79828054D01*
X151105214Y-79843649D01*
X151181715Y-79945724D01*
X151194276Y-79958285D01*
X151296351Y-80034786D01*
X151311946Y-80043324D01*
X151420827Y-80084142D01*
X151477591Y-80126784D01*
X151502291Y-80193345D01*
X151487083Y-80262694D01*
X151467691Y-80289175D01*
X151344200Y-80418401D01*
X151340629Y-80422138D01*
X151214743Y-80606680D01*
X151120688Y-80809305D01*
X151060989Y-81024570D01*
X151037251Y-81246695D01*
X151037548Y-81251848D01*
X151037548Y-81251851D01*
X151043011Y-81346590D01*
X151050110Y-81469715D01*
X151051247Y-81474761D01*
X151051248Y-81474767D01*
X151071119Y-81562939D01*
X151099222Y-81687639D01*
X151183266Y-81894616D01*
X151210923Y-81939748D01*
X151280161Y-82052734D01*
X151299987Y-82085088D01*
X151446250Y-82253938D01*
X151618126Y-82396632D01*
X151688595Y-82437811D01*
X151691445Y-82439476D01*
X151740169Y-82491114D01*
X151753240Y-82560897D01*
X151726509Y-82626669D01*
X151686055Y-82660027D01*
X151673607Y-82666507D01*
X151669474Y-82669610D01*
X151669471Y-82669612D01*
X151645247Y-82687800D01*
X151494965Y-82800635D01*
X151340629Y-82962138D01*
X151214743Y-83146680D01*
X151199003Y-83180590D01*
X151123319Y-83343638D01*
X151120688Y-83349305D01*
X151060989Y-83564570D01*
X151037251Y-83786695D01*
X151037548Y-83791848D01*
X151037548Y-83791851D01*
X151043011Y-83886590D01*
X151050110Y-84009715D01*
X151051247Y-84014761D01*
X151051248Y-84014767D01*
X151071119Y-84102939D01*
X151099222Y-84227639D01*
X151183266Y-84434616D01*
X151210923Y-84479748D01*
X151280161Y-84592734D01*
X151299987Y-84625088D01*
X151446250Y-84793938D01*
X151618126Y-84936632D01*
X151688595Y-84977811D01*
X151691445Y-84979476D01*
X151740169Y-85031114D01*
X151753240Y-85100897D01*
X151726509Y-85166669D01*
X151686055Y-85200027D01*
X151683003Y-85201616D01*
X151673607Y-85206507D01*
X151669474Y-85209610D01*
X151669471Y-85209612D01*
X151499100Y-85337530D01*
X151494965Y-85340635D01*
X151340629Y-85502138D01*
X151337715Y-85506410D01*
X151337714Y-85506411D01*
X151295573Y-85568187D01*
X151214743Y-85686680D01*
X151185543Y-85749586D01*
X151152115Y-85821602D01*
X151120688Y-85889305D01*
X151060989Y-86104570D01*
X151037251Y-86326695D01*
X151037548Y-86331848D01*
X151037548Y-86331851D01*
X151047517Y-86504744D01*
X151050110Y-86549715D01*
X151051247Y-86554761D01*
X151051248Y-86554767D01*
X151067768Y-86628069D01*
X151099222Y-86767639D01*
X151183266Y-86974616D01*
X151210923Y-87019748D01*
X151280161Y-87132734D01*
X151299987Y-87165088D01*
X151446250Y-87333938D01*
X151618126Y-87476632D01*
X151688595Y-87517811D01*
X151691445Y-87519476D01*
X151740169Y-87571114D01*
X151753240Y-87640897D01*
X151726509Y-87706669D01*
X151686055Y-87740027D01*
X151673607Y-87746507D01*
X151669474Y-87749610D01*
X151669471Y-87749612D01*
X151499100Y-87877530D01*
X151494965Y-87880635D01*
X151340629Y-88042138D01*
X151214743Y-88226680D01*
X151199003Y-88260590D01*
X151123973Y-88422229D01*
X151120688Y-88429305D01*
X151060989Y-88644570D01*
X151037251Y-88866695D01*
X151037548Y-88871848D01*
X151037548Y-88871851D01*
X151046285Y-89023375D01*
X151050110Y-89089715D01*
X151051247Y-89094761D01*
X151051248Y-89094767D01*
X151073392Y-89193023D01*
X151099222Y-89307639D01*
X151156243Y-89448065D01*
X151175590Y-89495711D01*
X151183266Y-89514616D01*
X151299987Y-89705088D01*
X151446250Y-89873938D01*
X151618126Y-90016632D01*
X151688595Y-90057811D01*
X151691445Y-90059476D01*
X151740169Y-90111114D01*
X151753240Y-90180897D01*
X151726509Y-90246669D01*
X151686055Y-90280027D01*
X151673607Y-90286507D01*
X151669474Y-90289610D01*
X151669471Y-90289612D01*
X151645247Y-90307800D01*
X151494965Y-90420635D01*
X151340629Y-90582138D01*
X151337715Y-90586410D01*
X151337714Y-90586411D01*
X151325404Y-90604457D01*
X151214743Y-90766680D01*
X151120688Y-90969305D01*
X151060989Y-91184570D01*
X151037251Y-91406695D01*
X151037548Y-91411848D01*
X151037548Y-91411851D01*
X151043011Y-91506590D01*
X151050110Y-91629715D01*
X151051247Y-91634761D01*
X151051248Y-91634767D01*
X151064597Y-91694000D01*
X151099222Y-91847639D01*
X151183266Y-92054616D01*
X151299987Y-92245088D01*
X151446250Y-92413938D01*
X151618126Y-92556632D01*
X151688595Y-92597811D01*
X151691445Y-92599476D01*
X151740169Y-92651114D01*
X151753240Y-92720897D01*
X151726509Y-92786669D01*
X151686055Y-92820027D01*
X151673607Y-92826507D01*
X151669474Y-92829610D01*
X151669471Y-92829612D01*
X151499100Y-92957530D01*
X151494965Y-92960635D01*
X151340629Y-93122138D01*
X151214743Y-93306680D01*
X151120688Y-93509305D01*
X151060989Y-93724570D01*
X151037251Y-93946695D01*
X151037548Y-93951848D01*
X151037548Y-93951851D01*
X151043011Y-94046590D01*
X151050110Y-94169715D01*
X151051247Y-94174761D01*
X151051248Y-94174767D01*
X151052375Y-94179767D01*
X151099222Y-94387639D01*
X151183266Y-94594616D01*
X151299987Y-94785088D01*
X151446250Y-94953938D01*
X151618126Y-95096632D01*
X151664860Y-95123941D01*
X151691445Y-95139476D01*
X151740169Y-95191114D01*
X151753240Y-95260897D01*
X151726509Y-95326669D01*
X151686055Y-95360027D01*
X151673607Y-95366507D01*
X151669474Y-95369610D01*
X151669471Y-95369612D01*
X151499100Y-95497530D01*
X151494965Y-95500635D01*
X151340629Y-95662138D01*
X151214743Y-95846680D01*
X151136209Y-96015869D01*
X151089386Y-96069234D01*
X151021143Y-96088815D01*
X150953147Y-96068392D01*
X150932827Y-96051912D01*
X150246662Y-95365747D01*
X150239122Y-95357461D01*
X150235010Y-95350982D01*
X150224484Y-95341097D01*
X150185359Y-95304357D01*
X150182517Y-95301602D01*
X150162780Y-95281865D01*
X150159583Y-95279385D01*
X150150561Y-95271680D01*
X150128178Y-95250661D01*
X150118331Y-95241414D01*
X150111385Y-95237595D01*
X150111382Y-95237593D01*
X150100576Y-95231652D01*
X150084057Y-95220801D01*
X150083593Y-95220441D01*
X150068051Y-95208386D01*
X150060782Y-95205241D01*
X150060778Y-95205238D01*
X150027473Y-95190826D01*
X150016823Y-95185609D01*
X149978070Y-95164305D01*
X149958447Y-95159267D01*
X149939744Y-95152863D01*
X149928430Y-95147967D01*
X149928429Y-95147967D01*
X149921155Y-95144819D01*
X149913332Y-95143580D01*
X149913322Y-95143577D01*
X149877486Y-95137901D01*
X149865866Y-95135495D01*
X149830721Y-95126472D01*
X149830720Y-95126472D01*
X149823040Y-95124500D01*
X149802786Y-95124500D01*
X149783075Y-95122949D01*
X149770896Y-95121020D01*
X149763067Y-95119780D01*
X149755175Y-95120526D01*
X149719049Y-95123941D01*
X149707191Y-95124500D01*
X143321116Y-95124500D01*
X143252995Y-95104498D01*
X143206502Y-95050842D01*
X143196398Y-94980568D01*
X143225892Y-94915988D01*
X143232176Y-94909249D01*
X143274435Y-94867137D01*
X143278096Y-94863489D01*
X143337594Y-94780689D01*
X143405435Y-94686277D01*
X143408453Y-94682077D01*
X143451574Y-94594829D01*
X143505136Y-94486453D01*
X143505137Y-94486451D01*
X143507430Y-94481811D01*
X143572370Y-94268069D01*
X143601529Y-94046590D01*
X143603156Y-93980000D01*
X143584852Y-93757361D01*
X143530431Y-93540702D01*
X143441354Y-93335840D01*
X143401906Y-93274862D01*
X143322822Y-93152617D01*
X143322820Y-93152614D01*
X143320014Y-93148277D01*
X143169670Y-92983051D01*
X143165619Y-92979852D01*
X143165615Y-92979848D01*
X142998414Y-92847800D01*
X142998410Y-92847798D01*
X142994359Y-92844598D01*
X142953053Y-92821796D01*
X142903084Y-92771364D01*
X142888312Y-92701921D01*
X142913428Y-92635516D01*
X142940780Y-92608909D01*
X142984603Y-92577650D01*
X143119860Y-92481173D01*
X143278096Y-92323489D01*
X143337594Y-92240689D01*
X143405435Y-92146277D01*
X143408453Y-92142077D01*
X143507430Y-91941811D01*
X143572370Y-91728069D01*
X143601529Y-91506590D01*
X143603156Y-91440000D01*
X143584852Y-91217361D01*
X143556821Y-91105765D01*
X143559625Y-91034823D01*
X143589930Y-90985974D01*
X144664253Y-89911652D01*
X144672539Y-89904112D01*
X144679018Y-89900000D01*
X144725644Y-89850348D01*
X144728398Y-89847507D01*
X144748135Y-89827770D01*
X144750615Y-89824573D01*
X144758320Y-89815551D01*
X144783159Y-89789100D01*
X144788586Y-89783321D01*
X144792405Y-89776375D01*
X144792407Y-89776372D01*
X144798348Y-89765566D01*
X144809199Y-89749047D01*
X144816758Y-89739301D01*
X144821614Y-89733041D01*
X144824759Y-89725772D01*
X144824762Y-89725768D01*
X144839174Y-89692463D01*
X144844391Y-89681813D01*
X144865695Y-89643060D01*
X144870733Y-89623437D01*
X144877137Y-89604734D01*
X144882033Y-89593420D01*
X144882033Y-89593419D01*
X144885181Y-89586145D01*
X144886420Y-89578322D01*
X144886423Y-89578312D01*
X144892099Y-89542476D01*
X144894505Y-89530856D01*
X144903528Y-89495711D01*
X144903528Y-89495710D01*
X144905500Y-89488030D01*
X144905500Y-89467776D01*
X144907051Y-89448065D01*
X144908980Y-89435886D01*
X144910220Y-89428057D01*
X144906059Y-89384038D01*
X144905500Y-89372181D01*
X144905500Y-78467885D01*
X151042000Y-78467885D01*
X151046475Y-78483124D01*
X151047865Y-78484329D01*
X151055548Y-78486000D01*
X152127885Y-78486000D01*
X152143124Y-78481525D01*
X152144329Y-78480135D01*
X152146000Y-78472452D01*
X152146000Y-78467885D01*
X152654000Y-78467885D01*
X152658475Y-78483124D01*
X152659865Y-78484329D01*
X152667548Y-78486000D01*
X153739884Y-78486000D01*
X153755123Y-78481525D01*
X153756328Y-78480135D01*
X153757999Y-78472452D01*
X153757999Y-77845331D01*
X153757629Y-77838510D01*
X153752105Y-77787648D01*
X153748479Y-77772396D01*
X153703324Y-77651946D01*
X153694786Y-77636351D01*
X153618285Y-77534276D01*
X153605724Y-77521715D01*
X153503649Y-77445214D01*
X153488054Y-77436676D01*
X153367606Y-77391522D01*
X153352351Y-77387895D01*
X153301486Y-77382369D01*
X153294672Y-77382000D01*
X152672115Y-77382000D01*
X152656876Y-77386475D01*
X152655671Y-77387865D01*
X152654000Y-77395548D01*
X152654000Y-78467885D01*
X152146000Y-78467885D01*
X152146000Y-77400116D01*
X152141525Y-77384877D01*
X152140135Y-77383672D01*
X152132452Y-77382001D01*
X151505331Y-77382001D01*
X151498510Y-77382371D01*
X151447648Y-77387895D01*
X151432396Y-77391521D01*
X151311946Y-77436676D01*
X151296351Y-77445214D01*
X151194276Y-77521715D01*
X151181715Y-77534276D01*
X151105214Y-77636351D01*
X151096676Y-77651946D01*
X151051522Y-77772394D01*
X151047895Y-77787649D01*
X151042369Y-77838514D01*
X151042000Y-77845328D01*
X151042000Y-78467885D01*
X144905500Y-78467885D01*
X144905500Y-72146427D01*
X144925502Y-72078306D01*
X144966618Y-72038550D01*
X144969994Y-72036896D01*
X145151860Y-71907173D01*
X145310096Y-71749489D01*
X145369594Y-71666689D01*
X145440453Y-71568077D01*
X145441640Y-71568930D01*
X145488960Y-71525362D01*
X145558897Y-71513145D01*
X145624338Y-71540678D01*
X145652166Y-71572511D01*
X145709694Y-71666388D01*
X145715777Y-71674699D01*
X145855213Y-71835667D01*
X145862580Y-71842883D01*
X146026434Y-71978916D01*
X146034881Y-71984831D01*
X146218756Y-72092279D01*
X146228042Y-72096729D01*
X146427001Y-72172703D01*
X146436899Y-72175579D01*
X146540250Y-72196606D01*
X146554299Y-72195410D01*
X146558000Y-72185065D01*
X146558000Y-72184517D01*
X147066000Y-72184517D01*
X147070064Y-72198359D01*
X147083478Y-72200393D01*
X147090184Y-72199534D01*
X147100262Y-72197392D01*
X147304255Y-72136191D01*
X147313842Y-72132433D01*
X147505095Y-72038739D01*
X147513945Y-72033464D01*
X147687328Y-71909792D01*
X147695193Y-71903145D01*
X147799897Y-71798805D01*
X147862268Y-71764889D01*
X147933075Y-71770077D01*
X147989837Y-71812723D01*
X148006819Y-71843826D01*
X148021195Y-71882173D01*
X148051385Y-71962705D01*
X148138739Y-72079261D01*
X148255295Y-72166615D01*
X148391684Y-72217745D01*
X148453866Y-72224500D01*
X150250134Y-72224500D01*
X150312316Y-72217745D01*
X150448705Y-72166615D01*
X150565261Y-72079261D01*
X150652615Y-71962705D01*
X150703745Y-71826316D01*
X150710500Y-71764134D01*
X150710500Y-71739134D01*
X162217500Y-71739134D01*
X162224255Y-71801316D01*
X162275385Y-71937705D01*
X162362739Y-72054261D01*
X162479295Y-72141615D01*
X162615684Y-72192745D01*
X162677866Y-72199500D01*
X164474134Y-72199500D01*
X164536316Y-72192745D01*
X164672705Y-72141615D01*
X164789261Y-72054261D01*
X164876615Y-71937705D01*
X164897433Y-71882173D01*
X164920598Y-71820382D01*
X164963240Y-71763618D01*
X165029802Y-71738918D01*
X165099150Y-71754126D01*
X165133817Y-71782114D01*
X165162250Y-71814938D01*
X165334126Y-71957632D01*
X165527000Y-72070338D01*
X165735692Y-72150030D01*
X165740760Y-72151061D01*
X165740763Y-72151062D01*
X165817209Y-72166615D01*
X165954597Y-72194567D01*
X165959772Y-72194757D01*
X165959774Y-72194757D01*
X166172673Y-72202564D01*
X166172677Y-72202564D01*
X166177837Y-72202753D01*
X166182957Y-72202097D01*
X166182959Y-72202097D01*
X166394288Y-72175025D01*
X166394289Y-72175025D01*
X166399416Y-72174368D01*
X166425258Y-72166615D01*
X166608429Y-72111661D01*
X166608434Y-72111659D01*
X166613384Y-72110174D01*
X166813994Y-72011896D01*
X166995860Y-71882173D01*
X167000012Y-71878036D01*
X167110903Y-71767531D01*
X167154096Y-71724489D01*
X167189665Y-71674990D01*
X167284453Y-71543077D01*
X167285776Y-71544028D01*
X167332645Y-71500857D01*
X167402580Y-71488625D01*
X167468026Y-71516144D01*
X167495875Y-71547994D01*
X167555987Y-71646088D01*
X167702250Y-71814938D01*
X167874126Y-71957632D01*
X168067000Y-72070338D01*
X168275692Y-72150030D01*
X168280760Y-72151061D01*
X168280763Y-72151062D01*
X168357209Y-72166615D01*
X168494597Y-72194567D01*
X168499772Y-72194757D01*
X168499774Y-72194757D01*
X168712673Y-72202564D01*
X168712677Y-72202564D01*
X168717837Y-72202753D01*
X168722957Y-72202097D01*
X168722959Y-72202097D01*
X168934288Y-72175025D01*
X168934289Y-72175025D01*
X168939416Y-72174368D01*
X168965258Y-72166615D01*
X169148429Y-72111661D01*
X169148434Y-72111659D01*
X169153384Y-72110174D01*
X169353994Y-72011896D01*
X169535860Y-71882173D01*
X169540012Y-71878036D01*
X169650903Y-71767531D01*
X169694096Y-71724489D01*
X169729665Y-71674990D01*
X169821435Y-71547277D01*
X169824453Y-71543077D01*
X169833209Y-71525362D01*
X169921136Y-71347453D01*
X169921137Y-71347451D01*
X169923430Y-71342811D01*
X169955900Y-71235940D01*
X169986865Y-71134023D01*
X169986865Y-71134021D01*
X169988370Y-71129069D01*
X170017529Y-70907590D01*
X170019156Y-70841000D01*
X170000852Y-70618361D01*
X169946431Y-70401702D01*
X169857354Y-70196840D01*
X169754995Y-70038617D01*
X169738822Y-70013617D01*
X169738820Y-70013614D01*
X169736014Y-70009277D01*
X169711834Y-69982703D01*
X171880743Y-69982703D01*
X171881302Y-69986947D01*
X171881302Y-69986951D01*
X171884654Y-70012411D01*
X171918268Y-70267734D01*
X171994129Y-70545036D01*
X172106923Y-70809476D01*
X172254561Y-71056161D01*
X172434313Y-71280528D01*
X172642851Y-71478423D01*
X172876317Y-71646186D01*
X172880112Y-71648195D01*
X172880113Y-71648196D01*
X172901869Y-71659715D01*
X173130392Y-71780712D01*
X173400373Y-71879511D01*
X173681264Y-71940755D01*
X173709841Y-71943004D01*
X173904282Y-71958307D01*
X173904291Y-71958307D01*
X173906739Y-71958500D01*
X174062271Y-71958500D01*
X174064407Y-71958354D01*
X174064418Y-71958354D01*
X174272548Y-71944165D01*
X174272554Y-71944164D01*
X174276825Y-71943873D01*
X174281020Y-71943004D01*
X174281022Y-71943004D01*
X174473494Y-71903145D01*
X174558342Y-71885574D01*
X174829343Y-71789607D01*
X175084812Y-71657750D01*
X175088313Y-71655289D01*
X175088317Y-71655287D01*
X175247975Y-71543077D01*
X175320023Y-71492441D01*
X175454141Y-71367811D01*
X175527479Y-71299661D01*
X175527481Y-71299658D01*
X175530622Y-71296740D01*
X175712713Y-71074268D01*
X175862927Y-70829142D01*
X175978483Y-70565898D01*
X176057244Y-70289406D01*
X176097751Y-70004784D01*
X176097843Y-69987403D01*
X176099235Y-69721583D01*
X176099235Y-69721576D01*
X176099257Y-69717297D01*
X176098627Y-69712507D01*
X176081544Y-69582750D01*
X176061732Y-69432266D01*
X175985871Y-69154964D01*
X175873077Y-68890524D01*
X175725439Y-68643839D01*
X175545687Y-68419472D01*
X175337149Y-68221577D01*
X175103683Y-68053814D01*
X175081843Y-68042250D01*
X175058654Y-68029972D01*
X174849608Y-67919288D01*
X174579627Y-67820489D01*
X174298736Y-67759245D01*
X174267685Y-67756801D01*
X174075718Y-67741693D01*
X174075709Y-67741693D01*
X174073261Y-67741500D01*
X173917729Y-67741500D01*
X173915593Y-67741646D01*
X173915582Y-67741646D01*
X173707452Y-67755835D01*
X173707446Y-67755836D01*
X173703175Y-67756127D01*
X173698980Y-67756996D01*
X173698978Y-67756996D01*
X173562416Y-67785277D01*
X173421658Y-67814426D01*
X173150657Y-67910393D01*
X172895188Y-68042250D01*
X172891687Y-68044711D01*
X172891683Y-68044713D01*
X172881594Y-68051804D01*
X172659977Y-68207559D01*
X172449378Y-68403260D01*
X172267287Y-68625732D01*
X172117073Y-68870858D01*
X172001517Y-69134102D01*
X171922756Y-69410594D01*
X171882249Y-69695216D01*
X171882227Y-69699505D01*
X171882226Y-69699512D01*
X171880765Y-69978417D01*
X171880743Y-69982703D01*
X169711834Y-69982703D01*
X169585670Y-69844051D01*
X169581619Y-69840852D01*
X169581615Y-69840848D01*
X169414414Y-69708800D01*
X169414410Y-69708798D01*
X169410359Y-69705598D01*
X169383850Y-69690964D01*
X169327611Y-69659919D01*
X169214789Y-69597638D01*
X169209920Y-69595914D01*
X169209916Y-69595912D01*
X169009087Y-69524795D01*
X169009083Y-69524794D01*
X169004212Y-69523069D01*
X168999119Y-69522162D01*
X168999116Y-69522161D01*
X168789373Y-69484800D01*
X168789367Y-69484799D01*
X168784284Y-69483894D01*
X168710452Y-69482992D01*
X168566081Y-69481228D01*
X168566079Y-69481228D01*
X168560911Y-69481165D01*
X168340091Y-69514955D01*
X168127756Y-69584357D01*
X167929607Y-69687507D01*
X167925474Y-69690610D01*
X167925471Y-69690612D01*
X167830246Y-69762109D01*
X167750965Y-69821635D01*
X167725894Y-69847870D01*
X167614470Y-69964469D01*
X167596629Y-69983138D01*
X167489201Y-70140621D01*
X167434293Y-70185621D01*
X167363768Y-70193792D01*
X167300021Y-70162538D01*
X167279324Y-70138054D01*
X167198822Y-70013617D01*
X167198820Y-70013614D01*
X167196014Y-70009277D01*
X167045670Y-69844051D01*
X167041619Y-69840852D01*
X167041615Y-69840848D01*
X166874414Y-69708800D01*
X166874410Y-69708798D01*
X166870359Y-69705598D01*
X166843850Y-69690964D01*
X166787611Y-69659919D01*
X166674789Y-69597638D01*
X166669920Y-69595914D01*
X166669916Y-69595912D01*
X166469087Y-69524795D01*
X166469083Y-69524794D01*
X166464212Y-69523069D01*
X166459119Y-69522162D01*
X166459116Y-69522161D01*
X166249373Y-69484800D01*
X166249367Y-69484799D01*
X166244284Y-69483894D01*
X166170452Y-69482992D01*
X166026081Y-69481228D01*
X166026079Y-69481228D01*
X166020911Y-69481165D01*
X165800091Y-69514955D01*
X165587756Y-69584357D01*
X165389607Y-69687507D01*
X165385474Y-69690610D01*
X165385471Y-69690612D01*
X165290246Y-69762109D01*
X165210965Y-69821635D01*
X165137717Y-69898285D01*
X165130283Y-69906064D01*
X165068759Y-69941494D01*
X164997846Y-69938037D01*
X164940060Y-69896791D01*
X164921207Y-69863243D01*
X164879767Y-69752703D01*
X164876615Y-69744295D01*
X164789261Y-69627739D01*
X164672705Y-69540385D01*
X164536316Y-69489255D01*
X164474134Y-69482500D01*
X162677866Y-69482500D01*
X162615684Y-69489255D01*
X162479295Y-69540385D01*
X162362739Y-69627739D01*
X162275385Y-69744295D01*
X162224255Y-69880684D01*
X162217500Y-69942866D01*
X162217500Y-71739134D01*
X150710500Y-71739134D01*
X150710500Y-69967866D01*
X150703745Y-69905684D01*
X150652615Y-69769295D01*
X150565261Y-69652739D01*
X150448705Y-69565385D01*
X150312316Y-69514255D01*
X150250134Y-69507500D01*
X148453866Y-69507500D01*
X148391684Y-69514255D01*
X148255295Y-69565385D01*
X148138739Y-69652739D01*
X148051385Y-69769295D01*
X148048233Y-69777703D01*
X148048232Y-69777705D01*
X148006722Y-69888433D01*
X147964081Y-69945198D01*
X147897519Y-69969898D01*
X147828170Y-69954691D01*
X147795546Y-69929004D01*
X147744799Y-69873234D01*
X147737273Y-69866215D01*
X147570139Y-69734222D01*
X147561552Y-69728517D01*
X147375117Y-69625599D01*
X147365705Y-69621369D01*
X147164959Y-69550280D01*
X147154988Y-69547646D01*
X147083837Y-69534972D01*
X147070540Y-69536432D01*
X147066000Y-69550989D01*
X147066000Y-72184517D01*
X146558000Y-72184517D01*
X146558000Y-69549102D01*
X146554082Y-69535758D01*
X146539806Y-69533771D01*
X146501324Y-69539660D01*
X146491288Y-69542051D01*
X146288868Y-69608212D01*
X146279359Y-69612209D01*
X146090463Y-69710542D01*
X146081738Y-69716036D01*
X145911433Y-69843905D01*
X145903726Y-69850748D01*
X145756590Y-70004717D01*
X145750109Y-70012722D01*
X145645498Y-70166074D01*
X145590587Y-70211076D01*
X145520062Y-70219247D01*
X145456315Y-70187993D01*
X145435618Y-70163509D01*
X145354822Y-70038617D01*
X145354820Y-70038614D01*
X145352014Y-70034277D01*
X145201670Y-69869051D01*
X145197619Y-69865852D01*
X145197615Y-69865848D01*
X145030414Y-69733800D01*
X145030410Y-69733798D01*
X145026359Y-69730598D01*
X145010029Y-69721583D01*
X144943972Y-69685118D01*
X144830789Y-69622638D01*
X144825920Y-69620914D01*
X144825916Y-69620912D01*
X144625087Y-69549795D01*
X144625083Y-69549794D01*
X144620212Y-69548069D01*
X144615119Y-69547162D01*
X144615116Y-69547161D01*
X144405373Y-69509800D01*
X144405367Y-69509799D01*
X144400284Y-69508894D01*
X144326452Y-69507992D01*
X144182081Y-69506228D01*
X144182079Y-69506228D01*
X144176911Y-69506165D01*
X143956091Y-69539955D01*
X143743756Y-69609357D01*
X143708445Y-69627739D01*
X143578823Y-69695216D01*
X143545607Y-69712507D01*
X143541474Y-69715610D01*
X143541471Y-69715612D01*
X143371100Y-69843530D01*
X143366965Y-69846635D01*
X143363393Y-69850373D01*
X143219940Y-70000488D01*
X143212629Y-70008138D01*
X143086743Y-70192680D01*
X142992688Y-70395305D01*
X142932989Y-70610570D01*
X142909251Y-70832695D01*
X142909548Y-70837848D01*
X142909548Y-70837851D01*
X142915011Y-70932590D01*
X142922110Y-71055715D01*
X142923247Y-71060761D01*
X142923248Y-71060767D01*
X142937485Y-71123939D01*
X142971222Y-71273639D01*
X142993572Y-71328680D01*
X143053178Y-71475473D01*
X143055266Y-71480616D01*
X143064022Y-71494904D01*
X143165018Y-71659715D01*
X143171987Y-71671088D01*
X143318250Y-71839938D01*
X143490126Y-71982632D01*
X143576070Y-72032853D01*
X143624794Y-72084491D01*
X143638500Y-72141641D01*
X143638500Y-77413677D01*
X143618498Y-77481798D01*
X143564842Y-77528291D01*
X143494568Y-77538395D01*
X143436935Y-77514503D01*
X143343892Y-77444771D01*
X143343890Y-77444770D01*
X143336705Y-77439385D01*
X143200316Y-77388255D01*
X143138134Y-77381500D01*
X141341866Y-77381500D01*
X141279684Y-77388255D01*
X141143295Y-77439385D01*
X141026739Y-77526739D01*
X140939385Y-77643295D01*
X140888255Y-77779684D01*
X140881500Y-77841866D01*
X140881500Y-79638134D01*
X140888255Y-79700316D01*
X140939385Y-79836705D01*
X141026739Y-79953261D01*
X141143295Y-80040615D01*
X141151704Y-80043767D01*
X141151705Y-80043768D01*
X141260451Y-80084535D01*
X141317216Y-80127176D01*
X141341916Y-80193738D01*
X141326709Y-80263087D01*
X141307316Y-80289568D01*
X141180629Y-80422138D01*
X141054743Y-80606680D01*
X140960688Y-80809305D01*
X140900989Y-81024570D01*
X140877251Y-81246695D01*
X140877548Y-81251848D01*
X140877548Y-81251851D01*
X140883011Y-81346590D01*
X140890110Y-81469715D01*
X140891247Y-81474761D01*
X140891248Y-81474767D01*
X140923453Y-81617668D01*
X140918917Y-81688520D01*
X140889631Y-81734464D01*
X139774215Y-82849880D01*
X139765929Y-82857420D01*
X139759450Y-82861532D01*
X139754025Y-82867309D01*
X139712825Y-82911183D01*
X139710070Y-82914025D01*
X139690333Y-82933762D01*
X139687853Y-82936959D01*
X139680150Y-82945979D01*
X139649882Y-82978211D01*
X139646063Y-82985157D01*
X139646061Y-82985160D01*
X139640120Y-82995966D01*
X139629269Y-83012485D01*
X139616854Y-83028491D01*
X139613709Y-83035760D01*
X139613706Y-83035764D01*
X139599294Y-83069069D01*
X139594077Y-83079719D01*
X139572773Y-83118472D01*
X139570802Y-83126147D01*
X139570802Y-83126148D01*
X139567735Y-83138094D01*
X139561331Y-83156798D01*
X139553287Y-83175387D01*
X139552048Y-83183210D01*
X139552045Y-83183220D01*
X139546369Y-83219056D01*
X139543963Y-83230676D01*
X139536390Y-83260173D01*
X139532968Y-83273502D01*
X139532968Y-83293756D01*
X139531417Y-83313466D01*
X139528248Y-83333475D01*
X139532264Y-83375954D01*
X139532409Y-83377493D01*
X139532968Y-83389351D01*
X139532968Y-97161701D01*
X139532441Y-97172884D01*
X139530766Y-97180377D01*
X139531015Y-97188303D01*
X139531015Y-97188304D01*
X139532906Y-97248454D01*
X139532968Y-97252413D01*
X139532968Y-97280324D01*
X139533465Y-97284258D01*
X139533465Y-97284259D01*
X139533473Y-97284324D01*
X139534406Y-97296161D01*
X139535795Y-97340357D01*
X139541446Y-97359807D01*
X139545455Y-97379168D01*
X139547994Y-97399265D01*
X139550913Y-97406636D01*
X139550913Y-97406638D01*
X139564272Y-97440380D01*
X139568117Y-97451610D01*
X139580450Y-97494061D01*
X139584483Y-97500880D01*
X139584485Y-97500885D01*
X139590761Y-97511496D01*
X139599456Y-97529244D01*
X139606916Y-97548085D01*
X139611578Y-97554501D01*
X139611578Y-97554502D01*
X139632904Y-97583855D01*
X139639420Y-97593775D01*
X139661926Y-97631830D01*
X139676247Y-97646151D01*
X139689087Y-97661184D01*
X139700996Y-97677575D01*
X139719851Y-97693173D01*
X139735073Y-97705766D01*
X139743852Y-97713756D01*
X146054343Y-104024247D01*
X146061887Y-104032537D01*
X146066000Y-104039018D01*
X146071777Y-104044443D01*
X146115667Y-104085658D01*
X146118509Y-104088413D01*
X146138230Y-104108134D01*
X146141425Y-104110612D01*
X146150447Y-104118318D01*
X146182679Y-104148586D01*
X146189628Y-104152406D01*
X146200432Y-104158346D01*
X146216956Y-104169199D01*
X146232959Y-104181613D01*
X146273543Y-104199176D01*
X146284173Y-104204383D01*
X146322940Y-104225695D01*
X146330617Y-104227666D01*
X146330622Y-104227668D01*
X146342558Y-104230732D01*
X146361266Y-104237137D01*
X146379855Y-104245181D01*
X146387683Y-104246421D01*
X146387690Y-104246423D01*
X146423524Y-104252099D01*
X146435144Y-104254505D01*
X146470289Y-104263528D01*
X146477970Y-104265500D01*
X146498224Y-104265500D01*
X146517934Y-104267051D01*
X146537943Y-104270220D01*
X146545835Y-104269474D01*
X146581961Y-104266059D01*
X146593819Y-104265500D01*
X147060274Y-104265500D01*
X147128395Y-104285502D01*
X147167707Y-104325665D01*
X147235987Y-104437088D01*
X147382250Y-104605938D01*
X147554126Y-104748632D01*
X147567606Y-104756509D01*
X147640070Y-104798853D01*
X147688794Y-104850491D01*
X147702500Y-104907641D01*
X147702500Y-105338207D01*
X147700268Y-105361816D01*
X147698725Y-105369906D01*
X147699223Y-105377817D01*
X147702251Y-105425951D01*
X147702500Y-105433862D01*
X147702500Y-105449856D01*
X147704506Y-105465730D01*
X147705248Y-105473590D01*
X147708775Y-105529650D01*
X147711225Y-105537191D01*
X147711321Y-105537487D01*
X147716494Y-105560631D01*
X147716532Y-105560935D01*
X147716533Y-105560940D01*
X147717526Y-105568797D01*
X147720442Y-105576162D01*
X147720443Y-105576166D01*
X147738199Y-105621011D01*
X147740871Y-105628430D01*
X147758236Y-105681875D01*
X147762486Y-105688571D01*
X147762486Y-105688572D01*
X147762650Y-105688831D01*
X147773415Y-105709958D01*
X147773529Y-105710246D01*
X147773532Y-105710251D01*
X147776448Y-105717617D01*
X147781104Y-105724025D01*
X147781107Y-105724031D01*
X147809458Y-105763052D01*
X147813901Y-105769589D01*
X147844000Y-105817018D01*
X147849778Y-105822444D01*
X147849779Y-105822445D01*
X147850007Y-105822659D01*
X147865688Y-105840446D01*
X147870528Y-105847107D01*
X147876637Y-105852161D01*
X147876638Y-105852162D01*
X147913796Y-105882903D01*
X147919730Y-105888134D01*
X147954898Y-105921158D01*
X147954901Y-105921160D01*
X147960679Y-105926586D01*
X147967903Y-105930558D01*
X147987503Y-105943878D01*
X147992982Y-105948410D01*
X148032724Y-106007241D01*
X148034351Y-106078219D01*
X147997346Y-106138809D01*
X147933458Y-106169774D01*
X147912673Y-106171500D01*
X124332500Y-106171500D01*
X124264379Y-106151498D01*
X124217886Y-106097842D01*
X124206500Y-106045500D01*
X124206500Y-102494703D01*
X126668743Y-102494703D01*
X126706268Y-102779734D01*
X126782129Y-103057036D01*
X126894923Y-103321476D01*
X127042561Y-103568161D01*
X127222313Y-103792528D01*
X127430851Y-103990423D01*
X127664317Y-104158186D01*
X127668112Y-104160195D01*
X127668113Y-104160196D01*
X127689869Y-104171715D01*
X127918392Y-104292712D01*
X128188373Y-104391511D01*
X128469264Y-104452755D01*
X128497841Y-104455004D01*
X128692282Y-104470307D01*
X128692291Y-104470307D01*
X128694739Y-104470500D01*
X128850271Y-104470500D01*
X128852407Y-104470354D01*
X128852418Y-104470354D01*
X129060548Y-104456165D01*
X129060554Y-104456164D01*
X129064825Y-104455873D01*
X129069020Y-104455004D01*
X129069022Y-104455004D01*
X129205584Y-104426723D01*
X129346342Y-104397574D01*
X129617343Y-104301607D01*
X129872812Y-104169750D01*
X129876313Y-104167289D01*
X129876317Y-104167287D01*
X130058825Y-104039018D01*
X130108023Y-104004441D01*
X130318622Y-103808740D01*
X130500713Y-103586268D01*
X130650927Y-103341142D01*
X130766483Y-103077898D01*
X130845244Y-102801406D01*
X130885751Y-102516784D01*
X130885845Y-102498951D01*
X130887235Y-102233583D01*
X130887235Y-102233576D01*
X130887257Y-102229297D01*
X130849732Y-101944266D01*
X130773871Y-101666964D01*
X130661077Y-101402524D01*
X130513439Y-101155839D01*
X130333687Y-100931472D01*
X130125149Y-100733577D01*
X129891683Y-100565814D01*
X129869843Y-100554250D01*
X129846654Y-100541972D01*
X129637608Y-100431288D01*
X129367627Y-100332489D01*
X129086736Y-100271245D01*
X129055685Y-100268801D01*
X128863718Y-100253693D01*
X128863709Y-100253693D01*
X128861261Y-100253500D01*
X128705729Y-100253500D01*
X128703593Y-100253646D01*
X128703582Y-100253646D01*
X128495452Y-100267835D01*
X128495446Y-100267836D01*
X128491175Y-100268127D01*
X128486980Y-100268996D01*
X128486978Y-100268996D01*
X128350416Y-100297277D01*
X128209658Y-100326426D01*
X127938657Y-100422393D01*
X127683188Y-100554250D01*
X127679687Y-100556711D01*
X127679683Y-100556713D01*
X127669594Y-100563804D01*
X127447977Y-100719559D01*
X127237378Y-100915260D01*
X127055287Y-101137732D01*
X126905073Y-101382858D01*
X126789517Y-101646102D01*
X126710756Y-101922594D01*
X126670249Y-102207216D01*
X126670227Y-102211505D01*
X126670226Y-102211512D01*
X126668765Y-102490417D01*
X126668743Y-102494703D01*
X124206500Y-102494703D01*
X124206500Y-93946695D01*
X125637251Y-93946695D01*
X125637548Y-93951848D01*
X125637548Y-93951851D01*
X125643011Y-94046590D01*
X125650110Y-94169715D01*
X125651247Y-94174761D01*
X125651248Y-94174767D01*
X125652375Y-94179767D01*
X125699222Y-94387639D01*
X125783266Y-94594616D01*
X125899987Y-94785088D01*
X126046250Y-94953938D01*
X126218126Y-95096632D01*
X126411000Y-95209338D01*
X126415825Y-95211180D01*
X126415826Y-95211181D01*
X126469434Y-95231652D01*
X126619692Y-95289030D01*
X126624760Y-95290061D01*
X126624763Y-95290062D01*
X126695026Y-95304357D01*
X126838597Y-95333567D01*
X126843772Y-95333757D01*
X126843774Y-95333757D01*
X127056673Y-95341564D01*
X127056677Y-95341564D01*
X127061837Y-95341753D01*
X127066957Y-95341097D01*
X127066959Y-95341097D01*
X127278288Y-95314025D01*
X127278289Y-95314025D01*
X127283416Y-95313368D01*
X127290096Y-95311364D01*
X127492429Y-95250661D01*
X127492434Y-95250659D01*
X127497384Y-95249174D01*
X127697994Y-95150896D01*
X127879860Y-95021173D01*
X127935039Y-94966187D01*
X128034435Y-94867137D01*
X128038096Y-94863489D01*
X128097594Y-94780689D01*
X128165435Y-94686277D01*
X128168453Y-94682077D01*
X128211574Y-94594829D01*
X128265136Y-94486453D01*
X128265137Y-94486451D01*
X128267430Y-94481811D01*
X128332370Y-94268069D01*
X128361529Y-94046590D01*
X128363156Y-93980000D01*
X128344852Y-93757361D01*
X128290431Y-93540702D01*
X128201354Y-93335840D01*
X128161906Y-93274862D01*
X128082822Y-93152617D01*
X128082820Y-93152614D01*
X128080014Y-93148277D01*
X127929670Y-92983051D01*
X127925619Y-92979852D01*
X127925615Y-92979848D01*
X127758414Y-92847800D01*
X127758410Y-92847798D01*
X127754359Y-92844598D01*
X127712569Y-92821529D01*
X127662598Y-92771097D01*
X127647826Y-92701654D01*
X127672942Y-92635248D01*
X127700294Y-92608641D01*
X127875328Y-92483792D01*
X127883200Y-92477139D01*
X128034052Y-92326812D01*
X128040730Y-92318965D01*
X128165003Y-92146020D01*
X128170313Y-92137183D01*
X128264670Y-91946267D01*
X128268469Y-91936672D01*
X128330377Y-91732910D01*
X128332555Y-91722837D01*
X128333986Y-91711962D01*
X128331775Y-91697778D01*
X128318617Y-91694000D01*
X125683225Y-91694000D01*
X125669694Y-91697973D01*
X125668257Y-91707966D01*
X125698565Y-91842446D01*
X125701645Y-91852275D01*
X125781770Y-92049603D01*
X125786413Y-92058794D01*
X125897694Y-92240388D01*
X125903777Y-92248699D01*
X126043213Y-92409667D01*
X126050580Y-92416883D01*
X126214434Y-92552916D01*
X126222881Y-92558831D01*
X126291969Y-92599203D01*
X126340693Y-92650842D01*
X126353764Y-92720625D01*
X126327033Y-92786396D01*
X126286584Y-92819752D01*
X126273607Y-92826507D01*
X126269474Y-92829610D01*
X126269471Y-92829612D01*
X126099100Y-92957530D01*
X126094965Y-92960635D01*
X125940629Y-93122138D01*
X125814743Y-93306680D01*
X125720688Y-93509305D01*
X125660989Y-93724570D01*
X125637251Y-93946695D01*
X124206500Y-93946695D01*
X124206500Y-88866695D01*
X125637251Y-88866695D01*
X125637548Y-88871848D01*
X125637548Y-88871851D01*
X125646285Y-89023375D01*
X125650110Y-89089715D01*
X125651247Y-89094761D01*
X125651248Y-89094767D01*
X125673392Y-89193023D01*
X125699222Y-89307639D01*
X125756243Y-89448065D01*
X125775590Y-89495711D01*
X125783266Y-89514616D01*
X125899987Y-89705088D01*
X126046250Y-89873938D01*
X126218126Y-90016632D01*
X126291445Y-90059476D01*
X126291955Y-90059774D01*
X126340679Y-90111412D01*
X126353750Y-90181195D01*
X126327019Y-90246967D01*
X126286562Y-90280327D01*
X126278457Y-90284546D01*
X126269738Y-90290036D01*
X126099433Y-90417905D01*
X126091726Y-90424748D01*
X125944590Y-90578717D01*
X125938104Y-90586727D01*
X125818098Y-90762649D01*
X125813000Y-90771623D01*
X125723338Y-90964783D01*
X125719775Y-90974470D01*
X125664389Y-91174183D01*
X125665912Y-91182607D01*
X125678292Y-91186000D01*
X128318344Y-91186000D01*
X128331875Y-91182027D01*
X128333180Y-91172947D01*
X128291214Y-91005875D01*
X128287894Y-90996124D01*
X128202972Y-90800814D01*
X128198105Y-90791739D01*
X128082426Y-90612926D01*
X128076136Y-90604757D01*
X127932806Y-90447240D01*
X127925273Y-90440215D01*
X127758139Y-90308222D01*
X127749556Y-90302520D01*
X127712602Y-90282120D01*
X127662631Y-90231687D01*
X127647859Y-90162245D01*
X127672975Y-90095839D01*
X127700327Y-90069232D01*
X127723797Y-90052491D01*
X127879860Y-89941173D01*
X127909485Y-89911652D01*
X127996860Y-89824581D01*
X128038096Y-89783489D01*
X128097594Y-89700689D01*
X128165435Y-89606277D01*
X128168453Y-89602077D01*
X128180199Y-89578312D01*
X128265136Y-89406453D01*
X128265137Y-89406451D01*
X128267430Y-89401811D01*
X128332370Y-89188069D01*
X128361529Y-88966590D01*
X128363156Y-88900000D01*
X128344852Y-88677361D01*
X128290431Y-88460702D01*
X128201354Y-88255840D01*
X128080014Y-88068277D01*
X127929670Y-87903051D01*
X127925619Y-87899852D01*
X127925615Y-87899848D01*
X127758414Y-87767800D01*
X127758410Y-87767798D01*
X127754359Y-87764598D01*
X127713053Y-87741796D01*
X127663084Y-87691364D01*
X127648312Y-87621921D01*
X127673428Y-87555516D01*
X127700780Y-87528909D01*
X127744603Y-87497650D01*
X127879860Y-87401173D01*
X128038096Y-87243489D01*
X128097594Y-87160689D01*
X128165435Y-87066277D01*
X128168453Y-87062077D01*
X128267430Y-86861811D01*
X128332370Y-86648069D01*
X128361529Y-86426590D01*
X128363156Y-86360000D01*
X128344852Y-86137361D01*
X128290431Y-85920702D01*
X128201354Y-85715840D01*
X128133258Y-85610579D01*
X128082822Y-85532617D01*
X128082820Y-85532614D01*
X128080014Y-85528277D01*
X127929670Y-85363051D01*
X127925619Y-85359852D01*
X127925615Y-85359848D01*
X127758414Y-85227800D01*
X127758410Y-85227798D01*
X127754359Y-85224598D01*
X127713053Y-85201796D01*
X127663084Y-85151364D01*
X127648312Y-85081921D01*
X127673428Y-85015516D01*
X127700780Y-84988909D01*
X127744603Y-84957650D01*
X127879860Y-84861173D01*
X128038096Y-84703489D01*
X128097594Y-84620689D01*
X128165435Y-84526277D01*
X128168453Y-84522077D01*
X128267430Y-84321811D01*
X128332370Y-84108069D01*
X128361529Y-83886590D01*
X128363156Y-83820000D01*
X128344852Y-83597361D01*
X128290431Y-83380702D01*
X128201354Y-83175840D01*
X128090606Y-83004649D01*
X128082822Y-82992617D01*
X128082820Y-82992614D01*
X128080014Y-82988277D01*
X127929670Y-82823051D01*
X127925619Y-82819852D01*
X127925615Y-82819848D01*
X127758414Y-82687800D01*
X127758410Y-82687798D01*
X127754359Y-82684598D01*
X127713053Y-82661796D01*
X127663084Y-82611364D01*
X127648312Y-82541921D01*
X127673428Y-82475516D01*
X127700780Y-82448909D01*
X127744603Y-82417650D01*
X127879860Y-82321173D01*
X128038096Y-82163489D01*
X128097594Y-82080689D01*
X128165435Y-81986277D01*
X128168453Y-81982077D01*
X128267430Y-81781811D01*
X128332370Y-81568069D01*
X128361529Y-81346590D01*
X128363156Y-81280000D01*
X128344852Y-81057361D01*
X128290431Y-80840702D01*
X128201354Y-80635840D01*
X128080014Y-80448277D01*
X128076532Y-80444450D01*
X127932798Y-80286488D01*
X127901746Y-80222642D01*
X127910141Y-80152143D01*
X127955317Y-80097375D01*
X127981761Y-80083706D01*
X128088297Y-80043767D01*
X128096705Y-80040615D01*
X128213261Y-79953261D01*
X128300615Y-79836705D01*
X128351745Y-79700316D01*
X128358500Y-79638134D01*
X128358500Y-77841866D01*
X128351745Y-77779684D01*
X128300615Y-77643295D01*
X128213261Y-77526739D01*
X128096705Y-77439385D01*
X127960316Y-77388255D01*
X127898134Y-77381500D01*
X126101866Y-77381500D01*
X126039684Y-77388255D01*
X125903295Y-77439385D01*
X125786739Y-77526739D01*
X125699385Y-77643295D01*
X125648255Y-77779684D01*
X125641500Y-77841866D01*
X125641500Y-79638134D01*
X125648255Y-79700316D01*
X125699385Y-79836705D01*
X125786739Y-79953261D01*
X125903295Y-80040615D01*
X125911704Y-80043767D01*
X125911705Y-80043768D01*
X126020451Y-80084535D01*
X126077216Y-80127176D01*
X126101916Y-80193738D01*
X126086709Y-80263087D01*
X126067316Y-80289568D01*
X125940629Y-80422138D01*
X125814743Y-80606680D01*
X125720688Y-80809305D01*
X125660989Y-81024570D01*
X125637251Y-81246695D01*
X125637548Y-81251848D01*
X125637548Y-81251851D01*
X125643011Y-81346590D01*
X125650110Y-81469715D01*
X125651247Y-81474761D01*
X125651248Y-81474767D01*
X125671119Y-81562939D01*
X125699222Y-81687639D01*
X125783266Y-81894616D01*
X125810923Y-81939748D01*
X125880161Y-82052734D01*
X125899987Y-82085088D01*
X126046250Y-82253938D01*
X126218126Y-82396632D01*
X126288595Y-82437811D01*
X126291445Y-82439476D01*
X126340169Y-82491114D01*
X126353240Y-82560897D01*
X126326509Y-82626669D01*
X126286055Y-82660027D01*
X126273607Y-82666507D01*
X126269474Y-82669610D01*
X126269471Y-82669612D01*
X126245247Y-82687800D01*
X126094965Y-82800635D01*
X125940629Y-82962138D01*
X125814743Y-83146680D01*
X125799003Y-83180590D01*
X125723319Y-83343638D01*
X125720688Y-83349305D01*
X125660989Y-83564570D01*
X125637251Y-83786695D01*
X125637548Y-83791848D01*
X125637548Y-83791851D01*
X125643011Y-83886590D01*
X125650110Y-84009715D01*
X125651247Y-84014761D01*
X125651248Y-84014767D01*
X125671119Y-84102939D01*
X125699222Y-84227639D01*
X125783266Y-84434616D01*
X125810923Y-84479748D01*
X125880161Y-84592734D01*
X125899987Y-84625088D01*
X126046250Y-84793938D01*
X126218126Y-84936632D01*
X126288595Y-84977811D01*
X126291445Y-84979476D01*
X126340169Y-85031114D01*
X126353240Y-85100897D01*
X126326509Y-85166669D01*
X126286055Y-85200027D01*
X126283003Y-85201616D01*
X126273607Y-85206507D01*
X126269474Y-85209610D01*
X126269471Y-85209612D01*
X126099100Y-85337530D01*
X126094965Y-85340635D01*
X125940629Y-85502138D01*
X125937715Y-85506410D01*
X125937714Y-85506411D01*
X125895573Y-85568187D01*
X125814743Y-85686680D01*
X125785543Y-85749586D01*
X125752115Y-85821602D01*
X125720688Y-85889305D01*
X125660989Y-86104570D01*
X125637251Y-86326695D01*
X125637548Y-86331848D01*
X125637548Y-86331851D01*
X125647517Y-86504744D01*
X125650110Y-86549715D01*
X125651247Y-86554761D01*
X125651248Y-86554767D01*
X125667768Y-86628069D01*
X125699222Y-86767639D01*
X125783266Y-86974616D01*
X125810923Y-87019748D01*
X125880161Y-87132734D01*
X125899987Y-87165088D01*
X126046250Y-87333938D01*
X126218126Y-87476632D01*
X126288595Y-87517811D01*
X126291445Y-87519476D01*
X126340169Y-87571114D01*
X126353240Y-87640897D01*
X126326509Y-87706669D01*
X126286055Y-87740027D01*
X126273607Y-87746507D01*
X126269474Y-87749610D01*
X126269471Y-87749612D01*
X126099100Y-87877530D01*
X126094965Y-87880635D01*
X125940629Y-88042138D01*
X125814743Y-88226680D01*
X125799003Y-88260590D01*
X125723973Y-88422229D01*
X125720688Y-88429305D01*
X125660989Y-88644570D01*
X125637251Y-88866695D01*
X124206500Y-88866695D01*
X124206500Y-66674500D01*
X124226502Y-66606379D01*
X124280158Y-66559886D01*
X124332500Y-66548500D01*
X177165500Y-66548500D01*
X177233621Y-66568502D01*
G37*
%TD.AperFunction*%
%TD*%
M02*
