%TF.GenerationSoftware,KiCad,Pcbnew,(6.0.5)*%
%TF.CreationDate,2022-06-20T10:47:57-05:00*%
%TF.ProjectId,hauptic_pcb,68617570-7469-4635-9f70-63622e6b6963,rev?*%
%TF.SameCoordinates,Original*%
%TF.FileFunction,Soldermask,Bot*%
%TF.FilePolarity,Negative*%
%FSLAX46Y46*%
G04 Gerber Fmt 4.6, Leading zero omitted, Abs format (unit mm)*
G04 Created by KiCad (PCBNEW (6.0.5)) date 2022-06-20 10:47:57*
%MOMM*%
%LPD*%
G01*
G04 APERTURE LIST*
%ADD10R,1.700000X1.700000*%
%ADD11O,1.700000X1.700000*%
%ADD12C,3.200000*%
G04 APERTURE END LIST*
D10*
%TO.C,Motor_driver*%
X167640000Y-78740000D03*
D11*
X167640000Y-81280000D03*
X167640000Y-83820000D03*
X167640000Y-86360000D03*
X167640000Y-88900000D03*
X167640000Y-91440000D03*
X167640000Y-93980000D03*
X167640000Y-96520000D03*
%TD*%
%TO.C,Motor_driver*%
X152400000Y-96520000D03*
X152400000Y-93980000D03*
X152400000Y-91440000D03*
X152400000Y-88900000D03*
X152400000Y-86360000D03*
X152400000Y-83820000D03*
X152400000Y-81280000D03*
D10*
X152400000Y-78740000D03*
%TD*%
%TO.C,Logic_board*%
X142240000Y-78740000D03*
D11*
X142240000Y-81280000D03*
X142240000Y-83820000D03*
X142240000Y-86360000D03*
X142240000Y-88900000D03*
X142240000Y-91440000D03*
X142240000Y-93980000D03*
%TD*%
%TO.C,Power*%
X173990000Y-84587000D03*
D10*
X173990000Y-87127000D03*
%TD*%
%TO.C,Sensor*%
X149352000Y-70866000D03*
D11*
X146812000Y-70866000D03*
X144272000Y-70866000D03*
%TD*%
D12*
%TO.C,REF\u002A\u002A*%
X173990000Y-69850000D03*
%TD*%
D10*
%TO.C,Communication*%
X171196000Y-103632000D03*
D11*
X168656000Y-103632000D03*
X166116000Y-103632000D03*
X163576000Y-103632000D03*
X161036000Y-103632000D03*
X158496000Y-103632000D03*
X155956000Y-103632000D03*
X153416000Y-103632000D03*
X150876000Y-103632000D03*
X148336000Y-103632000D03*
%TD*%
D12*
%TO.C,REF\u002A\u002A*%
X128778000Y-102362000D03*
%TD*%
D10*
%TO.C,Motor*%
X173990000Y-96525000D03*
D11*
X173990000Y-93985000D03*
%TD*%
D10*
%TO.C,Logic_board*%
X127000000Y-78740000D03*
D11*
X127000000Y-81280000D03*
X127000000Y-83820000D03*
X127000000Y-86360000D03*
X127000000Y-88900000D03*
X127000000Y-91440000D03*
X127000000Y-93980000D03*
%TD*%
%TO.C,Regulator*%
X168656000Y-70841000D03*
X166116000Y-70841000D03*
D10*
X163576000Y-70841000D03*
%TD*%
M02*
